<svg width="24" height="24" viewBox="0 0 24 24" fill="none" xmlns="http://www.w3.org/2000/svg">
<path d="M19.2 20.1818C17.949 20.1818 16.698 19.7545 15.6 18.9818C13.404 20.5364 10.596 20.5364 8.4 18.9818C7.302 19.7545 6.051 20.1818 4.8 20.1818H3V22H4.8C6.042 22 7.266 21.6818 8.4 21.1C10.668 22.2727 13.332 22.2727 15.6 21.1C16.734 21.6909 17.958 22 19.2 22H21V20.1818H19.2ZM4.755 18.3636H4.8C6.24 18.3636 7.518 17.5636 8.4 16.5455C9.282 17.5636 10.56 18.3636 12 18.3636C13.44 18.3636 14.718 17.5636 15.6 16.5455C16.482 17.5636 17.76 18.3636 19.2 18.3636H19.245L20.955 12.2909C21.054 11.9545 20.991 11.3273 20.361 11.1273L19.2 10.7455V6.54545C19.2 5.54545 18.39 4.72727 17.4 4.72727H14.7V2H9.3V4.72727H6.6C5.61 4.72727 4.8 5.54545 4.8 6.54545V10.7455L3.639 11.1273C3.072 11.3 2.91 11.8909 3.045 12.2909L4.755 18.3636ZM6.6 6.54545H17.4V10.1545L12 8.36364L6.6 10.1545V6.54545Z" fill="currentColor"/>
</svg>
