<svg width="24" height="24" viewBox="0 0 24 24" fill="none" xmlns="http://www.w3.org/2000/svg">
<path d="M19 11C21.76 11 24 13.24 24 16C24 18.76 21.76 21 19 21C16.24 21 14 18.76 14 16C14 13.24 16.24 11 19 11ZM19 4C20.1046 4 21 4.89543 21 6V10.3428C20.3743 10.1214 19.7013 10 19 10C18.6593 10 18.3253 10.0293 18 10.084V7C18 6.44772 17.5523 6 17 6C16.4477 6 16 6.44772 16 7V10.8047C14.2073 11.8426 13 13.7806 13 16C13 17.0931 13.2944 18.1171 13.8057 19H3C1.89543 19 1 18.1046 1 17V6C1 4.89543 1.89543 4 3 4H19ZM19.4346 13.7031C18.8182 13.0868 17.8911 12.9817 17.1582 13.376L18.4629 14.6758L17.6797 15.458L16.375 14.1533C15.9808 14.8809 16.0868 15.8142 16.7031 16.4307C17.2473 16.9747 18.0356 17.1187 18.7129 16.8799L20.6064 18.7744C20.7174 18.8851 20.889 18.885 21 18.7744L21.7773 17.9961C21.8828 17.8906 21.8828 17.7129 21.7773 17.6074L19.8848 15.7139C20.1234 15.0363 19.9787 14.2474 19.4346 13.7031ZM5 6C4.44772 6 4 6.44772 4 7V16C4 16.5523 4.44772 17 5 17C5.55228 17 6 16.5523 6 16V7C6 6.44772 5.55228 6 5 6ZM11 6C10.4477 6 10 6.44772 10 7V16C10 16.5523 10.4477 17 11 17C11.5523 17 12 16.5523 12 16V7C12 6.44772 11.5523 6 11 6Z" fill="currentColor"/>
</svg>
