<svg width="16" height="16" viewBox="0 0 16 16" fill="none" xmlns="http://www.w3.org/2000/svg">
<path fill-rule="evenodd" clip-rule="evenodd" d="M5.57255 5.57254L7.24983 0.540694C7.35746 0.217797 7.65964 0 8 0C8.34036 0 8.64254 0.217797 8.75017 0.540694L10.4275 5.57254L15.4593 7.24983C15.7822 7.35746 16 7.65964 16 8C16 8.34036 15.7822 8.64254 15.4593 8.75017L10.4275 10.4275L8.75017 15.4593C8.64254 15.7822 8.34036 16 8 16C7.65964 16 7.35746 15.7822 7.24983 15.4593L5.57255 10.4275L0.540693 8.75017C0.217796 8.64254 0 8.34036 0 8C0 7.65964 0.217797 7.35746 0.540694 7.24983L5.57255 5.57254Z" fill="#0D0D0D" fill-opacity="0.8"/>
</svg>
