<svg width="40" height="40" viewBox="0 0 40 40" fill="none" xmlns="http://www.w3.org/2000/svg">
<rect x="4" y="4" width="32" height="32" rx="16" fill="#0D0D0D" fill-opacity="0.4"/>
<path fill-rule="evenodd" clip-rule="evenodd" d="M24.8002 14.5471C24.8002 17.198 22.6512 19.3471 20.0002 19.3471C17.3492 19.3471 15.2002 17.198 15.2002 14.5471C15.2002 11.8961 17.3492 9.74707 20.0002 9.74707C22.6512 9.74707 24.8002 11.8961 24.8002 14.5471ZM23.2002 14.5471C23.2002 16.3144 21.7675 17.7471 20.0002 17.7471C18.2329 17.7471 16.8002 16.3144 16.8002 14.5471C16.8002 12.7798 18.2329 11.3471 20.0002 11.3471C21.7675 11.3471 23.2002 12.7798 23.2002 14.5471Z" fill="white"/>
<path d="M20.0002 21.7471C14.8207 21.7471 10.4076 24.8098 8.72656 29.1007C9.13608 29.5074 9.56747 29.892 10.0188 30.2527C11.2706 26.3132 15.1976 23.3471 20.0002 23.3471C24.8028 23.3471 28.7298 26.3132 29.9816 30.2527C30.4329 29.892 30.8643 29.5074 31.2738 29.1007C29.5928 24.8098 25.1797 21.7471 20.0002 21.7471Z" fill="white"/>
</svg>
