<svg width="32" height="32" viewBox="0 0 32 32" fill="none" xmlns="http://www.w3.org/2000/svg">
<path d="M18.4488 11.3971L16.6411 9.58937L10.2309 15.9996L16.6411 22.4099L18.4488 20.6022L15.1411 17.2817L27.5386 17.2817L27.5386 14.7176L15.1411 14.7176L18.4488 11.3971ZM7.02575 27.5381L24.9745 27.5381C26.3975 27.5381 27.5386 26.3842 27.5386 24.974L27.5386 19.8458L24.9745 19.8458L24.9745 24.974L7.02575 24.974L7.02575 7.02527L24.9745 7.02526L24.9745 12.1535L27.5386 12.1535L27.5386 7.02526C27.5386 5.61501 26.3975 4.46116 24.9745 4.46116L7.02575 4.46116C5.61549 4.46116 4.46165 5.61501 4.46165 7.02527L4.46165 24.974C4.46165 26.3842 5.6155 27.5381 7.02575 27.5381Z" fill="#0D0D0D" fill-opacity="0.4"/>
</svg>
