<svg width="24" height="24" viewBox="0 0 24 24" fill="none" xmlns="http://www.w3.org/2000/svg">
<rect x="12" y="0.599609" width="16" height="16" rx="2" transform="rotate(45 12 0.599609)" fill="currentColor"/>
<path d="M10.382 11.9714C9.35961 8.70232 11.4806 6.49488 12.669 5.7998C12.1897 6.96014 12.9969 8.04752 13.8545 8.93606C14.7878 9.90301 16.9158 11.6855 16.1499 14.5443C15.3839 17.4031 12.6437 17.7983 11.9123 17.7983C11.1808 17.7983 8.48182 17.1761 8.06142 14.5443C7.7251 12.4389 8.85177 10.741 9.45714 10.1553C9.39268 10.6177 9.48741 11.6284 10.382 11.9714Z" fill="white"/>
<path d="M13.8192 15.4355C13.8192 13.8614 12.6309 12.9242 12.0367 12.6523C12.3058 14.0397 11.0025 14.376 10.7082 15.3514C10.3336 16.5931 11.3304 17.6048 11.5827 17.7729C11.6499 17.7813 11.8181 17.8066 12.0367 17.7982C12.6309 17.6692 13.8192 17.0095 13.8192 15.4355Z" fill="currentColor"/>
</svg>
