<svg width="15" height="15" viewBox="0 0 15 15" fill="none" xmlns="http://www.w3.org/2000/svg">
<path d="M14.0498 7.06794L13.5853 6.83572L13.5844 6.83524L13.5819 6.83394L13.5594 6.82212C13.5376 6.81052 13.5027 6.79154 13.4562 6.76502C13.3632 6.71196 13.224 6.62899 13.0513 6.51519C12.7054 6.28717 12.2287 5.93793 11.7196 5.46062C10.6993 4.50401 9.57211 3.05637 9.07219 1.05664L7.43507 1.46592C8.03568 3.86836 9.3848 5.58479 10.5655 6.69171C10.5848 6.70985 10.6041 6.72783 10.6234 6.74565H0.549805V8.43315H10.6234C10.6041 8.45097 10.5848 8.46896 10.5655 8.4871C9.3848 9.59399 8.03568 11.3104 7.43507 13.7129L9.07219 14.1221C9.57211 12.1225 10.6993 10.6748 11.7196 9.71819C12.2287 9.24088 12.7054 8.89164 13.0513 8.66361C13.224 8.54981 13.3632 8.46685 13.4562 8.41379C13.5027 8.38727 13.5376 8.36828 13.5594 8.35669L13.5819 8.34486L13.5844 8.34357L13.5853 8.34309L14.0498 8.11087V7.06794Z" fill="currentColor"/>
</svg>
