<svg width="100" height="101" viewBox="0 0 100 101" fill="none" xmlns="http://www.w3.org/2000/svg">
<rect x="41" y="18.1797" width="18" height="18" rx="3" fill="white" stroke="#171C1F" stroke-width="2" stroke-linecap="round"/>
<path d="M30 26.6797H70C71.6569 26.6797 73 28.0228 73 29.6797V60.1797C72.9999 61.8365 71.6568 63.1797 70 63.1797H30C28.3432 63.1797 27 61.8365 27 60.1797V29.6797L27.0039 29.5254C27.0842 27.9402 28.3949 26.6797 30 26.6797Z" fill="white" stroke="#171C1F" stroke-width="2"/>
<rect x="28" y="37.1797" width="44" height="2" fill="#171C1F"/>
<rect x="37" y="27.6797" width="2" height="26" fill="#171C1F"/>
<rect x="49" y="27.6797" width="2" height="26" fill="#171C1F"/>
<rect x="61" y="27.6797" width="2" height="26" fill="#171C1F"/>
<path d="M48.8505 44.5245L19.0109 53.4764C16.8261 54.1318 15.6309 56.4788 16.3856 58.6313L23.4446 78.7624C24.1948 80.902 26.5716 81.9909 28.6819 81.1618L33.7767 79.1603C34.5713 78.8481 35.445 78.7984 36.27 79.0183L49.4934 82.5446C49.8297 82.6343 50.1761 82.6797 50.5241 82.6797H72.3455C74.0444 82.6797 75.558 81.6065 76.1201 80.0033L83.6142 58.6313C84.369 56.4788 83.1737 54.1318 80.9889 53.4764L51.1493 44.5245C50.3996 44.2996 49.6003 44.2996 48.8505 44.5245Z" fill="white"/>
<path d="M49.3494 74.4013C44.4523 74.117 41.2929 71.6948 37.8944 67.1347C37.4269 66.5073 36.4342 66.6017 36.0363 67.2754C33.106 72.2359 28.0866 73.6656 23.8134 73.1624C23.0445 73.0719 22.3691 73.7848 22.5887 74.5272L24.7706 81.9042C24.9044 82.3565 25.3347 82.656 25.8022 82.5934C28.0309 82.2947 31.8005 81.3532 34.336 79.279C34.7304 78.9564 35.2987 78.9205 35.7256 79.1986C38.5361 81.029 44.5714 83.3474 49.3508 83.6473C49.902 83.6818 50.3498 83.232 50.3498 82.6797V75.4297C50.3498 74.8774 49.9007 74.4333 49.3494 74.4013Z" fill="#EF7953"/>
<path d="M51.0007 73.902C55.972 73.6204 59.1744 71.1905 62.6233 66.6121C63.0913 65.9908 64.0759 66.0851 64.4738 66.7535C67.4421 71.7392 72.5416 73.1706 76.8771 72.6601C77.6462 72.5696 78.3195 73.2846 78.0974 74.0264L75.8876 81.4083C75.7528 81.8586 75.3239 82.1565 74.8578 82.0951C72.6001 81.7978 68.766 80.854 66.1948 78.7685C65.8026 78.4504 65.2407 78.415 64.8164 78.6889C61.9761 80.5223 55.8468 82.8508 50.9991 83.148C50.4478 83.1818 50.0001 82.732 50.0001 82.1797V74.9297C50.0001 74.3774 50.4493 73.9332 51.0007 73.902Z" fill="#EF7953"/>
<path d="M50.3498 74.4297C44.8714 74.4297 41.5189 71.998 37.8944 67.1347C37.4269 66.5073 36.4342 66.6017 36.0363 67.2754C32.701 72.9215 26.6592 73.9934 22.0918 72.8472" stroke="#171C1F" stroke-width="2"/>
<path d="M81.8496 71.513C77.4313 74.2404 68.8814 74.4174 64.6627 67.2744C64.2648 66.6007 63.2727 66.5073 62.8051 67.1347C59.1807 71.998 55.8282 74.4297 50.3497 74.4297" stroke="#171C1F" stroke-width="2"/>
<path d="M24.8182 82.6797L16.3856 58.6313C15.6309 56.4788 16.8261 54.1318 19.0109 53.4764L48.8505 44.5245C49.6003 44.2996 50.3996 44.2996 51.1493 44.5245L80.9889 53.4764C83.1737 54.1318 84.369 56.4788 83.6142 58.6313L75.1816 82.6797" stroke="#171C1F" stroke-width="2"/>
<path d="M15 81.6807C19.9961 83.346 29.7466 83.4266 34.3408 78.9059C34.729 78.5239 35.3436 78.4499 35.7808 78.7749C39.9565 81.8787 43.7219 83.4307 49.9999 83.4307" stroke="#171C1F" stroke-width="2"/>
<path d="M49.9996 83.4307C56.2777 83.4307 60.0431 81.8787 64.2188 78.7749C64.6559 78.4499 65.2706 78.524 65.6588 78.906C69.5728 82.7573 77.2293 83.269 82.5 82.3063" stroke="#171C1F" stroke-width="2"/>
<path d="M60 53.1797H82C83.6569 53.1797 85 54.5228 85 56.1797V86.1797C85 87.8365 83.6569 89.1797 82 89.1797H60C58.3431 89.1797 57 87.8365 57 86.1797V56.1797L57.0039 56.0254C57.0842 54.4402 58.3949 53.1797 60 53.1797Z" fill="#D7EAF7" stroke="#171C1F" stroke-width="2"/>
<path d="M62 61.1797C62 60.0751 62.8954 59.1797 64 59.1797V59.1797C65.1046 59.1797 66 60.0751 66 61.1797V61.1797C66 62.2843 65.1046 63.1797 64 63.1797V63.1797C62.8954 63.1797 62 62.2843 62 61.1797V61.1797Z" stroke="#171C1F" stroke-width="2" stroke-linecap="round"/>
<path d="M69.7441 61.1797H80.0006" stroke="#171C1F" stroke-width="2" stroke-linecap="round"/>
<path d="M62 71.1797C62 70.0751 62.8954 69.1797 64 69.1797V69.1797C65.1046 69.1797 66 70.0751 66 71.1797V71.1797C66 72.2843 65.1046 73.1797 64 73.1797V73.1797C62.8954 73.1797 62 72.2843 62 71.1797V71.1797Z" stroke="#171C1F" stroke-width="2" stroke-linecap="round"/>
<path d="M69.7441 71.1797H80.0006" stroke="#171C1F" stroke-width="2" stroke-linecap="round"/>
<path d="M62 81.1797C62 80.0751 62.8954 79.1797 64 79.1797V79.1797C65.1046 79.1797 66 80.0751 66 81.1797V81.1797C66 82.2843 65.1046 83.1797 64 83.1797V83.1797C62.8954 83.1797 62 82.2843 62 81.1797V81.1797Z" stroke="#171C1F" stroke-width="2" stroke-linecap="round"/>
<path d="M69.7441 81.1797H80.0006" stroke="#171C1F" stroke-width="2" stroke-linecap="round"/>
<path d="M74.5 48.1797C76.1569 48.1797 77.5 49.5228 77.5 51.1797V52.1797C77.5 53.8365 76.1569 55.1797 74.5 55.1797H67.5C65.8431 55.1797 64.5 53.8365 64.5 52.1797V51.1797C64.5 49.5228 65.8431 48.1797 67.5 48.1797H74.5Z" fill="#171C1F" stroke="white" stroke-width="2" stroke-linecap="round"/>
</svg>
