<svg width="100" height="101" viewBox="0 0 100 101" fill="none" xmlns="http://www.w3.org/2000/svg">
<path d="M25.999 17.5898H71.999C73.6559 17.5898 74.999 18.933 74.999 20.5898V74.5898C74.999 76.2467 73.6559 77.5898 71.999 77.5898H25.999C24.3422 77.5898 22.999 76.2467 22.999 74.5898V20.5898C22.999 18.933 24.3422 17.5898 25.999 17.5898Z" fill="white" stroke="#171C1F" stroke-width="2"/>
<path d="M37.4506 22.8447C36.7536 24.5325 37.9277 26.1148 39.1752 27.4072C40.5329 28.8138 43.629 31.4062 42.5151 35.5645C41.4647 39.4845 37.8621 40.2195 36.561 40.291C37.4338 40.0895 39.1274 39.1272 39.1274 36.8613C39.1273 34.5718 37.3979 33.2089 36.5336 32.8135C36.9247 34.8313 35.0291 35.3205 34.601 36.7393C34.0601 38.5324 35.486 39.9955 35.8657 40.2559C34.4078 40.0432 31.288 38.9421 30.7485 35.5645C30.2594 32.5021 31.8981 30.0328 32.7787 29.1807C32.6851 29.8535 32.8233 31.3233 34.1244 31.8223C32.6372 27.0671 35.7219 23.856 37.4506 22.8447Z" fill="#EF7953"/>
<path d="M30.999 44.334H66.9974" stroke="#171C1F" stroke-width="2" stroke-linecap="round"/>
<path d="M30.999 51.5684H66.9974" stroke="#171C1F" stroke-width="2" stroke-linecap="round"/>
<path d="M30.999 58.8027H66.9974" stroke="#171C1F" stroke-width="2" stroke-linecap="round"/>
<path d="M30.999 66.0371H51.5695" stroke="#171C1F" stroke-width="2" stroke-linecap="round"/>
<path d="M50.1997 28.5898H66.999" stroke="#171C1F" stroke-width="2" stroke-linecap="round"/>
<path d="M50.1997 35.8242H66.999" stroke="#171C1F" stroke-width="2" stroke-linecap="round"/>
<mask id="path-9-inside-1_2371_31597" fill="white">
<path d="M82.6984 82.0025C83.8597 84.0025 82.4167 86.5089 80.104 86.5089H50.0045C47.6918 86.5089 46.2488 84.0025 47.4101 82.0025L62.4599 56.0834C63.6162 54.092 66.4923 54.092 67.6486 56.0834L82.6984 82.0025Z"/>
</mask>
<path d="M82.6984 82.0025C83.8597 84.0025 82.4167 86.5089 80.104 86.5089H50.0045C47.6918 86.5089 46.2488 84.0025 47.4101 82.0025L62.4599 56.0834C63.6162 54.092 66.4923 54.092 67.6486 56.0834L82.6984 82.0025Z" fill="#EF7953"/>
<path d="M62.4599 56.0834L60.7303 55.0792L62.4599 56.0834ZM67.6486 56.0834L65.919 57.0877L67.6486 56.0834ZM82.6984 82.0025L80.9688 83.0068L82.6984 82.0025ZM80.104 86.5089V84.5089H50.0045V86.5089V88.5089H80.104V86.5089ZM47.4101 82.0025L49.1397 83.0068L64.1895 57.0877L62.4599 56.0834L60.7303 55.0792L45.6806 80.9982L47.4101 82.0025ZM67.6486 56.0834L65.919 57.0877L80.9688 83.0068L82.6984 82.0025L84.428 80.9982L69.3782 55.0792L67.6486 56.0834ZM62.4599 56.0834L64.1895 57.0877C64.5749 56.4239 65.5336 56.4239 65.919 57.0877L67.6486 56.0834L69.3782 55.0792C67.451 51.7601 62.6575 51.7601 60.7303 55.0792L62.4599 56.0834ZM50.0045 86.5089V84.5089C49.2336 84.5089 48.7526 83.6734 49.1397 83.0068L47.4101 82.0025L45.6806 80.9982C43.7451 84.3316 46.15 88.5089 50.0045 88.5089V86.5089ZM80.104 86.5089V88.5089C83.9585 88.5089 86.3634 84.3316 84.428 80.9982L82.6984 82.0025L80.9688 83.0068C81.3559 83.6734 80.8749 84.5089 80.104 84.5089V86.5089Z" fill="#171C1F" mask="url(#path-9-inside-1_2371_31597)"/>
<path d="M65.0537 67.3594L65.0537 73.3168" stroke="#171C1F" stroke-width="2" stroke-linecap="round" stroke-linejoin="round"/>
<path d="M65.0537 78.2998L65.0537 78.7755" stroke="#171C1F" stroke-width="2" stroke-linecap="round" stroke-linejoin="round"/>
</svg>
