<svg width="100" height="101" viewBox="0 0 100 101" fill="none" xmlns="http://www.w3.org/2000/svg">
<path d="M9 29.5898C9 27.3807 10.7909 25.5898 13 25.5898H69H89C91.2091 25.5898 93 27.3807 93 29.5898V65.5898C93 67.799 91.2091 69.5898 89 69.5898H13C10.7909 69.5898 9 67.799 9 65.5898V29.5898Z" fill="white" stroke="#171C1F" stroke-width="2"/>
<path d="M18.5 38.5898V60.0898" stroke="#171C1F" stroke-width="2" stroke-linecap="round"/>
<path d="M36.5 34.5898L36.5 60.5898" stroke="#171C1F" stroke-width="2" stroke-linecap="round"/>
<path d="M45.5 34.5898L45.5 60.5898" stroke="#171C1F" stroke-width="2" stroke-linecap="round"/>
<path d="M53.5 34.5898L53.5 60.5898" stroke="#171C1F" stroke-width="2" stroke-linecap="round"/>
<path d="M63.5 34.5898L63.5 35.5898" stroke="#171C1F" stroke-width="2" stroke-linecap="round"/>
<path d="M73.5 34.5898L73.5 35.5898" stroke="#171C1F" stroke-width="2" stroke-linecap="round"/>
<path d="M83.5 34.5898L83.5 35.5898" stroke="#171C1F" stroke-width="2" stroke-linecap="round"/>
<g clip-path="url(#clip0_2371_31612)">
<path d="M16.1816 13.9229C17.2696 13.9229 18.1965 14.742 18.3291 15.8252L18.6006 17.9922C18.785 18.0918 18.9652 18.1973 19.1416 18.3076L21.1582 17.4551C22.1616 17.024 23.329 17.4176 23.8721 18.3652L26.0537 22.1338L26.0576 22.1406C26.5893 23.0764 26.367 24.2851 25.4883 24.9473L23.7422 26.2715C23.7455 26.3766 23.75 26.4825 23.75 26.5898C23.75 26.6972 23.7453 26.8049 23.7412 26.9141L25.4775 28.2305L25.4863 28.2373C26.346 28.9036 26.5831 30.0924 26.0459 31.0381L26.042 31.0459L23.8604 34.8135C23.3174 35.7612 22.1508 36.1536 21.1475 35.7227V35.7236L21.1426 35.7207C21.1412 35.7201 21.1391 35.7203 21.1377 35.7197V35.7188L19.1309 34.8701C18.9542 34.9806 18.7736 35.0858 18.5889 35.1855L18.3174 37.3477L18.3184 37.3486C18.1881 38.4344 17.2596 39.2559 16.1699 39.2559H11.8184C10.7303 39.2558 9.80335 38.4369 9.6709 37.3535L9.39844 35.1855C9.21402 35.0859 9.03383 34.9805 8.85742 34.8701L6.8418 35.7236L6.84082 35.7227C5.83746 36.1534 4.67084 35.7612 4.12793 34.8135L1.94629 31.0459L1.94238 31.0381C1.41017 30.101 1.63284 28.889 2.51465 28.2275L4.25684 26.9062C4.25351 26.8017 4.25 26.6966 4.25 26.5898C4.25 26.4866 4.25273 26.3843 4.25586 26.2832L2.51074 24.96L2.50293 24.9531C1.64316 24.2868 1.40508 23.0981 1.94238 22.1523L1.94531 22.1465L4.12695 18.3662C4.66956 17.418 5.83725 17.0245 6.84082 17.4551L8.85742 18.3076C9.03382 18.1973 9.21404 18.0918 9.39844 17.9922L9.6709 15.8252C9.80424 14.7359 10.7367 13.9229 11.8301 13.9229H16.1816Z" fill="#EF7953" stroke="white" stroke-width="2"/>
<path d="M9.96338 26.5902C9.96338 28.8418 11.795 30.6735 14.0467 30.6735C16.2984 30.6735 18.13 28.8418 18.13 26.5902C18.13 24.3385 16.2984 22.5068 14.0467 22.5068C11.795 22.5068 9.96338 24.3385 9.96338 26.5902Z" fill="white"/>
</g>
<mask id="path-11-outside-1_2371_31612" maskUnits="userSpaceOnUse" x="77" y="39.6699" width="13" height="50" fill="black">
<rect fill="white" x="77" y="39.6699" width="13" height="50"/>
<path fill-rule="evenodd" clip-rule="evenodd" d="M84.5068 51.3066L86.5713 48.5527L84.5068 41.6699H81.7529L79.6885 48.5527L81.7529 51.3066V65.5898H79V68.5898H80V72.5703L79 73.9033V85.6699C79 86.7745 79.8954 87.6699 81 87.6699H85.2598C86.3643 87.6699 87.2598 86.7745 87.2598 85.6699V73.9033L86 72.2236V68.5898H87V65.5898H84.5068V51.3066Z"/>
</mask>
<path fill-rule="evenodd" clip-rule="evenodd" d="M84.5068 51.3066L86.5713 48.5527L84.5068 41.6699H81.7529L79.6885 48.5527L81.7529 51.3066V65.5898H79V68.5898H80V72.5703L79 73.9033V85.6699C79 86.7745 79.8954 87.6699 81 87.6699H85.2598C86.3643 87.6699 87.2598 86.7745 87.2598 85.6699V73.9033L86 72.2236V68.5898H87V65.5898H84.5068V51.3066Z" fill="#D7EAF7"/>
<path d="M86.5713 48.5527L88.1716 49.7524L88.7769 48.9448L88.487 47.9781L86.5713 48.5527ZM84.5068 51.3066L82.9066 50.107L82.5068 50.6402V51.3066H84.5068ZM84.5068 41.6699L86.4225 41.0953L85.995 39.6699H84.5068V41.6699ZM81.7529 41.6699V39.6699H80.2648L79.8372 41.0953L81.7529 41.6699ZM79.6885 48.5527L77.7728 47.9781L77.4828 48.9448L78.0882 49.7524L79.6885 48.5527ZM81.7529 51.3066H83.7529V50.6402L83.3532 50.107L81.7529 51.3066ZM81.7529 65.5898V67.5898H83.7529V65.5898H81.7529ZM79 65.5898V63.5898H77V65.5898H79ZM79 68.5898H77V70.5898H79V68.5898ZM80 68.5898H82V66.5898H80V68.5898ZM80 72.5703L81.5999 73.7705L82 73.2371V72.5703H80ZM79 73.9033L77.4001 72.7031L77 73.2365V73.9033H79ZM81 87.6699L81 89.6699H81V87.6699ZM85.2598 87.6699V89.6699H85.2598L85.2598 87.6699ZM87.2598 73.9033H89.2598V73.2367L88.8598 72.7033L87.2598 73.9033ZM86 72.2236H84V72.8903L84.4 73.4236L86 72.2236ZM86 68.5898V66.5898H84V68.5898H86ZM87 68.5898V70.5898H89V68.5898H87ZM87 65.5898H89V63.5898H87V65.5898ZM84.5068 65.5898H82.5068V67.5898H84.5068V65.5898ZM86.5713 48.5527L84.971 47.3531L82.9066 50.107L84.5068 51.3066L86.1071 52.5063L88.1716 49.7524L86.5713 48.5527ZM84.5068 41.6699L82.5912 42.2445L84.6556 49.1273L86.5713 48.5527L88.487 47.9781L86.4225 41.0953L84.5068 41.6699ZM81.7529 41.6699V43.6699H84.5068V41.6699V39.6699H81.7529V41.6699ZM79.6885 48.5527L81.6042 49.1273L83.6686 42.2445L81.7529 41.6699L79.8372 41.0953L77.7728 47.9781L79.6885 48.5527ZM81.7529 51.3066L83.3532 50.107L81.2887 47.3531L79.6885 48.5527L78.0882 49.7524L80.1527 52.5063L81.7529 51.3066ZM81.7529 65.5898H83.7529V51.3066H81.7529H79.7529V65.5898H81.7529ZM79 65.5898V67.5898H81.7529V65.5898V63.5898H79V65.5898ZM79 68.5898H81V65.5898H79H77V68.5898H79ZM80 68.5898V66.5898H79V68.5898V70.5898H80V68.5898ZM80 72.5703H82V68.5898H80H78V72.5703H80ZM79 73.9033L80.5999 75.1035L81.5999 73.7705L80 72.5703L78.4001 71.3701L77.4001 72.7031L79 73.9033ZM79 85.6699H81V73.9033H79H77V85.6699H79ZM81 87.6699L81 85.6699H81H79H77C77 87.8791 78.7909 89.6699 81 89.6699L81 87.6699ZM85.2598 87.6699V85.6699H81V87.6699V89.6699H85.2598V87.6699ZM87.2598 85.6699H85.2598H85.2598L85.2598 87.6699L85.2598 89.6699C87.4689 89.6699 89.2598 87.8791 89.2598 85.6699H87.2598ZM87.2598 73.9033H85.2598V85.6699H87.2598H89.2598V73.9033H87.2598ZM86 72.2236L84.4 73.4236L85.6598 75.1033L87.2598 73.9033L88.8598 72.7033L87.6 71.0236L86 72.2236ZM86 68.5898H84V72.2236H86H88V68.5898H86ZM87 68.5898V66.5898H86V68.5898V70.5898H87V68.5898ZM87 65.5898H85V68.5898H87H89V65.5898H87ZM84.5068 65.5898V67.5898H87V65.5898V63.5898H84.5068V65.5898ZM84.5068 51.3066H82.5068V65.5898H84.5068H86.5068V51.3066H84.5068Z" fill="#171C1F" mask="url(#path-11-outside-1_2371_31612)"/>
<path d="M81.6294 74.0898C81.9606 74.0898 82.2298 74.3583 82.23 74.6895V84.5029C82.2299 84.8343 81.9607 85.1025 81.6294 85.1025C81.2982 85.1023 81.0298 84.8341 81.0298 84.5029V74.6895C81.03 74.3584 81.2983 74.0901 81.6294 74.0898ZM84.6294 74.0898C84.9606 74.0898 85.2298 74.3583 85.23 74.6895V84.5029C85.2299 84.8343 84.9607 85.1025 84.6294 85.1025C84.2982 85.1023 84.0298 84.8341 84.0298 84.5029V74.6895C84.03 74.3584 84.2983 74.0901 84.6294 74.0898Z" fill="#171C1F"/>
<path fill-rule="evenodd" clip-rule="evenodd" d="M73.5 49.5898C73.5 45.1716 70.1421 41.5899 66 41.5898C61.8579 41.5898 58.5 45.1716 58.5 49.5898C58.5 52.5504 60.009 55.1332 62.25 56.5166V64.5898L62.25 64.5898L62.25 72.6631C60.009 74.0465 58.5 76.6293 58.5 79.5898C58.5 84.0081 61.8579 87.5898 66 87.5898C70.1421 87.5898 73.5 84.0081 73.5 79.5898C73.5 76.6293 71.991 74.0465 69.75 72.6631L69.75 64.5898H69.75V56.5166C71.991 55.1332 73.5 52.5504 73.5 49.5898ZM66 87.5898C65.2689 87.5898 64.1286 87.0914 64.125 87.0898L64.125 81.4648C64.125 80.4293 64.9645 79.5898 66 79.5898C67.0355 79.5899 67.875 80.4293 67.875 81.4648L67.875 87.0898C67.875 87.0898 66.7322 87.5898 66 87.5898ZM64.125 42.0898C64.1286 42.0883 65.2689 41.5898 66 41.5898C66.7323 41.5898 67.875 42.0898 67.875 42.0898V47.7148C67.875 48.7504 67.0356 49.5898 66 49.5898C64.9645 49.5898 64.125 48.7504 64.125 47.7148V42.0898Z" fill="#D7EAF7"/>
<path d="M66 41.5898L66 40.5898H66V41.5898ZM62.25 56.5166H63.25V55.9587L62.7753 55.6657L62.25 56.5166ZM62.25 64.5898L62.3165 65.5876L63.25 65.5254V64.5898H62.25ZM62.25 64.5898L62.1835 63.5921L61.25 63.6543L61.25 64.5898H62.25ZM62.25 72.6631L62.7753 73.514L63.25 73.221V72.6631H62.25ZM58.5 79.5898H57.5H58.5ZM73.5 79.5898H72.5H73.5ZM69.75 72.6631H68.75V73.221L69.2247 73.514L69.75 72.6631ZM69.75 64.5898V63.5898H68.75V64.5898H69.75ZM69.75 64.5898V65.5898H70.75V64.5898H69.75ZM69.75 56.5166L69.2247 55.6657L68.75 55.9587V56.5166H69.75ZM64.125 87.0898H63.125V87.744L63.7243 88.0061L64.125 87.0898ZM64.125 81.4648H63.125H64.125ZM66 79.5898L66 78.5898H66V79.5898ZM67.875 81.4648H66.875H67.875ZM67.875 87.0898L68.2758 88.006L68.875 87.7438V87.0898H67.875ZM64.125 42.0898L63.7243 41.1736L63.125 41.4357V42.0898H64.125ZM67.875 42.0898H68.875V41.4358L68.2759 41.1737L67.875 42.0898ZM66 49.5898V50.5898H66L66 49.5898ZM66 41.5898L66 42.5898C69.5301 42.5899 72.5 45.6621 72.5 49.5898H73.5H74.5C74.5 44.6811 70.7542 40.5899 66 40.5898L66 41.5898ZM58.5 49.5898H59.5C59.5 45.6621 62.47 42.5898 66 42.5898V41.5898V40.5898C61.2458 40.5898 57.5 44.6811 57.5 49.5898H58.5ZM62.25 56.5166L62.7753 55.6657C60.8342 54.4674 59.5 52.2093 59.5 49.5898H58.5H57.5C57.5 52.8915 59.1838 55.799 61.7247 57.3675L62.25 56.5166ZM62.25 64.5898H63.25V56.5166H62.25H61.25V64.5898H62.25ZM62.25 64.5898L62.3165 65.5876L62.3165 65.5876L62.25 64.5898L62.1835 63.5921L62.1835 63.5921L62.25 64.5898ZM62.25 72.6631H63.25L63.25 64.5898H62.25H61.25L61.25 72.6631H62.25ZM58.5 79.5898H59.5C59.5 76.9704 60.8342 74.7123 62.7753 73.514L62.25 72.6631L61.7247 71.8122C59.1838 73.3807 57.5 76.2882 57.5 79.5898H58.5ZM66 87.5898L66 86.5898C62.47 86.5898 59.5 83.5176 59.5 79.5898H58.5H57.5C57.5 84.4986 61.2458 88.5898 66 88.5898L66 87.5898ZM73.5 79.5898H72.5C72.5 83.5176 69.53 86.5898 66 86.5898V87.5898V88.5898C70.7542 88.5898 74.5 84.4986 74.5 79.5898H73.5ZM69.75 72.6631L69.2247 73.514C71.1659 74.7123 72.5 76.9704 72.5 79.5898H73.5H74.5C74.5 76.2882 72.8162 73.3807 70.2753 71.8122L69.75 72.6631ZM69.75 64.5898H68.75L68.75 72.6631H69.75H70.75L70.75 64.5898H69.75ZM69.75 64.5898V63.5898H69.75V64.5898V65.5898H69.75V64.5898ZM69.75 56.5166H68.75V64.5898H69.75H70.75V56.5166H69.75ZM73.5 49.5898H72.5C72.5 52.2093 71.1659 54.4674 69.2247 55.6657L69.75 56.5166L70.2753 57.3675C72.8162 55.799 74.5 52.8915 74.5 49.5898H73.5ZM64.125 87.0898L63.7243 88.0061C63.7405 88.0131 64.0576 88.1514 64.4754 88.2897C64.8635 88.4183 65.4622 88.5898 66 88.5898V87.5898V86.5898C65.8067 86.5898 65.4697 86.5122 65.104 86.3911C64.7679 86.2798 64.5131 86.1681 64.5257 86.1736L64.125 87.0898ZM64.125 81.4648H63.125L63.125 87.0898H64.125H65.125L65.125 81.4648H64.125ZM66 79.5898V78.5898C64.4122 78.5898 63.125 79.877 63.125 81.4648H64.125H65.125C65.125 80.9816 65.5168 80.5898 66 80.5898V79.5898ZM67.875 81.4648H68.875C68.875 79.877 67.5878 78.5899 66 78.5898L66 79.5898L66 80.5898C66.4832 80.5898 66.875 80.9816 66.875 81.4648H67.875ZM67.875 87.0898H68.875L68.875 81.4648H67.875H66.875L66.875 87.0898H67.875ZM66 87.5898L66 88.5898C66.5385 88.5898 67.1383 88.4178 67.5266 88.2891C67.7373 88.2193 67.9212 88.1499 68.0526 88.0979C68.1187 88.0718 68.1723 88.0498 68.2104 88.0338C68.2295 88.0259 68.2447 88.0194 68.2558 88.0147C68.2613 88.0123 68.2657 88.0104 68.2691 88.0089C68.2708 88.0082 68.2722 88.0076 68.2733 88.0071C68.2739 88.0069 68.2744 88.0066 68.2748 88.0065C68.275 88.0064 68.2752 88.0063 68.2754 88.0062C68.2755 88.0062 68.2756 88.0061 68.2756 88.0061C68.2757 88.006 68.2758 88.006 67.875 87.0898C67.4742 86.1737 67.4743 86.1737 67.4744 86.1736C67.4744 86.1736 67.4745 86.1736 67.4745 86.1735C67.4746 86.1735 67.4747 86.1735 67.4748 86.1734C67.4749 86.1734 67.475 86.1733 67.475 86.1733C67.4751 86.1733 67.4748 86.1734 67.4743 86.1736C67.4733 86.1741 67.4713 86.1749 67.4682 86.1763C67.4621 86.1789 67.4521 86.1831 67.4385 86.1888C67.4113 86.2002 67.3699 86.2172 67.3174 86.238C67.2117 86.2798 67.0641 86.3354 66.8975 86.3906C66.5315 86.5119 66.1937 86.5898 66 86.5898L66 87.5898ZM66 41.5898V40.5898C65.4623 40.5898 64.8635 40.7614 64.4754 40.8899C64.0576 41.0283 63.7405 41.1666 63.7243 41.1736L64.125 42.0898L64.5257 43.0061C64.5132 43.0116 64.768 42.8999 65.104 42.7886C65.4697 42.6675 65.8067 42.5898 66 42.5898V41.5898ZM67.875 42.0898C68.2759 41.1737 68.2758 41.1736 68.2756 41.1736C68.2756 41.1736 68.2755 41.1735 68.2754 41.1735C68.2752 41.1734 68.275 41.1733 68.2748 41.1732C68.2744 41.1731 68.2739 41.1728 68.2733 41.1726C68.2722 41.1721 68.2708 41.1715 68.2691 41.1708C68.2658 41.1693 68.2613 41.1674 68.2558 41.165C68.2448 41.1603 68.2295 41.1538 68.2105 41.1458C68.1724 41.1299 68.1187 41.1079 68.0527 41.0817C67.9212 41.0298 67.7373 40.9604 67.5267 40.8906C67.1383 40.7619 66.5386 40.5898 66 40.5898L66 41.5898L66 42.5898C66.1937 42.5898 66.5315 42.6678 66.8976 42.7891C67.0641 42.8443 67.2117 42.8999 67.3174 42.9417C67.3699 42.9625 67.4113 42.9795 67.4385 42.9909C67.4521 42.9966 67.4622 43.0008 67.4682 43.0034C67.4713 43.0047 67.4733 43.0056 67.4743 43.0061C67.4748 43.0063 67.4751 43.0064 67.4751 43.0064C67.475 43.0064 67.475 43.0063 67.4748 43.0063C67.4748 43.0062 67.4747 43.0062 67.4746 43.0062C67.4745 43.0061 67.4744 43.0061 67.4744 43.0061C67.4743 43.006 67.4742 43.006 67.875 42.0898ZM67.875 47.7148H68.875V42.0898H67.875H66.875V47.7148H67.875ZM66 49.5898L66 50.5898C67.5878 50.5898 68.875 49.3027 68.875 47.7148H67.875H66.875C66.875 48.1981 66.4833 48.5898 66 48.5898L66 49.5898ZM64.125 47.7148H63.125C63.125 49.3027 64.4122 50.5898 66 50.5898V49.5898V48.5898C65.5168 48.5898 65.125 48.1981 65.125 47.7148H64.125ZM64.125 42.0898H63.125V47.7148H64.125H65.125V42.0898H64.125Z" fill="#171C1F"/>
<path d="M65.0625 40.1523C65.0625 40.1523 65.6339 39.5898 66 39.5898C66.3661 39.5898 66.9375 40.1523 66.9375 40.1523V47.6523C66.9375 48.1701 66.5178 48.5898 66 48.5898C65.4822 48.5898 65.0625 48.1701 65.0625 47.6523V40.1523Z" fill="white"/>
<path d="M65.0625 89.0273C65.0625 89.0273 65.6339 89.5898 66 89.5898C66.3661 89.5898 66.9375 89.0273 66.9375 89.0273V81.5273C66.9375 81.0096 66.5178 80.5898 66 80.5898C65.4822 80.5898 65.0625 81.0096 65.0625 81.5273V89.0273Z" fill="#F0F4F8"/>
<path d="M27.5 34.5898L27.5 60.5898" stroke="#171C1F" stroke-width="2" stroke-linecap="round"/>
<defs>
<clipPath id="clip0_2371_31612">
<rect width="28" height="28" fill="white" transform="translate(0 12.5898)"/>
</clipPath>
</defs>
</svg>
