<svg viewBox="0 0 500 240" fill="none" xmlns="http://www.w3.org/2000/svg">
<g clip-path="url(#clip0_2371_30875)">
<rect width="500" height="240" fill="transparent"/>
<path d="M104.147 231H99.0781L108.307 204.785H114.17L123.412 231H118.343L111.341 210.161H111.136L104.147 231ZM104.313 220.721H118.138V224.536H104.313V220.721ZM139.183 204.785V231H134.434V204.785H139.183ZM173.923 231L166.525 204.785H171.632L176.355 224.049H176.599L181.642 204.785H186.289L191.345 224.062H191.575L196.299 204.785H201.406L194.007 231H189.322L184.074 212.606H183.869L178.608 231H173.923ZM217.017 204.785V231H212.268V204.785H217.017ZM228.578 208.766V204.785H249.494V208.766H241.391V231H236.68V208.766H228.578ZM261.095 231V204.785H265.844V215.883H277.992V204.785H282.754V231H277.992V219.864H265.844V231H261.095ZM310.207 204.785H315.57L321.984 216.382H322.24L328.653 204.785H334.016L324.48 221.22V231H319.743V221.22L310.207 204.785ZM366.895 217.892C366.895 220.717 366.366 223.136 365.308 225.15C364.258 227.156 362.825 228.692 361.007 229.758C359.198 230.825 357.146 231.358 354.85 231.358C352.555 231.358 350.498 230.825 348.68 229.758C346.871 228.683 345.437 227.143 344.379 225.137C343.33 223.123 342.805 220.708 342.805 217.892C342.805 215.068 343.33 212.653 344.379 210.647C345.437 208.633 346.871 207.093 348.68 206.026C350.498 204.96 352.555 204.426 354.85 204.426C357.146 204.426 359.198 204.96 361.007 206.026C362.825 207.093 364.258 208.633 365.308 210.647C366.366 212.653 366.895 215.068 366.895 217.892ZM362.121 217.892C362.121 215.904 361.809 214.227 361.186 212.862C360.572 211.488 359.718 210.451 358.626 209.751C357.534 209.043 356.275 208.689 354.85 208.689C353.425 208.689 352.166 209.043 351.074 209.751C349.982 210.451 349.124 211.488 348.501 212.862C347.887 214.227 347.579 215.904 347.579 217.892C347.579 219.881 347.887 221.562 348.501 222.936C349.124 224.301 349.982 225.338 351.074 226.046C352.166 226.746 353.425 227.096 354.85 227.096C356.275 227.096 357.534 226.746 358.626 226.046C359.718 225.338 360.572 224.301 361.186 222.936C361.809 221.562 362.121 219.881 362.121 217.892ZM395.48 204.785H400.229V221.912C400.229 223.789 399.785 225.44 398.898 226.865C398.019 228.291 396.781 229.404 395.186 230.206C393.59 231 391.725 231.397 389.592 231.397C387.45 231.397 385.581 231 383.985 230.206C382.389 229.404 381.152 228.291 380.273 226.865C379.394 225.44 378.955 223.789 378.955 221.912V204.785H383.704V221.515C383.704 222.607 383.943 223.58 384.42 224.433C384.907 225.287 385.59 225.957 386.469 226.443C387.348 226.921 388.389 227.16 389.592 227.16C390.795 227.16 391.836 226.921 392.715 226.443C393.603 225.957 394.285 225.287 394.763 224.433C395.241 223.58 395.48 222.607 395.48 221.515V204.785Z" fill="url(#paint0_linear_2371_30875)"/>
<path d="M117.173 34C129.507 34 140.864 41.2728 145.858 52.5508L190.601 153.581C196.327 166.512 186.859 181.059 172.717 181.059C164.728 181.058 157.542 176.2 154.566 168.785L121.876 87.3311C120.055 82.7947 113.634 82.7947 111.813 87.3311L79.0322 169.013C76.1117 176.29 69.0589 181.058 61.2177 181.059C47.3473 181.059 38.055 166.8 43.6562 154.111L88.4726 52.585C93.4591 41.2887 104.825 34.0001 117.173 34ZM235.359 34C246.846 34 256.158 43.3122 256.158 54.7988V160.261C256.158 171.747 246.846 181.059 235.359 181.059C223.873 181.058 214.561 171.747 214.561 160.261V54.7988C214.561 43.3124 223.873 34.0002 235.359 34Z" fill="url(#paint1_linear_2371_30875)"/>
<path d="M336.799 34C348.285 34.0003 357.597 43.3124 357.597 54.7988V114.252C357.597 126.857 360.047 135.891 364.949 141.354C369.991 146.816 376.855 149.547 385.538 149.547C394.221 149.547 401.014 146.816 405.916 141.354C410.818 135.891 413.269 126.857 413.269 114.252V90.9834C413.269 83.4694 417.315 76.9012 423.348 73.3369L424.216 75.9414C425.621 80.1566 429.566 83 434.009 83C438.452 82.9998 442.397 80.1565 443.802 75.9414L444.583 73.5957C450.379 77.2136 454.235 83.6478 454.235 90.9834V115.513C454.235 137.361 448.143 154.239 435.958 166.144C423.773 178.048 406.826 184 385.117 184C363.409 184 346.462 178.048 334.277 166.144C322.092 154.239 316 137.361 316 115.513V54.7988C316 43.3122 325.312 34 336.799 34ZM435.894 74.0322C435.852 74.09 435.809 74.1467 435.763 74.2002C435.809 74.1467 435.852 74.0901 435.894 74.0322ZM435.978 73.9111C435.959 73.941 435.938 73.9692 435.918 73.998C435.953 73.9467 435.986 73.8933 436.018 73.8389C436.004 73.8627 435.992 73.8878 435.978 73.9111ZM436.132 73.6172C436.161 73.5505 436.189 73.4823 436.212 73.4121L437.091 70.7725H437.092L436.213 73.4121C436.189 73.4824 436.161 73.5504 436.132 73.6172ZM436.068 73.7529C436.056 73.777 436.041 73.7997 436.027 73.8232C436.062 73.7625 436.094 73.7001 436.123 73.6357C436.105 73.6752 436.088 73.7148 436.068 73.7529Z" fill="#EF7953"/>
<path fill-rule="evenodd" clip-rule="evenodd" d="M426.878 44.3693L431.805 29.5883C432.121 28.6398 433.008 28 434.008 28C435.008 28 435.896 28.6398 436.212 29.5883L441.139 44.3693L455.92 49.2964C456.869 49.6125 457.508 50.5002 457.508 51.5C457.508 52.4998 456.869 53.3875 455.92 53.7036L441.139 58.6307L436.212 73.4117C435.896 74.3602 435.008 75 434.008 75C433.008 75 432.121 74.3602 431.805 73.4117L426.878 58.6307L412.097 53.7036C411.148 53.3875 410.508 52.4998 410.508 51.5C410.508 50.5002 411.148 49.6125 412.097 49.2964L426.878 44.3693Z" fill="#871BDB"/>
</g>
<defs>
<linearGradient id="paint0_linear_2371_30875" x1="98" y1="213" x2="99.9029" y2="237.016" gradientUnits="userSpaceOnUse">
<stop stop-color="#EF7953"/>
<stop offset="1" stop-color="#5F73F1"/>
</linearGradient>
<linearGradient id="paint1_linear_2371_30875" x1="134.43" y1="24.1414" x2="427.228" y2="226.937" gradientUnits="userSpaceOnUse">
<stop stop-color="#586AF5"/>
<stop offset="1" stop-color="#9700D2"/>
</linearGradient>
<clipPath id="clip0_2371_30875">
<rect width="500" height="240" fill="white"/>
</clipPath>
</defs>
</svg>
