<svg width="548" height="540" viewBox="0 0 548 540" fill="none" xmlns="http://www.w3.org/2000/svg">
<g filter="url(#filter0_d_2371_30493)">
<g clip-path="url(#clip0_2371_30493)">
<rect x="12" y="8" width="524" height="516" rx="40" fill="white"/>
<g opacity="0.75">
<g filter="url(#filter1_fn_2371_30493)">
<rect width="455.645" height="461.421" rx="227.822" transform="matrix(1.00247 -0.217611 0.186955 0.954819 132 93.1533)" fill="url(#paint0_radial_2371_30493)"/>
</g>
<g filter="url(#filter2_fn_2371_30493)">
<rect width="455.103" height="609.215" rx="227.552" transform="matrix(0.483706 0.84576 -0.883387 0.518439 418.172 126.674)" fill="url(#paint1_radial_2371_30493)"/>
</g>
</g>
<path d="M188.059 60.4102C188.059 38.3188 205.967 20.4102 228.059 20.4102H319.373C341.464 20.4102 359.373 38.3188 359.373 60.4102C359.373 82.5015 341.464 100.41 319.373 100.41H228.059C205.967 100.41 188.059 82.5015 188.059 60.4102Z" fill="white" fill-opacity="0.12"/>
<path d="M196.947 60.4099C196.947 43.2278 210.876 29.2988 228.058 29.2988H319.373C336.555 29.2988 350.484 43.2278 350.484 60.4099C350.484 77.5921 336.555 91.521 319.373 91.521H228.058C210.876 91.521 196.947 77.5921 196.947 60.4099Z" fill="white" fill-opacity="0.16"/>
<g filter="url(#filter3_d_2371_30493)">
<path d="M205.836 60.4097C205.836 48.1367 215.786 38.1875 228.059 38.1875H319.373C331.646 38.1875 341.595 48.1367 341.595 60.4097C341.595 72.6827 331.646 82.6319 319.373 82.6319H228.059C215.786 82.6319 205.836 72.6827 205.836 60.4097Z" fill="white"/>
<g clip-path="url(#clip1_2371_30493)">
<g clip-path="url(#clip2_2371_30493)">
<path d="M244.336 58.9114C243.816 56.2734 241.499 54.293 238.716 54.293C236.506 54.293 234.587 55.547 233.631 57.3821C231.329 57.6268 229.54 59.5766 229.54 61.9393C229.54 64.4703 231.597 66.5271 234.128 66.5271H244.068C246.179 66.5271 247.891 64.8144 247.891 62.704C247.891 60.6853 246.324 59.049 244.336 58.9114ZM244.068 64.9979H234.128C232.438 64.9979 231.069 63.6292 231.069 61.9393C231.069 60.3718 232.239 59.0643 233.791 58.9037L234.61 58.8196L234.992 58.0932C235.718 56.6939 237.141 55.8222 238.716 55.8222C240.719 55.8222 242.447 57.2445 242.837 59.2096L243.066 60.3565L244.236 60.4406C245.429 60.5171 246.362 61.5188 246.362 62.704C246.362 63.9656 245.33 64.9979 244.068 64.9979ZM235.657 61.1747H237.607V63.4686H239.824V61.1747H241.774L238.716 58.1161L235.657 61.1747Z" fill="#0D0D0D"/>
</g>
<path d="M256.895 64.4102V55.6527H262.803V56.6861H258.054V59.3982H262.164V60.4317H258.054V64.4102H256.895ZM264.183 56.8892V55.6527H265.258V56.8892H264.183ZM264.183 64.4102V58.0661H265.258V64.4102H264.183ZM266.877 64.4102V55.6527H267.952V64.4102H266.877ZM273.968 62.3671L275.079 62.5045C274.903 63.1537 274.579 63.6575 274.105 64.0159C273.631 64.3743 273.026 64.5535 272.289 64.5535C271.361 64.5535 270.624 64.2688 270.079 63.6993C269.537 63.1258 269.266 62.3233 269.266 61.2919C269.266 60.2246 269.541 59.3962 270.091 58.8068C270.64 58.2174 271.353 57.9227 272.229 57.9227C273.077 57.9227 273.77 58.2114 274.308 58.7889C274.846 59.3663 275.115 60.1788 275.115 61.2262C275.115 61.2899 275.113 61.3855 275.109 61.5129H270.377C270.417 62.2098 270.614 62.7435 270.969 63.1139C271.323 63.4842 271.765 63.6694 272.295 63.6694C272.689 63.6694 273.026 63.5659 273.304 63.3588C273.583 63.1517 273.804 62.8211 273.968 62.3671ZM270.437 60.6288H273.98C273.932 60.0951 273.796 59.6949 273.573 59.4281C273.231 59.0139 272.787 58.8068 272.241 58.8068C271.747 58.8068 271.331 58.9721 270.993 59.3026C270.658 59.6332 270.473 60.0752 270.437 60.6288ZM285.724 55.6527H286.883V60.7124C286.883 61.5926 286.783 62.2915 286.584 62.8092C286.385 63.3269 286.025 63.7491 285.503 64.0756C284.985 64.3982 284.304 64.5595 283.46 64.5595C282.639 64.5595 281.968 64.4181 281.447 64.1354C280.925 63.8526 280.553 63.4444 280.33 62.9108C280.107 62.3731 279.995 61.6403 279.995 60.7124V55.6527H281.154V60.7065C281.154 61.4671 281.224 62.0286 281.363 62.391C281.506 62.7495 281.749 63.0262 282.092 63.2214C282.438 63.4165 282.86 63.5141 283.358 63.5141C284.211 63.5141 284.818 63.3209 285.18 62.9346C285.543 62.5483 285.724 61.8056 285.724 60.7065V55.6527ZM288.681 66.8415V58.0661H289.661V58.8904C289.892 58.5679 290.152 58.3269 290.443 58.1676C290.734 58.0043 291.086 57.9227 291.5 57.9227C292.042 57.9227 292.52 58.0621 292.934 58.3409C293.348 58.6196 293.661 59.0139 293.872 59.5237C294.083 60.0294 294.189 60.585 294.189 61.1903C294.189 61.8395 294.071 62.4249 293.836 62.9466C293.605 63.4643 293.267 63.8626 292.821 64.1413C292.379 64.4161 291.913 64.5535 291.423 64.5535C291.064 64.5535 290.742 64.4779 290.455 64.3265C290.172 64.1752 289.939 63.984 289.756 63.753V66.8415H288.681ZM289.655 61.274C289.655 62.0904 289.82 62.6937 290.15 63.084C290.481 63.4743 290.881 63.6694 291.351 63.6694C291.829 63.6694 292.237 63.4683 292.576 63.0661C292.918 62.6599 293.089 62.0326 293.089 61.1843C293.089 60.3759 292.922 59.7706 292.588 59.3683C292.257 58.9661 291.861 58.765 291.399 58.765C290.941 58.765 290.535 58.98 290.18 59.4102C289.83 59.8363 289.655 60.4575 289.655 61.274ZM295.467 64.4102V55.6527H296.542V64.4102H295.467ZM297.815 61.2381C297.815 60.0633 298.141 59.1931 298.794 58.6276C299.34 58.1577 300.005 57.9227 300.79 57.9227C301.662 57.9227 302.375 58.2094 302.928 58.7829C303.482 59.3524 303.758 60.1409 303.758 61.1485C303.758 61.9649 303.635 62.6081 303.388 63.078C303.145 63.544 302.789 63.9064 302.319 64.1652C301.853 64.4241 301.343 64.5535 300.79 64.5535C299.901 64.5535 299.183 64.2688 298.633 63.6993C298.087 63.1298 297.815 62.3094 297.815 61.2381ZM298.92 61.2381C298.92 62.0505 299.097 62.6599 299.451 63.0661C299.806 63.4683 300.252 63.6694 300.79 63.6694C301.323 63.6694 301.767 63.4663 302.122 63.0601C302.476 62.6539 302.653 62.0346 302.653 61.2023C302.653 60.4177 302.474 59.8243 302.116 59.4221C301.761 59.0159 301.319 58.8128 300.79 58.8128C300.252 58.8128 299.806 59.0139 299.451 59.4161C299.097 59.8184 298.92 60.4257 298.92 61.2381ZM309.165 63.6276C308.766 63.9661 308.382 64.2051 308.012 64.3444C307.645 64.4838 307.251 64.5535 306.829 64.5535C306.132 64.5535 305.596 64.3843 305.222 64.0458C304.848 63.7033 304.661 63.2672 304.661 62.7375C304.661 62.4269 304.73 62.1441 304.87 61.8892C305.013 61.6304 305.198 61.4233 305.425 61.268C305.656 61.1127 305.915 60.9952 306.202 60.9155C306.413 60.8598 306.731 60.806 307.158 60.7542C308.026 60.6507 308.665 60.5272 309.075 60.3839C309.079 60.2365 309.081 60.1429 309.081 60.1031C309.081 59.665 308.98 59.3564 308.776 59.1772C308.502 58.9343 308.093 58.8128 307.552 58.8128C307.046 58.8128 306.672 58.9024 306.429 59.0816C306.19 59.2568 306.013 59.5695 305.897 60.0195L304.846 59.8761C304.941 59.4261 305.099 59.0637 305.318 58.7889C305.537 58.5101 305.853 58.2971 306.267 58.1497C306.682 57.9984 307.162 57.9227 307.707 57.9227C308.249 57.9227 308.689 57.9864 309.027 58.1139C309.366 58.2413 309.615 58.4026 309.774 58.5977C309.933 58.7889 310.045 59.0318 310.109 59.3265C310.144 59.5097 310.162 59.8403 310.162 60.3182V61.7519C310.162 62.7515 310.184 63.3847 310.228 63.6515C310.276 63.9143 310.367 64.1672 310.503 64.4102H309.38C309.268 64.1871 309.197 63.9263 309.165 63.6276ZM309.075 61.2262C308.685 61.3855 308.099 61.5209 307.319 61.6324C306.877 61.6961 306.564 61.7678 306.381 61.8474C306.198 61.9271 306.056 62.0446 305.957 62.1999C305.857 62.3512 305.807 62.5205 305.807 62.7076C305.807 62.9944 305.915 63.2333 306.13 63.4245C306.349 63.6157 306.668 63.7112 307.086 63.7112C307.5 63.7112 307.868 63.6216 308.191 63.4424C308.514 63.2592 308.751 63.0103 308.902 62.6957C309.017 62.4528 309.075 62.0943 309.075 61.6204V61.2262ZM315.951 64.4102V63.6097C315.549 64.2389 314.957 64.5535 314.177 64.5535C313.671 64.5535 313.205 64.4141 312.779 64.1354C312.357 63.8566 312.028 63.4683 311.793 62.9705C311.562 62.4687 311.447 61.8932 311.447 61.2441C311.447 60.6109 311.552 60.0374 311.763 59.5237C311.974 59.0059 312.291 58.6097 312.713 58.3349C313.135 58.0601 313.607 57.9227 314.129 57.9227C314.511 57.9227 314.852 58.0043 315.15 58.1676C315.449 58.3269 315.692 58.536 315.879 58.7949V55.6527H316.948V64.4102H315.951ZM312.552 61.2441C312.552 62.0565 312.723 62.6638 313.066 63.0661C313.408 63.4683 313.812 63.6694 314.278 63.6694C314.748 63.6694 315.146 63.4783 315.473 63.0959C315.803 62.7096 315.969 62.1222 315.969 61.3337C315.969 60.4655 315.802 59.8283 315.467 59.4221C315.132 59.0159 314.72 58.8128 314.23 58.8128C313.753 58.8128 313.352 59.0079 313.03 59.3982C312.711 59.7885 312.552 60.4038 312.552 61.2441Z" fill="#0D0D0D"/>
</g>
</g>
<path d="M128.846 332.989C128.846 329.845 131.395 327.297 134.538 327.297H413.462C416.605 327.297 419.154 329.845 419.154 332.989C419.154 336.133 416.605 338.681 413.462 338.681H134.539C131.395 338.681 128.846 336.133 128.846 332.989Z" fill="#0D0D0D" fill-opacity="0.24"/>
<path d="M128.846 367.143C128.846 364 131.395 361.451 134.538 361.451H413.462C416.605 361.451 419.154 364 419.154 367.143C419.154 370.287 416.605 372.836 413.462 372.836H134.539C131.395 372.836 128.846 370.287 128.846 367.143Z" fill="#0D0D0D" fill-opacity="0.2"/>
<path d="M128.846 401.297C128.846 398.153 131.395 395.604 134.538 395.604H413.462C416.605 395.604 419.154 398.153 419.154 401.297C419.154 404.441 416.605 406.989 413.462 406.989H134.539C131.395 406.989 128.846 404.441 128.846 401.297Z" fill="#0D0D0D" fill-opacity="0.2"/>
<path d="M128.846 435.451C128.846 432.307 131.395 429.759 134.538 429.759H413.462C416.605 429.759 419.154 432.307 419.154 435.451C419.154 438.595 416.605 441.143 413.462 441.143H134.539C131.395 441.143 128.846 438.595 128.846 435.451Z" fill="#0D0D0D" fill-opacity="0.12"/>
<rect x="307" y="389.41" width="91.0769" height="91.0769" rx="45.5385" fill="white" fill-opacity="0.24"/>
<path d="M371.133 439.892C368.23 436.788 360.304 438.052 358.407 438.282C355.616 435.523 353.718 432.189 353.048 431.039C354.053 427.935 354.723 424.831 354.834 421.497C354.834 418.623 353.718 415.519 350.592 415.519C349.476 415.519 348.471 416.208 347.913 417.128C346.573 419.543 347.131 424.371 349.252 429.315C348.025 432.879 346.908 436.328 343.782 442.421C340.545 443.801 333.735 447.02 333.177 450.469C332.954 451.504 333.288 452.539 334.07 453.343C334.851 454.033 335.856 454.378 336.861 454.378C340.991 454.378 345.01 448.515 347.801 443.571C350.145 442.766 353.83 441.616 357.514 440.926C361.867 444.836 365.663 445.41 367.672 445.41C370.352 445.41 371.356 444.261 371.691 443.226C372.249 442.076 371.914 440.812 371.133 439.892ZM368.342 441.846C368.23 442.651 367.226 443.456 365.44 442.996C363.319 442.421 361.421 441.386 359.746 440.007C361.198 439.777 364.435 439.432 366.779 439.892C367.672 440.122 368.565 440.697 368.342 441.846ZM349.699 418.163C349.922 417.818 350.257 417.588 350.592 417.588C351.597 417.588 351.82 418.852 351.82 419.887C351.708 422.302 351.262 424.716 350.481 427.015C348.806 422.417 349.141 419.197 349.699 418.163ZM349.476 440.467C350.369 438.627 351.597 435.408 352.043 434.028C353.048 435.752 354.723 437.822 355.616 438.742C355.616 438.857 352.155 439.547 349.476 440.467ZM342.889 445.066C340.322 449.434 337.642 452.194 336.191 452.194C335.968 452.194 335.744 452.079 335.521 451.964C335.186 451.734 335.074 451.389 335.186 450.929C335.521 449.319 338.424 447.135 342.889 445.066Z" fill="#D92D20"/>
<rect x="131.692" y="125.221" width="290.308" height="177.41" rx="22.7692" fill="#0D0D0D" fill-opacity="0.24"/>
<path opacity="0.48" d="M258.201 240.988L275.683 223.563C276.733 222.517 277.258 221.994 277.863 221.798C278.395 221.626 278.968 221.626 279.501 221.798C280.106 221.994 280.63 222.517 281.68 223.563L299.045 240.872M283.982 225.858L291.584 218.28C292.634 217.234 293.159 216.711 293.764 216.515C294.296 216.342 294.869 216.342 295.402 216.515C296.007 216.711 296.532 217.234 297.581 218.28L305.183 225.858M273.381 210.008C273.381 212.926 271.008 215.291 268.081 215.291C265.154 215.291 262.78 212.926 262.78 210.008C262.78 207.091 265.154 204.725 268.081 204.725C271.008 204.725 273.381 207.091 273.381 210.008ZM264.901 241.707H292.463C296.915 241.707 299.142 241.707 300.842 240.843C302.338 240.083 303.555 238.871 304.317 237.38C305.183 235.685 305.183 233.466 305.183 229.027V206.839C305.183 202.4 305.183 200.181 304.317 198.486C303.555 196.995 302.338 195.783 300.842 195.023C299.142 194.159 296.915 194.159 292.463 194.159H264.901C260.448 194.159 258.221 194.159 256.521 195.023C255.025 195.783 253.808 196.995 253.046 198.486C252.18 200.181 252.18 202.4 252.18 206.839V229.027C252.18 233.466 252.18 235.685 253.046 237.38C253.808 238.871 255.025 240.083 256.521 240.843C258.221 241.707 260.448 241.707 264.901 241.707Z" stroke="#FAFAFA" stroke-width="3.79487"/>
<path d="M274 107.607C275.657 107.607 277 108.951 277 110.607V316.607C277 318.264 275.657 319.607 274 319.607C272.343 319.607 271 318.264 271 316.607V307.446H162.052C142.141 307.446 126 291.305 126 271.395V155.651C126 135.741 142.141 119.6 162.052 119.6H271V110.607C271 108.951 272.343 107.608 274 107.607ZM161.268 125.302C144.863 125.717 131.692 139.147 131.692 155.651V271.395C131.693 287.899 144.863 301.327 161.268 301.743L162.052 301.754H270.205V125.292H162.052L161.268 125.302Z" fill="url(#paint2_linear_2371_30493)"/>
<g style="mix-blend-mode:overlay">
<path d="M131.853 155.699C131.853 138.971 145.413 125.41 162.141 125.41H270.045V302.41H162.141C145.413 302.41 131.853 288.849 131.853 272.121V155.699Z" fill="url(#paint3_linear_2371_30493)"/>
</g>
<rect x="445" y="210.15" width="72" height="72" rx="36" fill="white" fill-opacity="0.52"/>
<path fill-rule="evenodd" clip-rule="evenodd" d="M475.065 232.376C471.693 232.376 470.207 232.673 468.698 233.48C467.355 234.198 466.292 235.261 465.574 236.604C464.767 238.113 464.47 239.6 464.47 242.972V249.331C464.47 252.703 464.767 254.19 465.574 255.699C466.292 257.042 467.355 258.105 468.698 258.823C470.207 259.63 471.693 259.927 475.065 259.927H486.935C490.307 259.927 491.794 259.63 493.303 258.823C494.646 258.105 495.709 257.042 496.427 255.699C497.234 254.19 497.531 252.703 497.531 249.331V242.972C497.531 239.6 497.234 238.113 496.427 236.604C495.709 235.261 494.646 234.198 493.303 233.48C491.794 232.673 490.307 232.376 486.935 232.376H475.065ZM469.997 235.909C470.908 235.423 471.849 235.131 475.065 235.131H479.623V240.641H467.3C467.416 239.196 467.662 238.542 468.003 237.904C468.465 237.04 469.134 236.371 469.997 235.909ZM479.623 243.396H467.225V248.907H479.623V243.396ZM482.378 248.907V243.396H494.776V248.907H482.378ZM479.623 251.662H467.3C467.416 253.107 467.662 253.761 468.003 254.399C468.465 255.263 469.134 255.932 469.997 256.394C470.908 256.88 471.849 257.172 475.065 257.172H479.623V251.662ZM482.378 257.172V251.662H494.701C494.585 253.107 494.339 253.761 493.997 254.399C493.536 255.263 492.867 255.932 492.003 256.394C491.093 256.88 490.152 257.172 486.935 257.172H482.378ZM482.378 240.641V235.131H486.935C490.152 235.131 491.093 235.423 492.003 235.909C492.867 236.371 493.536 237.04 493.997 237.904C494.339 238.542 494.585 239.196 494.701 240.641H482.378Z" fill="#079455"/>
<g opacity="0.24">
<rect x="406" y="-25.5898" width="77" height="77" rx="38.5" fill="white" fill-opacity="0.16"/>
</g>
<rect x="37" y="314.15" width="64" height="64" rx="32" fill="white" fill-opacity="0.16"/>
<path d="M62.5717 353.65L54.0002 346.15L62.5717 338.65" stroke="#444CE7" stroke-width="3.21429" stroke-linecap="round" stroke-linejoin="round"/>
<path d="M75.429 353.65L84.0004 346.15L75.429 338.65" stroke="#444CE7" stroke-width="3.21429" stroke-linecap="round" stroke-linejoin="round"/>
<path d="M72.2145 335.437L65.7859 356.865" stroke="#444CE7" stroke-width="3.21429" stroke-linecap="round" stroke-linejoin="round"/>
</g>
</g>
<defs>
<filter id="filter0_d_2371_30493" x="0" y="0" width="548" height="540" filterUnits="userSpaceOnUse" color-interpolation-filters="sRGB">
<feFlood flood-opacity="0" result="BackgroundImageFix"/>
<feColorMatrix in="SourceAlpha" type="matrix" values="0 0 0 0 0 0 0 0 0 0 0 0 0 0 0 0 0 0 127 0" result="hardAlpha"/>
<feOffset dy="4"/>
<feGaussianBlur stdDeviation="6"/>
<feComposite in2="hardAlpha" operator="out"/>
<feColorMatrix type="matrix" values="0 0 0 0 0 0 0 0 0 0 0 0 0 0 0 0 0 0 0.04 0"/>
<feBlend mode="normal" in2="BackgroundImageFix" result="effect1_dropShadow_2371_30493"/>
<feBlend mode="normal" in="SourceGraphic" in2="effect1_dropShadow_2371_30493" result="shape"/>
</filter>
<filter id="filter1_fn_2371_30493" x="90.6133" y="-42.0498" width="625.807" height="611.826" filterUnits="userSpaceOnUse" color-interpolation-filters="sRGB">
<feFlood flood-opacity="0" result="BackgroundImageFix"/>
<feBlend mode="normal" in="SourceGraphic" in2="BackgroundImageFix" result="shape"/>
<feGaussianBlur stdDeviation="40" result="effect1_foregroundBlur_2371_30493"/>
<feTurbulence type="fractalNoise" baseFrequency="0.3333333432674408 0.3333333432674408" stitchTiles="stitch" numOctaves="3" result="noise" seed="3234" />
<feColorMatrix in="noise" type="luminanceToAlpha" result="alphaNoise" />
<feComponentTransfer in="alphaNoise" result="coloredNoise1">
<feFuncA type="discrete" tableValues="1 1 1 1 1 1 1 1 1 1 1 1 1 1 1 1 1 1 1 1 1 1 1 1 1 1 1 1 1 1 1 1 1 1 1 1 1 1 1 1 1 1 1 1 1 1 1 1 1 1 1 0 0 0 0 0 0 0 0 0 0 0 0 0 0 0 0 0 0 0 0 0 0 0 0 0 0 0 0 0 0 0 0 0 0 0 0 0 0 0 0 0 0 0 0 0 0 0 0 0 "/>
</feComponentTransfer>
<feComposite operator="in" in2="effect1_foregroundBlur_2371_30493" in="coloredNoise1" result="noise1Clipped" />
<feFlood flood-color="rgba(245, 245, 244, 0.12)" result="color1Flood" />
<feComposite operator="in" in2="noise1Clipped" in="color1Flood" result="color1" />
<feMerge result="effect2_noise_2371_30493">
<feMergeNode in="effect1_foregroundBlur_2371_30493" />
<feMergeNode in="color1" />
</feMerge>
</filter>
<filter id="filter2_fn_2371_30493" x="-98.1367" y="151.333" width="714.581" height="651.43" filterUnits="userSpaceOnUse" color-interpolation-filters="sRGB">
<feFlood flood-opacity="0" result="BackgroundImageFix"/>
<feBlend mode="normal" in="SourceGraphic" in2="BackgroundImageFix" result="shape"/>
<feGaussianBlur stdDeviation="30" result="effect1_foregroundBlur_2371_30493"/>
<feTurbulence type="fractalNoise" baseFrequency="0.5 0.5" stitchTiles="stitch" numOctaves="3" result="noise" seed="9523" />
<feColorMatrix in="noise" type="luminanceToAlpha" result="alphaNoise" />
<feComponentTransfer in="alphaNoise" result="coloredNoise1">
<feFuncA type="discrete" tableValues="1 1 1 1 1 1 1 1 1 1 1 1 1 1 1 1 1 1 1 1 1 1 1 1 1 1 1 1 1 1 1 1 1 1 1 1 1 1 1 1 1 1 1 1 1 1 1 1 1 1 1 0 0 0 0 0 0 0 0 0 0 0 0 0 0 0 0 0 0 0 0 0 0 0 0 0 0 0 0 0 0 0 0 0 0 0 0 0 0 0 0 0 0 0 0 0 0 0 0 0 "/>
</feComponentTransfer>
<feComposite operator="in" in2="effect1_foregroundBlur_2371_30493" in="coloredNoise1" result="noise1Clipped" />
<feFlood flood-color="rgba(245, 245, 244, 0.16)" result="color1Flood" />
<feComposite operator="in" in2="noise1Clipped" in="color1Flood" result="color1" />
<feMerge result="effect2_noise_2371_30493">
<feMergeNode in="effect1_foregroundBlur_2371_30493" />
<feMergeNode in="color1" />
</feMerge>
</filter>
<filter id="filter3_d_2371_30493" x="189.836" y="26.1875" width="167.759" height="76.4443" filterUnits="userSpaceOnUse" color-interpolation-filters="sRGB">
<feFlood flood-opacity="0" result="BackgroundImageFix"/>
<feColorMatrix in="SourceAlpha" type="matrix" values="0 0 0 0 0 0 0 0 0 0 0 0 0 0 0 0 0 0 127 0" result="hardAlpha"/>
<feOffset dy="4"/>
<feGaussianBlur stdDeviation="8"/>
<feComposite in2="hardAlpha" operator="out"/>
<feColorMatrix type="matrix" values="0 0 0 0 0 0 0 0 0 0 0 0 0 0 0 0 0 0 0.04 0"/>
<feBlend mode="normal" in2="BackgroundImageFix" result="effect1_dropShadow_2371_30493"/>
<feBlend mode="normal" in="SourceGraphic" in2="effect1_dropShadow_2371_30493" result="shape"/>
</filter>
<radialGradient id="paint0_radial_2371_30493" cx="0" cy="0" r="1" gradientUnits="userSpaceOnUse" gradientTransform="translate(364.516 276.852) scale(459.914 454.024)">
<stop offset="0.38" stop-color="#EF7953"/>
<stop offset="1" stop-color="#EE9C5D" stop-opacity="0.1"/>
</radialGradient>
<radialGradient id="paint1_radial_2371_30493" cx="0" cy="0" r="1" gradientUnits="userSpaceOnUse" gradientTransform="translate(273.062 304.607) scale(404.711 412.7)">
<stop offset="0.08" stop-color="#505EE2"/>
<stop offset="1" stop-color="#5079E2" stop-opacity="0.05"/>
</radialGradient>
<linearGradient id="paint2_linear_2371_30493" x1="126" y1="220.91" x2="339" y2="220.909" gradientUnits="userSpaceOnUse">
<stop offset="0.1" stop-color="#FF926F"/>
<stop offset="0.9" stop-color="#6379FF"/>
</linearGradient>
<linearGradient id="paint3_linear_2371_30493" x1="270.045" y1="214.383" x2="133.322" y2="200.208" gradientUnits="userSpaceOnUse">
<stop offset="0.1" stop-color="#8C7FD9"/>
<stop offset="0.9" stop-color="#FF926F"/>
</linearGradient>
<clipPath id="clip0_2371_30493">
<rect x="12" y="8" width="524" height="516" rx="40" fill="white"/>
</clipPath>
<clipPath id="clip1_2371_30493">
<path d="M229.54 60.41C229.54 48.715 239.021 39.2344 250.716 39.2344H296.716C308.411 39.2344 317.891 48.715 317.891 60.41C317.891 72.105 308.411 81.5856 296.716 81.5856H250.716C239.021 81.5856 229.54 72.105 229.54 60.41Z" fill="white"/>
</clipPath>
<clipPath id="clip2_2371_30493">
<rect width="18.3513" height="18.3513" fill="white" transform="translate(229.54 51.2344)"/>
</clipPath>
</defs>
</svg>
