<svg viewBox="0 0 1920 228" fill="none" xmlns="http://www.w3.org/2000/svg">
<path d="M-53.0582 179H-82.7173L-37.5256 48.0909H-1.85795L43.2699 179H13.6108L-19.1804 78.0057H-20.2031L-53.0582 179ZM-54.9119 127.544H15.1449V149.149H-54.9119V127.544ZM83.7038 48.0909V179H56.0263V48.0909H83.7038ZM164.136 102.743V124.348H104.434V102.743H164.136ZM184.85 179V48.0909H236.498C246.427 48.0909 254.886 49.9872 261.875 53.7798C268.863 57.5298 274.19 62.75 277.855 69.4403C281.562 76.0881 283.416 83.7585 283.416 92.4517C283.416 101.145 281.541 108.815 277.791 115.463C274.041 122.111 268.608 127.288 261.491 130.996C254.417 134.703 245.852 136.557 235.795 136.557H202.876V114.376H231.321C236.647 114.376 241.037 113.46 244.488 111.628C247.983 109.753 250.582 107.175 252.287 103.893C254.034 100.57 254.907 96.7557 254.907 92.4517C254.907 88.1051 254.034 84.3125 252.287 81.0739C250.582 77.7926 247.983 75.2571 244.488 73.4673C240.994 71.6349 236.562 70.7188 231.193 70.7188H212.528V179H184.85ZM340.661 180.918C330.732 180.918 322.145 178.808 314.901 174.589C307.699 170.328 302.138 164.405 298.218 156.82C294.297 149.192 292.337 140.349 292.337 130.293C292.337 120.151 294.297 111.287 298.218 103.702C302.138 96.0739 307.699 90.1506 314.901 85.9318C322.145 81.6705 330.732 79.5398 340.661 79.5398C350.59 79.5398 359.155 81.6705 366.357 85.9318C373.601 90.1506 379.184 96.0739 383.104 103.702C387.025 111.287 388.985 120.151 388.985 130.293C388.985 140.349 387.025 149.192 383.104 156.82C379.184 164.405 373.601 170.328 366.357 174.589C359.155 178.808 350.59 180.918 340.661 180.918ZM340.789 159.824C345.306 159.824 349.077 158.545 352.103 155.989C355.128 153.389 357.408 149.852 358.942 145.378C360.519 140.903 361.307 135.811 361.307 130.101C361.307 124.391 360.519 119.298 358.942 114.824C357.408 110.349 355.128 106.812 352.103 104.213C349.077 101.614 345.306 100.314 340.789 100.314C336.229 100.314 332.394 101.614 329.283 104.213C326.215 106.812 323.892 110.349 322.316 114.824C320.782 119.298 320.015 124.391 320.015 130.101C320.015 135.811 320.782 140.903 322.316 145.378C323.892 149.852 326.215 153.389 329.283 155.989C332.394 158.545 336.229 159.824 340.789 159.824ZM420.598 179L393.879 80.8182H421.429L436.642 146.784H437.537L453.389 80.8182H480.427L496.535 146.401H497.366L512.324 80.8182H539.809L513.154 179H484.326L467.451 117.253H466.237L449.362 179H420.598ZM593.619 180.918C583.519 180.918 574.826 178.872 567.539 174.781C560.295 170.648 554.712 164.81 550.792 157.267C546.871 149.682 544.911 140.712 544.911 130.357C544.911 120.257 546.871 111.393 550.792 103.766C554.712 96.1378 560.231 90.1932 567.347 85.9318C574.506 81.6705 582.901 79.5398 592.532 79.5398C599.009 79.5398 605.039 80.5838 610.621 82.6719C616.246 84.7173 621.147 87.8068 625.323 91.9403C629.542 96.0739 632.823 101.273 635.167 107.537C637.511 113.759 638.683 121.045 638.683 129.398V136.876H555.778V120.001H613.05C613.05 116.081 612.198 112.608 610.494 109.582C608.789 106.557 606.424 104.192 603.398 102.487C600.415 100.74 596.942 99.8665 592.979 99.8665C588.846 99.8665 585.181 100.825 581.985 102.743C578.832 104.618 576.36 107.153 574.57 110.349C572.781 113.503 571.864 117.018 571.822 120.896V136.94C571.822 141.798 572.717 145.996 574.506 149.533C576.339 153.07 578.917 155.797 582.241 157.714C585.565 159.632 589.506 160.591 594.066 160.591C597.092 160.591 599.862 160.165 602.376 159.312C604.89 158.46 607.042 157.182 608.832 155.477C610.621 153.773 611.985 151.685 612.923 149.213L638.107 150.875C636.829 156.926 634.208 162.21 630.245 166.727C626.325 171.202 621.254 174.696 615.032 177.21C608.853 179.682 601.715 180.918 593.619 180.918ZM653.452 179V80.8182H679.852V97.9489H680.874C682.664 91.8551 685.668 87.2528 689.887 84.142C694.106 80.9886 698.964 79.4119 704.461 79.4119C705.825 79.4119 707.295 79.4972 708.871 79.6676C710.448 79.8381 711.833 80.0724 713.026 80.3707V104.533C711.748 104.149 709.979 103.808 707.721 103.51C705.462 103.212 703.396 103.062 701.521 103.062C697.515 103.062 693.935 103.936 690.782 105.683C687.671 107.388 685.2 109.774 683.367 112.842C681.577 115.911 680.683 119.447 680.683 123.453V179H653.452ZM764.279 180.918C754.179 180.918 745.486 178.872 738.199 174.781C730.955 170.648 725.373 164.81 721.452 157.267C717.532 149.682 715.571 140.712 715.571 130.357C715.571 120.257 717.532 111.393 721.452 103.766C725.373 96.1378 730.891 90.1932 738.007 85.9318C745.167 81.6705 753.561 79.5398 763.192 79.5398C769.669 79.5398 775.699 80.5838 781.282 82.6719C786.907 84.7173 791.807 87.8068 795.983 91.9403C800.202 96.0739 803.483 101.273 805.827 107.537C808.171 113.759 809.343 121.045 809.343 129.398V136.876H726.438V120.001H783.711C783.711 116.081 782.858 112.608 781.154 109.582C779.449 106.557 777.084 104.192 774.059 102.487C771.076 100.74 767.603 99.8665 763.64 99.8665C759.506 99.8665 755.841 100.825 752.645 102.743C749.492 104.618 747.02 107.153 745.23 110.349C743.441 113.503 742.525 117.018 742.482 120.896V136.94C742.482 141.798 743.377 145.996 745.167 149.533C746.999 153.07 749.577 155.797 752.901 157.714C756.225 159.632 760.167 160.591 764.726 160.591C767.752 160.591 770.522 160.165 773.036 159.312C775.55 158.46 777.702 157.182 779.492 155.477C781.282 153.773 782.645 151.685 783.583 149.213L808.767 150.875C807.489 156.926 804.868 162.21 800.905 166.727C796.985 171.202 791.914 174.696 785.692 177.21C779.513 179.682 772.375 180.918 764.279 180.918ZM860.292 180.598C852.834 180.598 846.08 178.68 840.029 174.845C834.02 170.967 829.248 165.278 825.711 157.778C822.216 150.236 820.469 140.989 820.469 130.037C820.469 118.787 822.28 109.433 825.902 101.976C829.525 94.4759 834.34 88.8722 840.348 85.1648C846.4 81.4148 853.026 79.5398 860.228 79.5398C865.725 79.5398 870.306 80.4773 873.971 82.3523C877.678 84.1847 880.661 86.4858 882.919 89.2557C885.221 91.983 886.968 94.6676 888.161 97.3097H888.992V48.0909H916.158V179H889.311V163.276H888.161C886.882 166.003 885.071 168.709 882.728 171.393C880.426 174.036 877.422 176.23 873.715 177.977C870.05 179.724 865.576 180.598 860.292 180.598ZM868.921 158.929C873.31 158.929 877.017 157.736 880.043 155.349C883.111 152.92 885.455 149.533 887.074 145.186C888.736 140.839 889.567 135.747 889.567 129.909C889.567 124.071 888.757 119 887.138 114.696C885.519 110.392 883.175 107.068 880.107 104.724C877.039 102.381 873.31 101.209 868.921 101.209C864.446 101.209 860.675 102.423 857.607 104.852C854.539 107.281 852.216 110.648 850.64 114.952C849.063 119.256 848.275 124.241 848.275 129.909C848.275 135.619 849.063 140.669 850.64 145.058C852.259 149.405 854.581 152.814 857.607 155.286C860.675 157.714 864.446 158.929 868.921 158.929Z" fill="white"/>
<mask id="path-2-outside-1_2452_11934" maskUnits="userSpaceOnUse" x="994" y="46" width="1003" height="137" fill="black">
<rect fill="white" x="994" y="46" width="1003" height="137"/>
<path d="M1025.94 179H996.283L1041.47 48.0909H1077.14L1122.27 179H1092.61L1059.82 78.0057H1058.8L1025.94 179ZM1024.09 127.544H1094.14V149.149H1024.09V127.544ZM1162.7 48.0909V179H1135.03V48.0909H1162.7ZM1243.14 102.743V124.348H1183.43V102.743H1243.14ZM1263.85 179V48.0909H1315.5C1325.43 48.0909 1333.89 49.9872 1340.87 53.7798C1347.86 57.5298 1353.19 62.75 1356.85 69.4403C1360.56 76.0881 1362.42 83.7585 1362.42 92.4517C1362.42 101.145 1360.54 108.815 1356.79 115.463C1353.04 122.111 1347.61 127.288 1340.49 130.996C1333.42 134.703 1324.85 136.557 1314.8 136.557H1281.88V114.376H1310.32C1315.65 114.376 1320.04 113.46 1323.49 111.628C1326.98 109.753 1329.58 107.175 1331.29 103.893C1333.03 100.57 1333.91 96.7557 1333.91 92.4517C1333.91 88.1051 1333.03 84.3125 1331.29 81.0739C1329.58 77.7926 1326.98 75.2571 1323.49 73.4673C1319.99 71.6349 1315.56 70.7188 1310.19 70.7188H1291.53V179H1263.85ZM1419.66 180.918C1409.73 180.918 1401.15 178.808 1393.9 174.589C1386.7 170.328 1381.14 164.405 1377.22 156.82C1373.3 149.192 1371.34 140.349 1371.34 130.293C1371.34 120.151 1373.3 111.287 1377.22 103.702C1381.14 96.0739 1386.7 90.1506 1393.9 85.9318C1401.15 81.6705 1409.73 79.5398 1419.66 79.5398C1429.59 79.5398 1438.16 81.6705 1445.36 85.9318C1452.6 90.1506 1458.18 96.0739 1462.1 103.702C1466.02 111.287 1467.98 120.151 1467.98 130.293C1467.98 140.349 1466.02 149.192 1462.1 156.82C1458.18 164.405 1452.6 170.328 1445.36 174.589C1438.16 178.808 1429.59 180.918 1419.66 180.918ZM1419.79 159.824C1424.31 159.824 1428.08 158.545 1431.1 155.989C1434.13 153.389 1436.41 149.852 1437.94 145.378C1439.52 140.903 1440.31 135.811 1440.31 130.101C1440.31 124.391 1439.52 119.298 1437.94 114.824C1436.41 110.349 1434.13 106.812 1431.1 104.213C1428.08 101.614 1424.31 100.314 1419.79 100.314C1415.23 100.314 1411.39 101.614 1408.28 104.213C1405.21 106.812 1402.89 110.349 1401.32 114.824C1399.78 119.298 1399.01 124.391 1399.01 130.101C1399.01 135.811 1399.78 140.903 1401.32 145.378C1402.89 149.852 1405.21 153.389 1408.28 155.989C1411.39 158.545 1415.23 159.824 1419.79 159.824ZM1499.6 179L1472.88 80.8182H1500.43L1515.64 146.784H1516.54L1532.39 80.8182H1559.43L1575.54 146.401H1576.37L1591.32 80.8182H1618.81L1592.15 179H1563.33L1546.45 117.253H1545.24L1528.36 179H1499.6ZM1672.62 180.918C1662.52 180.918 1653.83 178.872 1646.54 174.781C1639.29 170.648 1633.71 164.81 1629.79 157.267C1625.87 149.682 1623.91 140.712 1623.91 130.357C1623.91 120.257 1625.87 111.393 1629.79 103.766C1633.71 96.1378 1639.23 90.1932 1646.35 85.9318C1653.51 81.6705 1661.9 79.5398 1671.53 79.5398C1678.01 79.5398 1684.04 80.5838 1689.62 82.6719C1695.25 84.7173 1700.15 87.8068 1704.32 91.9403C1708.54 96.0739 1711.82 101.273 1714.17 107.537C1716.51 113.759 1717.68 121.045 1717.68 129.398V136.876H1634.78V120.001H1692.05C1692.05 116.081 1691.2 112.608 1689.49 109.582C1687.79 106.557 1685.42 104.192 1682.4 102.487C1679.42 100.74 1675.94 99.8665 1671.98 99.8665C1667.85 99.8665 1664.18 100.825 1660.99 102.743C1657.83 104.618 1655.36 107.153 1653.57 110.349C1651.78 113.503 1650.86 117.018 1650.82 120.896V136.94C1650.82 141.798 1651.72 145.996 1653.51 149.533C1655.34 153.07 1657.92 155.797 1661.24 157.714C1664.56 159.632 1668.51 160.591 1673.07 160.591C1676.09 160.591 1678.86 160.165 1681.38 159.312C1683.89 158.46 1686.04 157.182 1687.83 155.477C1689.62 153.773 1690.99 151.685 1691.92 149.213L1717.11 150.875C1715.83 156.926 1713.21 162.21 1709.25 166.727C1705.32 171.202 1700.25 174.696 1694.03 177.21C1687.85 179.682 1680.72 180.918 1672.62 180.918ZM1732.45 179V80.8182H1758.85V97.9489H1759.87C1761.66 91.8551 1764.67 87.2528 1768.89 84.142C1773.11 80.9886 1777.96 79.4119 1783.46 79.4119C1784.82 79.4119 1786.29 79.4972 1787.87 79.6676C1789.45 79.8381 1790.83 80.0724 1792.03 80.3707V104.533C1790.75 104.149 1788.98 103.808 1786.72 103.51C1784.46 103.212 1782.4 103.062 1780.52 103.062C1776.51 103.062 1772.94 103.936 1769.78 105.683C1766.67 107.388 1764.2 109.774 1762.37 112.842C1760.58 115.911 1759.68 119.447 1759.68 123.453V179H1732.45ZM1843.28 180.918C1833.18 180.918 1824.49 178.872 1817.2 174.781C1809.95 170.648 1804.37 164.81 1800.45 157.267C1796.53 149.682 1794.57 140.712 1794.57 130.357C1794.57 120.257 1796.53 111.393 1800.45 103.766C1804.37 96.1378 1809.89 90.1932 1817.01 85.9318C1824.17 81.6705 1832.56 79.5398 1842.19 79.5398C1848.67 79.5398 1854.7 80.5838 1860.28 82.6719C1865.91 84.7173 1870.81 87.8068 1874.98 91.9403C1879.2 96.0739 1882.48 101.273 1884.83 107.537C1887.17 113.759 1888.34 121.045 1888.34 129.398V136.876H1805.44V120.001H1862.71C1862.71 116.081 1861.86 112.608 1860.15 109.582C1858.45 106.557 1856.08 104.192 1853.06 102.487C1850.08 100.74 1846.6 99.8665 1842.64 99.8665C1838.51 99.8665 1834.84 100.825 1831.65 102.743C1828.49 104.618 1826.02 107.153 1824.23 110.349C1822.44 113.503 1821.52 117.018 1821.48 120.896V136.94C1821.48 141.798 1822.38 145.996 1824.17 149.533C1826 153.07 1828.58 155.797 1831.9 157.714C1835.22 159.632 1839.17 160.591 1843.73 160.591C1846.75 160.591 1849.52 160.165 1852.04 159.312C1854.55 158.46 1856.7 157.182 1858.49 155.477C1860.28 153.773 1861.65 151.685 1862.58 149.213L1887.77 150.875C1886.49 156.926 1883.87 162.21 1879.91 166.727C1875.98 171.202 1870.91 174.696 1864.69 177.21C1858.51 179.682 1851.38 180.918 1843.28 180.918ZM1939.29 180.598C1931.83 180.598 1925.08 178.68 1919.03 174.845C1913.02 170.967 1908.25 165.278 1904.71 157.778C1901.22 150.236 1899.47 140.989 1899.47 130.037C1899.47 118.787 1901.28 109.433 1904.9 101.976C1908.52 94.4759 1913.34 88.8722 1919.35 85.1648C1925.4 81.4148 1932.03 79.5398 1939.23 79.5398C1944.72 79.5398 1949.31 80.4773 1952.97 82.3523C1956.68 84.1847 1959.66 86.4858 1961.92 89.2557C1964.22 91.983 1965.97 94.6676 1967.16 97.3097H1967.99V48.0909H1995.16V179H1968.31V163.276H1967.16C1965.88 166.003 1964.07 168.709 1961.73 171.393C1959.43 174.036 1956.42 176.23 1952.71 177.977C1949.05 179.724 1944.58 180.598 1939.29 180.598ZM1947.92 158.929C1952.31 158.929 1956.02 157.736 1959.04 155.349C1962.11 152.92 1964.45 149.533 1966.07 145.186C1967.74 140.839 1968.57 135.747 1968.57 129.909C1968.57 124.071 1967.76 119 1966.14 114.696C1964.52 110.392 1962.18 107.068 1959.11 104.724C1956.04 102.381 1952.31 101.209 1947.92 101.209C1943.45 101.209 1939.68 102.423 1936.61 104.852C1933.54 107.281 1931.22 110.648 1929.64 114.952C1928.06 119.256 1927.27 124.241 1927.27 129.909C1927.27 135.619 1928.06 140.669 1929.64 145.058C1931.26 149.405 1933.58 152.814 1936.61 155.286C1939.68 157.714 1943.45 158.929 1947.92 158.929Z"/>
</mask>
<path d="M1025.94 179V180.5H1027.03L1027.37 179.464L1025.94 179ZM996.283 179L994.865 178.511L994.178 180.5H996.283V179ZM1041.47 48.0909V46.5909H1040.41L1040.06 47.6014L1041.47 48.0909ZM1077.14 48.0909L1078.56 47.602L1078.21 46.5909H1077.14V48.0909ZM1122.27 179V180.5H1124.37L1123.69 178.511L1122.27 179ZM1092.61 179L1091.18 179.463L1091.52 180.5H1092.61V179ZM1059.82 78.0057L1061.25 77.5425L1060.91 76.5057H1059.82V78.0057ZM1058.8 78.0057V76.5057H1057.71L1057.37 77.5416L1058.8 78.0057ZM1024.09 127.544V126.044H1022.59V127.544H1024.09ZM1094.14 127.544H1095.64V126.044H1094.14V127.544ZM1094.14 149.149V150.649H1095.64V149.149H1094.14ZM1024.09 149.149H1022.59V150.649H1024.09V149.149ZM1025.94 179V177.5H996.283V179V180.5H1025.94V179ZM996.283 179L997.701 179.489L1042.89 48.5804L1041.47 48.0909L1040.06 47.6014L994.865 178.511L996.283 179ZM1041.47 48.0909V49.5909H1077.14V48.0909V46.5909H1041.47V48.0909ZM1077.14 48.0909L1075.72 48.5798L1120.85 179.489L1122.27 179L1123.69 178.511L1078.56 47.602L1077.14 48.0909ZM1122.27 179V177.5H1092.61V179V180.5H1122.27V179ZM1092.61 179L1094.04 178.537L1061.25 77.5425L1059.82 78.0057L1058.39 78.4689L1091.18 179.463L1092.61 179ZM1059.82 78.0057V76.5057H1058.8V78.0057V79.5057H1059.82V78.0057ZM1058.8 78.0057L1057.37 77.5416L1024.52 178.536L1025.94 179L1027.37 179.464L1060.22 78.4697L1058.8 78.0057ZM1024.09 127.544V129.044H1094.14V127.544V126.044H1024.09V127.544ZM1094.14 127.544H1092.64V149.149H1094.14H1095.64V127.544H1094.14ZM1094.14 149.149V147.649H1024.09V149.149V150.649H1094.14V149.149ZM1024.09 149.149H1025.59V127.544H1024.09H1022.59V149.149H1024.09ZM1162.7 48.0909H1164.2V46.5909H1162.7V48.0909ZM1162.7 179V180.5H1164.2V179H1162.7ZM1135.03 179H1133.53V180.5H1135.03V179ZM1135.03 48.0909V46.5909H1133.53V48.0909H1135.03ZM1162.7 48.0909H1161.2V179H1162.7H1164.2V48.0909H1162.7ZM1162.7 179V177.5H1135.03V179V180.5H1162.7V179ZM1135.03 179H1136.53V48.0909H1135.03H1133.53V179H1135.03ZM1135.03 48.0909V49.5909H1162.7V48.0909V46.5909H1135.03V48.0909ZM1243.14 102.743H1244.64V101.243H1243.14V102.743ZM1243.14 124.348V125.848H1244.64V124.348H1243.14ZM1183.43 124.348H1181.93V125.848H1183.43V124.348ZM1183.43 102.743V101.243H1181.93V102.743H1183.43ZM1243.14 102.743H1241.64V124.348H1243.14H1244.64V102.743H1243.14ZM1243.14 124.348V122.848H1183.43V124.348V125.848H1243.14V124.348ZM1183.43 124.348H1184.93V102.743H1183.43H1181.93V124.348H1183.43ZM1183.43 102.743V104.243H1243.14V102.743V101.243H1183.43V102.743ZM1263.85 179H1262.35V180.5H1263.85V179ZM1263.85 48.0909V46.5909H1262.35V48.0909H1263.85ZM1340.87 53.7798L1340.16 55.0982L1340.17 55.1016L1340.87 53.7798ZM1356.85 69.4403L1355.54 70.161L1355.54 70.1709L1356.85 69.4403ZM1340.49 130.996L1339.8 129.665L1339.79 129.667L1340.49 130.996ZM1281.88 136.557H1280.38V138.057H1281.88V136.557ZM1281.88 114.376V112.876H1280.38V114.376H1281.88ZM1323.49 111.628L1324.19 112.953L1324.2 112.95L1323.49 111.628ZM1331.29 103.893L1329.96 103.196L1329.96 103.202L1331.29 103.893ZM1331.29 81.0739L1329.96 81.7653L1329.96 81.7757L1329.97 81.786L1331.29 81.0739ZM1323.49 73.4673L1322.79 74.7958L1322.8 74.7991L1322.8 74.8024L1323.49 73.4673ZM1291.53 70.7188V69.2188H1290.03V70.7188H1291.53ZM1291.53 179V180.5H1293.03V179H1291.53ZM1263.85 179H1265.35V48.0909H1263.85H1262.35V179H1263.85ZM1263.85 48.0909V49.5909H1315.5V48.0909V46.5909H1263.85V48.0909ZM1315.5 48.0909V49.5909C1325.24 49.5909 1333.44 51.4509 1340.16 55.0982L1340.87 53.7798L1341.59 52.4615C1334.33 48.5236 1325.62 46.5909 1315.5 46.5909V48.0909ZM1340.87 53.7798L1340.17 55.1016C1346.91 58.7199 1352.02 63.736 1355.54 70.161L1356.85 69.4403L1358.17 68.7197C1354.36 61.764 1348.82 56.3397 1341.58 52.4581L1340.87 53.7798ZM1356.85 69.4403L1355.54 70.1709C1359.11 76.5652 1360.92 83.9775 1360.92 92.4517H1362.42H1363.92C1363.92 83.5396 1362.01 75.6109 1358.16 68.7097L1356.85 69.4403ZM1362.42 92.4517H1360.92C1360.92 100.923 1359.09 108.333 1355.48 114.726L1356.79 115.463L1358.1 116.2C1361.99 109.298 1363.92 101.367 1363.92 92.4517H1362.42ZM1356.79 115.463L1355.48 114.726C1351.88 121.107 1346.67 126.085 1339.8 129.665L1340.49 130.996L1341.18 132.326C1348.54 128.492 1354.2 123.114 1358.1 116.2L1356.79 115.463ZM1340.49 130.996L1339.79 129.667C1332.98 133.236 1324.67 135.057 1314.8 135.057V136.557V138.057C1325.03 138.057 1333.85 136.17 1341.19 132.324L1340.49 130.996ZM1314.8 136.557V135.057H1281.88V136.557V138.057H1314.8V136.557ZM1281.88 136.557H1283.38V114.376H1281.88H1280.38V136.557H1281.88ZM1281.88 114.376V115.876H1310.32V114.376V112.876H1281.88V114.376ZM1310.32 114.376V115.876C1315.81 115.876 1320.46 114.934 1324.19 112.953L1323.49 111.628L1322.78 110.303C1319.61 111.986 1315.49 112.876 1310.32 112.876V114.376ZM1323.49 111.628L1324.2 112.95C1327.94 110.943 1330.76 108.154 1332.62 104.585L1331.29 103.893L1329.96 103.202C1328.4 106.196 1326.03 108.563 1322.78 110.306L1323.49 111.628ZM1331.29 103.893L1332.61 104.591C1334.49 101.023 1335.41 96.963 1335.41 92.4517H1333.91H1332.41C1332.41 96.5483 1331.58 100.117 1329.96 103.196L1331.29 103.893ZM1333.91 92.4517H1335.41C1335.41 87.9015 1334.49 83.8556 1332.61 80.3617L1331.29 81.0739L1329.97 81.786C1331.58 84.7694 1332.41 88.3087 1332.41 92.4517H1333.91ZM1331.29 81.0739L1332.62 80.3824C1330.76 76.807 1327.93 74.0548 1324.17 72.1323L1323.49 73.4673L1322.8 74.8024C1326.04 76.4594 1328.4 78.7782 1329.96 81.7653L1331.29 81.0739ZM1323.49 73.4673L1324.18 72.1389C1320.41 70.1606 1315.72 69.2188 1310.19 69.2188V70.7188V72.2188C1315.4 72.2188 1319.58 73.1093 1322.79 74.7958L1323.49 73.4673ZM1310.19 70.7188V69.2188H1291.53V70.7188V72.2188H1310.19V70.7188ZM1291.53 70.7188H1290.03V179H1291.53H1293.03V70.7188H1291.53ZM1291.53 179V177.5H1263.85V179V180.5H1291.53V179ZM1393.9 174.589L1393.14 175.88L1393.15 175.886L1393.9 174.589ZM1377.22 156.82L1375.88 157.505L1375.89 157.508L1377.22 156.82ZM1377.22 103.702L1378.55 104.39L1378.55 104.387L1377.22 103.702ZM1393.9 85.9318L1394.66 87.2261L1394.66 87.2247L1393.9 85.9318ZM1445.36 85.9318L1444.59 87.2228L1444.6 87.228L1445.36 85.9318ZM1462.1 103.702L1460.77 104.387L1460.77 104.39L1462.1 103.702ZM1462.1 156.82L1463.44 157.508L1463.44 157.505L1462.1 156.82ZM1445.36 174.589L1446.12 175.884L1446.12 175.882L1445.36 174.589ZM1431.1 155.989L1432.07 157.134L1432.08 157.126L1431.1 155.989ZM1437.94 145.378L1436.53 144.879L1436.52 144.891L1437.94 145.378ZM1437.94 114.824L1436.52 115.31L1436.53 115.322L1437.94 114.824ZM1408.28 104.213L1407.32 103.062L1407.31 103.069L1408.28 104.213ZM1401.32 114.824L1399.9 114.325L1399.9 114.337L1401.32 114.824ZM1401.32 145.378L1399.9 145.864L1399.9 145.876L1401.32 145.378ZM1408.28 155.989L1407.31 157.133L1407.32 157.14L1407.33 157.147L1408.28 155.989ZM1419.66 180.918V179.418C1409.95 179.418 1401.63 177.356 1394.66 173.293L1393.9 174.589L1393.15 175.886C1400.66 180.261 1409.52 182.418 1419.66 182.418V180.918ZM1393.9 174.589L1394.66 173.299C1387.71 169.184 1382.34 163.471 1378.55 156.131L1377.22 156.82L1375.89 157.508C1379.93 165.338 1385.69 171.473 1393.14 175.88L1393.9 174.589ZM1377.22 156.82L1378.55 156.134C1374.76 148.752 1372.84 140.152 1372.84 130.293H1371.34H1369.84C1369.84 140.547 1371.84 149.632 1375.88 157.505L1377.22 156.82ZM1371.34 130.293H1372.84C1372.84 120.345 1374.76 111.726 1378.55 104.39L1377.22 103.702L1375.89 103.013C1371.84 110.848 1369.84 119.956 1369.84 130.293H1371.34ZM1377.22 103.702L1378.55 104.387C1382.35 97.0056 1387.71 91.2967 1394.66 87.2261L1393.9 85.9318L1393.14 84.6375C1385.69 89.0045 1379.93 95.1421 1375.88 103.016L1377.22 103.702ZM1393.9 85.9318L1394.66 87.2247C1401.64 83.1217 1409.95 81.0398 1419.66 81.0398V79.5398V78.0398C1409.51 78.0398 1400.65 80.2192 1393.14 84.6389L1393.9 85.9318ZM1419.66 79.5398V81.0398C1429.37 81.0398 1437.66 83.1218 1444.59 87.2227L1445.36 85.9318L1446.12 84.6409C1438.65 80.2191 1429.81 78.0398 1419.66 78.0398V79.5398ZM1445.36 85.9318L1444.6 87.228C1451.59 91.2992 1456.98 97.008 1460.77 104.387L1462.1 103.702L1463.44 103.016C1459.39 95.1398 1453.61 89.0019 1446.11 84.6356L1445.36 85.9318ZM1462.1 103.702L1460.77 104.39C1464.56 111.726 1466.48 120.345 1466.48 130.293H1467.98H1469.48C1469.48 119.956 1467.49 110.848 1463.44 103.013L1462.1 103.702ZM1467.98 130.293H1466.48C1466.48 140.152 1464.56 148.752 1460.77 156.134L1462.1 156.82L1463.44 157.505C1467.48 149.632 1469.48 140.547 1469.48 130.293H1467.98ZM1462.1 156.82L1460.77 156.131C1456.98 163.469 1451.59 169.181 1444.6 173.297L1445.36 174.589L1446.12 175.882C1453.61 171.475 1459.39 165.341 1463.44 157.508L1462.1 156.82ZM1445.36 174.589L1444.6 173.295C1437.67 177.356 1429.37 179.418 1419.66 179.418V180.918V182.418C1429.81 182.418 1438.64 180.261 1446.12 175.884L1445.36 174.589ZM1419.79 159.824V161.324C1424.61 161.324 1428.74 159.952 1432.07 157.134L1431.1 155.989L1430.13 154.843C1427.42 157.139 1424 158.324 1419.79 158.324V159.824ZM1431.1 155.989L1432.08 157.126C1435.34 154.323 1437.76 150.544 1439.36 145.864L1437.94 145.378L1436.52 144.891C1435.06 149.16 1432.91 152.455 1430.13 154.851L1431.1 155.989ZM1437.94 145.378L1439.36 145.876C1441 141.213 1441.81 135.947 1441.81 130.101H1440.31H1438.81C1438.81 135.675 1438.04 140.594 1436.53 144.879L1437.94 145.378ZM1440.31 130.101H1441.81C1441.81 124.254 1441 118.989 1439.36 114.325L1437.94 114.824L1436.53 115.322C1438.04 119.608 1438.81 124.527 1438.81 130.101H1440.31ZM1437.94 114.824L1439.36 114.337C1437.76 109.658 1435.34 105.879 1432.08 103.075L1431.1 104.213L1430.13 105.351C1432.91 107.746 1435.06 111.041 1436.52 115.31L1437.94 114.824ZM1431.1 104.213L1432.08 103.075C1428.75 100.211 1424.61 98.8139 1419.79 98.8139V100.314V101.814C1424 101.814 1427.41 103.016 1430.13 105.351L1431.1 104.213ZM1419.79 100.314V98.8139C1414.92 98.8139 1410.74 100.209 1407.32 103.062L1408.28 104.213L1409.24 105.364C1412.05 103.018 1415.53 101.814 1419.79 101.814V100.314ZM1408.28 104.213L1407.31 103.069C1404.01 105.869 1401.55 109.645 1399.9 114.325L1401.32 114.824L1402.73 115.322C1404.23 111.053 1406.42 107.756 1409.25 105.358L1408.28 104.213ZM1401.32 114.824L1399.9 114.337C1398.3 118.997 1397.51 124.258 1397.51 130.101H1399.01H1400.51C1400.51 124.523 1401.26 119.6 1402.73 115.31L1401.32 114.824ZM1399.01 130.101H1397.51C1397.51 135.943 1398.3 141.205 1399.9 145.864L1401.32 145.378L1402.73 144.891C1401.26 140.602 1400.51 135.679 1400.51 130.101H1399.01ZM1401.32 145.378L1399.9 145.876C1401.55 150.556 1404.01 154.333 1407.31 157.133L1408.28 155.989L1409.25 154.844C1406.42 152.445 1404.23 149.148 1402.73 144.879L1401.32 145.378ZM1408.28 155.989L1407.33 157.147C1410.75 159.954 1414.93 161.324 1419.79 161.324V159.824V158.324C1415.53 158.324 1412.04 157.137 1409.24 154.83L1408.28 155.989ZM1499.6 179L1498.15 179.394L1498.45 180.5H1499.6V179ZM1472.88 80.8182V79.3182H1470.92L1471.43 81.2121L1472.88 80.8182ZM1500.43 80.8182L1501.89 80.4811L1501.62 79.3182H1500.43V80.8182ZM1515.64 146.784L1514.18 147.121L1514.45 148.284H1515.64V146.784ZM1516.54 146.784V148.284H1517.72L1518 147.135L1516.54 146.784ZM1532.39 80.8182V79.3182H1531.21L1530.93 80.4677L1532.39 80.8182ZM1559.43 80.8182L1560.88 80.4604L1560.6 79.3182H1559.43V80.8182ZM1575.54 146.401L1574.08 146.758L1574.36 147.901H1575.54V146.401ZM1576.37 146.401V147.901H1577.56L1577.83 146.734L1576.37 146.401ZM1591.32 80.8182V79.3182H1590.13L1589.86 80.4846L1591.32 80.8182ZM1618.81 80.8182L1620.26 81.2112L1620.77 79.3182H1618.81V80.8182ZM1592.15 179V180.5H1593.3L1593.6 179.393L1592.15 179ZM1563.33 179L1561.88 179.395L1562.18 180.5H1563.33V179ZM1546.45 117.253L1547.9 116.857L1547.6 115.753H1546.45V117.253ZM1545.24 117.253V115.753H1544.09L1543.79 116.857L1545.24 117.253ZM1528.36 179V180.5H1529.51L1529.81 179.395L1528.36 179ZM1499.6 179L1501.05 178.606L1474.33 80.4243L1472.88 80.8182L1471.43 81.2121L1498.15 179.394L1499.6 179ZM1472.88 80.8182V82.3182H1500.43V80.8182V79.3182H1472.88V80.8182ZM1500.43 80.8182L1498.97 81.1553L1514.18 147.121L1515.64 146.784L1517.1 146.447L1501.89 80.4811L1500.43 80.8182ZM1515.64 146.784V148.284H1516.54V146.784V145.284H1515.64V146.784ZM1516.54 146.784L1518 147.135L1533.85 81.1687L1532.39 80.8182L1530.93 80.4677L1515.08 146.434L1516.54 146.784ZM1532.39 80.8182V82.3182H1559.43V80.8182V79.3182H1532.39V80.8182ZM1559.43 80.8182L1557.97 81.176L1574.08 146.758L1575.54 146.401L1576.99 146.043L1560.88 80.4604L1559.43 80.8182ZM1575.54 146.401V147.901H1576.37V146.401V144.901H1575.54V146.401ZM1576.37 146.401L1577.83 146.734L1592.79 81.1517L1591.32 80.8182L1589.86 80.4846L1574.9 146.067L1576.37 146.401ZM1591.32 80.8182V82.3182H1618.81V80.8182V79.3182H1591.32V80.8182ZM1618.81 80.8182L1617.36 80.4252L1590.71 178.607L1592.15 179L1593.6 179.393L1620.26 81.2112L1618.81 80.8182ZM1592.15 179V177.5H1563.33V179V180.5H1592.15V179ZM1563.33 179L1564.77 178.605L1547.9 116.857L1546.45 117.253L1545 117.648L1561.88 179.395L1563.33 179ZM1546.45 117.253V115.753H1545.24V117.253V118.753H1546.45V117.253ZM1545.24 117.253L1543.79 116.857L1526.91 178.605L1528.36 179L1529.81 179.395L1546.68 117.648L1545.24 117.253ZM1528.36 179V177.5H1499.6V179V180.5H1528.36V179ZM1646.54 174.781L1645.8 176.084L1645.8 176.089L1646.54 174.781ZM1629.79 157.267L1628.46 157.956L1628.46 157.959L1629.79 157.267ZM1629.79 103.766L1628.46 103.08L1629.79 103.766ZM1646.35 85.9318L1645.58 84.6429L1645.58 84.6449L1646.35 85.9318ZM1689.62 82.6719L1689.1 84.0769L1689.11 84.0816L1689.62 82.6719ZM1704.32 91.9403L1703.27 93.0064L1703.27 93.0118L1704.32 91.9403ZM1714.17 107.537L1712.76 108.063L1712.76 108.066L1714.17 107.537ZM1717.68 136.876V138.376H1719.18V136.876H1717.68ZM1634.78 136.876H1633.28V138.376H1634.78V136.876ZM1634.78 120.001V118.501H1633.28V120.001H1634.78ZM1692.05 120.001V121.501H1693.55V120.001H1692.05ZM1689.49 109.582L1688.19 110.319V110.319L1689.49 109.582ZM1682.4 102.487L1681.64 103.782L1681.65 103.788L1681.66 103.794L1682.4 102.487ZM1660.99 102.743L1661.75 104.032L1661.76 104.029L1660.99 102.743ZM1653.57 110.349L1654.87 111.09L1654.88 111.082L1653.57 110.349ZM1650.82 120.896L1649.32 120.88L1649.32 120.888V120.896H1650.82ZM1653.51 149.533L1652.17 150.21L1652.17 150.216L1652.17 150.223L1653.51 149.533ZM1681.38 159.312L1680.89 157.892L1681.38 159.312ZM1687.83 155.477L1686.8 154.391L1687.83 155.477ZM1691.92 149.213L1692.02 147.716L1690.91 147.643L1690.52 148.681L1691.92 149.213ZM1717.11 150.875L1718.57 151.185L1718.93 149.492L1717.21 149.378L1717.11 150.875ZM1709.25 166.727L1708.12 165.738L1708.12 165.739L1709.25 166.727ZM1694.03 177.21L1694.59 178.603L1694.59 178.601L1694.03 177.21ZM1672.62 180.918V179.418C1662.72 179.418 1654.29 177.414 1647.27 173.473L1646.54 174.781L1645.8 176.089C1653.36 180.33 1662.32 182.418 1672.62 182.418V180.918ZM1646.54 174.781L1647.28 173.478C1640.29 169.491 1634.91 163.867 1631.12 156.575L1629.79 157.267L1628.46 157.959C1632.51 165.752 1638.3 171.805 1645.8 176.084L1646.54 174.781ZM1629.79 157.267L1631.12 156.578C1627.34 149.247 1625.41 140.522 1625.41 130.357H1623.91H1622.41C1622.41 140.901 1624.41 150.117 1628.46 157.956L1629.79 157.267ZM1623.91 130.357H1625.41C1625.41 120.453 1627.33 111.832 1631.13 104.451L1629.79 103.766L1628.46 103.08C1624.41 110.955 1622.41 120.061 1622.41 130.357H1623.91ZM1629.79 103.766L1631.13 104.451C1634.92 97.0637 1640.25 91.3312 1647.12 87.2187L1646.35 85.9318L1645.58 84.6449C1638.21 89.0552 1632.5 95.2119 1628.46 103.08L1629.79 103.766ZM1646.35 85.9318L1647.11 87.2207C1654.01 83.1179 1662.13 81.0398 1671.53 81.0398V79.5398V78.0398C1661.67 78.0398 1653.01 80.223 1645.58 84.6429L1646.35 85.9318ZM1671.53 79.5398V81.0398C1677.85 81.0398 1683.7 82.0569 1689.1 84.0768L1689.62 82.6719L1690.15 81.2669C1684.38 79.1108 1678.17 78.0398 1671.53 78.0398V79.5398ZM1689.62 82.6719L1689.11 84.0816C1694.53 86.0544 1699.25 89.0282 1703.27 93.0064L1704.32 91.9403L1705.38 90.8743C1701.05 86.5855 1695.96 83.3802 1690.13 81.2622L1689.62 82.6719ZM1704.32 91.9403L1703.27 93.0118C1707.32 96.9724 1710.49 101.977 1712.76 108.063L1714.17 107.537L1715.57 107.011C1713.16 100.569 1709.77 95.1754 1705.37 90.8689L1704.32 91.9403ZM1714.17 107.537L1712.76 108.066C1715.03 114.081 1716.18 121.182 1716.18 129.398H1717.68H1719.18C1719.18 120.909 1717.99 113.436 1715.57 107.008L1714.17 107.537ZM1717.68 129.398H1716.18V136.876H1717.68H1719.18V129.398H1717.68ZM1717.68 136.876V135.376H1634.78V136.876V138.376H1717.68V136.876ZM1634.78 136.876H1636.28V120.001H1634.78H1633.28V136.876H1634.78ZM1634.78 120.001V121.501H1692.05V120.001V118.501H1634.78V120.001ZM1692.05 120.001H1693.55C1693.55 115.857 1692.65 112.124 1690.8 108.846L1689.49 109.582L1688.19 110.319C1689.75 113.092 1690.55 116.305 1690.55 120.001H1692.05ZM1689.49 109.582L1690.8 108.846C1688.96 105.582 1686.4 103.019 1683.13 101.18L1682.4 102.487L1681.66 103.794C1684.45 105.364 1686.62 107.532 1688.19 110.319L1689.49 109.582ZM1682.4 102.487L1683.16 101.193C1679.91 99.2923 1676.17 98.3665 1671.98 98.3665V99.8665V101.366C1675.72 101.366 1678.92 102.188 1681.64 103.782L1682.4 102.487ZM1671.98 99.8665V98.3665C1667.6 98.3665 1663.67 99.3843 1660.21 101.457L1660.99 102.743L1661.76 104.029C1664.69 102.266 1668.09 101.366 1671.98 101.366V99.8665ZM1660.99 102.743L1660.22 101.454C1656.84 103.463 1654.18 106.19 1652.26 109.617L1653.57 110.349L1654.88 111.082C1656.54 108.117 1658.82 105.773 1661.75 104.032L1660.99 102.743ZM1653.57 110.349L1652.27 109.609C1650.34 112.999 1649.37 116.766 1649.32 120.88L1650.82 120.896L1652.32 120.913C1652.36 117.271 1653.22 114.007 1654.87 111.09L1653.57 110.349ZM1650.82 120.896H1649.32V136.94H1650.82H1652.32V120.896H1650.82ZM1650.82 136.94H1649.32C1649.32 141.981 1650.25 146.421 1652.17 150.21L1653.51 149.533L1654.84 148.855C1653.18 145.571 1652.32 141.615 1652.32 136.94H1650.82ZM1653.51 149.533L1652.17 150.223C1654.13 154.004 1656.91 156.947 1660.49 159.014L1661.24 157.714L1661.99 156.415C1658.92 154.646 1656.54 152.135 1654.84 148.843L1653.51 149.533ZM1661.24 157.714L1660.49 159.014C1664.08 161.086 1668.29 162.091 1673.07 162.091V160.591V159.091C1668.72 159.091 1665.05 158.179 1661.99 156.415L1661.24 157.714ZM1673.07 160.591V162.091C1676.23 162.091 1679.17 161.645 1681.86 160.733L1681.38 159.312L1680.89 157.892C1678.56 158.685 1675.95 159.091 1673.07 159.091V160.591ZM1681.38 159.312L1681.86 160.733C1684.56 159.816 1686.91 158.429 1688.87 156.563L1687.83 155.477L1686.8 154.391C1685.18 155.934 1683.22 157.104 1680.89 157.892L1681.38 159.312ZM1687.83 155.477L1688.87 156.563C1690.83 154.693 1692.31 152.412 1693.33 149.745L1691.92 149.213L1690.52 148.681C1689.66 150.958 1688.41 152.852 1686.8 154.391L1687.83 155.477ZM1691.92 149.213L1691.82 150.71L1717.01 152.372L1717.11 150.875L1717.21 149.378L1692.02 147.716L1691.92 149.213ZM1717.11 150.875L1715.64 150.565C1714.41 156.372 1711.91 161.42 1708.12 165.738L1709.25 166.727L1710.37 167.717C1714.51 163 1717.24 157.48 1718.57 151.185L1717.11 150.875ZM1709.25 166.727L1708.12 165.739C1704.37 170.015 1699.5 173.382 1693.47 175.819L1694.03 177.21L1694.59 178.601C1701.01 176.01 1706.28 172.388 1710.37 167.716L1709.25 166.727ZM1694.03 177.21L1693.47 175.818C1687.51 178.205 1680.56 179.418 1672.62 179.418V180.918V182.418C1680.87 182.418 1688.2 181.159 1694.59 178.603L1694.03 177.21ZM1732.45 179H1730.95V180.5H1732.45V179ZM1732.45 80.8182V79.3182H1730.95V80.8182H1732.45ZM1758.85 80.8182H1760.35V79.3182H1758.85V80.8182ZM1758.85 97.9489H1757.35V99.4489H1758.85V97.9489ZM1759.87 97.9489V99.4489H1761L1761.31 98.3716L1759.87 97.9489ZM1768.89 84.142L1769.78 85.3493L1769.79 85.3435L1768.89 84.142ZM1787.87 79.6676L1788.03 78.1763L1787.87 79.6676ZM1792.03 80.3707H1793.53V79.1996L1792.39 78.9155L1792.03 80.3707ZM1792.03 104.533L1791.6 105.969L1793.53 106.549V104.533H1792.03ZM1769.78 105.683L1770.5 106.999L1770.51 106.995L1769.78 105.683ZM1762.37 112.842L1761.08 112.073L1761.08 112.08L1761.07 112.087L1762.37 112.842ZM1759.68 179V180.5H1761.18V179H1759.68ZM1732.45 179H1733.95V80.8182H1732.45H1730.95V179H1732.45ZM1732.45 80.8182V82.3182H1758.85V80.8182V79.3182H1732.45V80.8182ZM1758.85 80.8182H1757.35V97.9489H1758.85H1760.35V80.8182H1758.85ZM1758.85 97.9489V99.4489H1759.87V97.9489V96.4489H1758.85V97.9489ZM1759.87 97.9489L1761.31 98.3716C1763.03 92.5239 1765.87 88.2272 1769.78 85.3493L1768.89 84.142L1768 82.9348C1763.46 86.2785 1760.3 91.1863 1758.44 97.5262L1759.87 97.9489ZM1768.89 84.142L1769.79 85.3435C1773.73 82.3928 1778.27 80.9119 1783.46 80.9119V79.4119V77.9119C1777.66 77.9119 1772.48 79.5845 1767.99 82.9406L1768.89 84.142ZM1783.46 79.4119V80.9119C1784.76 80.9119 1786.18 80.9933 1787.71 81.1589L1787.87 79.6676L1788.03 78.1763C1786.41 78.001 1784.89 77.9119 1783.46 77.9119V79.4119ZM1787.87 79.6676L1787.71 81.1589C1789.24 81.324 1790.55 81.5483 1791.66 81.8259L1792.03 80.3707L1792.39 78.9155C1791.11 78.5966 1789.66 78.3521 1788.03 78.1763L1787.87 79.6676ZM1792.03 80.3707H1790.53V104.533H1792.03H1793.53V80.3707H1792.03ZM1792.03 104.533L1792.46 103.096C1791.07 102.679 1789.21 102.325 1786.92 102.023L1786.72 103.51L1786.52 104.997C1788.75 105.291 1790.43 105.619 1791.6 105.969L1792.03 104.533ZM1786.72 103.51L1786.92 102.023C1784.61 101.718 1782.47 101.562 1780.52 101.562V103.062V104.562C1782.32 104.562 1784.32 104.706 1786.52 104.997L1786.72 103.51ZM1780.52 103.062V101.562C1776.29 101.562 1772.45 102.487 1769.05 104.371L1769.78 105.683L1770.51 106.995C1773.42 105.385 1776.74 104.562 1780.52 104.562V103.062ZM1769.78 105.683L1769.06 104.368C1765.71 106.202 1763.05 108.777 1761.08 112.073L1762.37 112.842L1763.66 113.611C1765.35 110.771 1767.63 108.574 1770.5 106.999L1769.78 105.683ZM1762.37 112.842L1761.07 112.087C1759.13 115.412 1758.18 119.216 1758.18 123.453H1759.68H1761.18C1761.18 119.678 1762.02 116.409 1763.66 113.598L1762.37 112.842ZM1759.68 123.453H1758.18V179H1759.68H1761.18V123.453H1759.68ZM1759.68 179V177.5H1732.45V179V180.5H1759.68V179ZM1817.2 174.781L1816.46 176.084L1816.46 176.089L1817.2 174.781ZM1800.45 157.267L1799.12 157.956L1799.12 157.959L1800.45 157.267ZM1800.45 103.766L1799.12 103.08L1800.45 103.766ZM1817.01 85.9318L1816.24 84.6429L1816.24 84.6449L1817.01 85.9318ZM1860.28 82.6719L1859.76 84.0769L1859.77 84.0816L1860.28 82.6719ZM1874.98 91.9403L1873.93 93.0064L1873.93 93.0118L1874.98 91.9403ZM1884.83 107.537L1883.42 108.063L1883.42 108.066L1884.83 107.537ZM1888.34 136.876V138.376H1889.84V136.876H1888.34ZM1805.44 136.876H1803.94V138.376H1805.44V136.876ZM1805.44 120.001V118.501H1803.94V120.001H1805.44ZM1862.71 120.001V121.501H1864.21V120.001H1862.71ZM1860.15 109.582L1858.85 110.319V110.319L1860.15 109.582ZM1853.06 102.487L1852.3 103.782L1852.31 103.788L1852.32 103.794L1853.06 102.487ZM1831.65 102.743L1832.41 104.032L1832.42 104.029L1831.65 102.743ZM1824.23 110.349L1825.54 111.09L1825.54 111.082L1824.23 110.349ZM1821.48 120.896L1819.98 120.88L1819.98 120.888V120.896H1821.48ZM1824.17 149.533L1822.83 150.21L1822.83 150.216L1822.83 150.223L1824.17 149.533ZM1852.04 159.312L1851.55 157.892L1852.04 159.312ZM1858.49 155.477L1857.46 154.391L1858.49 155.477ZM1862.58 149.213L1862.68 147.716L1861.57 147.643L1861.18 148.681L1862.58 149.213ZM1887.77 150.875L1889.23 151.185L1889.59 149.492L1887.87 149.378L1887.77 150.875ZM1879.91 166.727L1878.78 165.738L1878.78 165.739L1879.91 166.727ZM1864.69 177.21L1865.25 178.603L1865.25 178.601L1864.69 177.21ZM1843.28 180.918V179.418C1833.38 179.418 1824.95 177.414 1817.93 173.473L1817.2 174.781L1816.46 176.089C1824.02 180.33 1832.98 182.418 1843.28 182.418V180.918ZM1817.2 174.781L1817.94 173.478C1810.95 169.491 1805.57 163.867 1801.78 156.575L1800.45 157.267L1799.12 157.959C1803.17 165.752 1808.96 171.805 1816.46 176.084L1817.2 174.781ZM1800.45 157.267L1801.78 156.578C1798 149.247 1796.07 140.522 1796.07 130.357H1794.57H1793.07C1793.07 140.901 1795.07 150.117 1799.12 157.956L1800.45 157.267ZM1794.57 130.357H1796.07C1796.07 120.453 1797.99 111.832 1801.79 104.451L1800.45 103.766L1799.12 103.08C1795.07 110.955 1793.07 120.061 1793.07 130.357H1794.57ZM1800.45 103.766L1801.79 104.451C1805.58 97.0637 1810.91 91.3312 1817.78 87.2187L1817.01 85.9318L1816.24 84.6449C1808.87 89.0552 1803.16 95.2119 1799.12 103.08L1800.45 103.766ZM1817.01 85.9318L1817.77 87.2207C1824.67 83.1179 1832.79 81.0398 1842.19 81.0398V79.5398V78.0398C1832.33 78.0398 1823.67 80.223 1816.24 84.6429L1817.01 85.9318ZM1842.19 79.5398V81.0398C1848.51 81.0398 1854.36 82.0569 1859.76 84.0768L1860.28 82.6719L1860.81 81.2669C1855.04 79.1108 1848.83 78.0398 1842.19 78.0398V79.5398ZM1860.28 82.6719L1859.77 84.0816C1865.19 86.0544 1869.91 89.0282 1873.93 93.0064L1874.98 91.9403L1876.04 90.8743C1871.71 86.5855 1866.62 83.3802 1860.79 81.2622L1860.28 82.6719ZM1874.98 91.9403L1873.93 93.0118C1877.98 96.9724 1881.15 101.977 1883.42 108.063L1884.83 107.537L1886.23 107.011C1883.82 100.569 1880.43 95.1754 1876.03 90.8689L1874.98 91.9403ZM1884.83 107.537L1883.42 108.066C1885.69 114.081 1886.84 121.182 1886.84 129.398H1888.34H1889.84C1889.84 120.909 1888.65 113.436 1886.23 107.008L1884.83 107.537ZM1888.34 129.398H1886.84V136.876H1888.34H1889.84V129.398H1888.34ZM1888.34 136.876V135.376H1805.44V136.876V138.376H1888.34V136.876ZM1805.44 136.876H1806.94V120.001H1805.44H1803.94V136.876H1805.44ZM1805.44 120.001V121.501H1862.71V120.001V118.501H1805.44V120.001ZM1862.71 120.001H1864.21C1864.21 115.857 1863.31 112.124 1861.46 108.846L1860.15 109.582L1858.85 110.319C1860.41 113.092 1861.21 116.305 1861.21 120.001H1862.71ZM1860.15 109.582L1861.46 108.846C1859.62 105.582 1857.06 103.019 1853.79 101.18L1853.06 102.487L1852.32 103.794C1855.11 105.364 1857.28 107.532 1858.85 110.319L1860.15 109.582ZM1853.06 102.487L1853.82 101.193C1850.57 99.2923 1846.83 98.3665 1842.64 98.3665V99.8665V101.366C1846.38 101.366 1849.58 102.188 1852.3 103.782L1853.06 102.487ZM1842.64 99.8665V98.3665C1838.26 98.3665 1834.33 99.3843 1830.87 101.457L1831.65 102.743L1832.42 104.029C1835.36 102.266 1838.75 101.366 1842.64 101.366V99.8665ZM1831.65 102.743L1830.88 101.454C1827.5 103.463 1824.84 106.19 1822.92 109.617L1824.23 110.349L1825.54 111.082C1827.2 108.117 1829.48 105.773 1832.41 104.032L1831.65 102.743ZM1824.23 110.349L1822.93 109.609C1821 112.999 1820.03 116.766 1819.98 120.88L1821.48 120.896L1822.98 120.913C1823.02 117.271 1823.88 114.007 1825.53 111.09L1824.23 110.349ZM1821.48 120.896H1819.98V136.94H1821.48H1822.98V120.896H1821.48ZM1821.48 136.94H1819.98C1819.98 141.981 1820.91 146.421 1822.83 150.21L1824.17 149.533L1825.5 148.855C1823.84 145.571 1822.98 141.615 1822.98 136.94H1821.48ZM1824.17 149.533L1822.83 150.223C1824.79 154.004 1827.57 156.947 1831.15 159.014L1831.9 157.714L1832.65 156.415C1829.58 154.646 1827.2 152.135 1825.5 148.843L1824.17 149.533ZM1831.9 157.714L1831.15 159.014C1834.74 161.086 1838.95 162.091 1843.73 162.091V160.591V159.091C1839.38 159.091 1835.71 158.179 1832.65 156.415L1831.9 157.714ZM1843.73 160.591V162.091C1846.89 162.091 1849.83 161.645 1852.52 160.733L1852.04 159.312L1851.55 157.892C1849.22 158.685 1846.61 159.091 1843.73 159.091V160.591ZM1852.04 159.312L1852.52 160.733C1855.22 159.816 1857.57 158.429 1859.53 156.563L1858.49 155.477L1857.46 154.391C1855.84 155.934 1853.88 157.104 1851.55 157.892L1852.04 159.312ZM1858.49 155.477L1859.53 156.563C1861.49 154.693 1862.97 152.412 1863.99 149.745L1862.58 149.213L1861.18 148.681C1860.32 150.958 1859.07 152.852 1857.46 154.391L1858.49 155.477ZM1862.58 149.213L1862.48 150.71L1887.67 152.372L1887.77 150.875L1887.87 149.378L1862.68 147.716L1862.58 149.213ZM1887.77 150.875L1886.3 150.565C1885.07 156.372 1882.57 161.42 1878.78 165.738L1879.91 166.727L1881.03 167.717C1885.17 163 1887.91 157.48 1889.23 151.185L1887.77 150.875ZM1879.91 166.727L1878.78 165.739C1875.03 170.015 1870.16 173.382 1864.13 175.819L1864.69 177.21L1865.25 178.601C1871.67 176.01 1876.94 172.388 1881.03 167.716L1879.91 166.727ZM1864.69 177.21L1864.14 175.818C1858.17 178.205 1851.22 179.418 1843.28 179.418V180.918V182.418C1851.53 182.418 1858.86 181.159 1865.25 178.603L1864.69 177.21ZM1919.03 174.845L1918.22 176.106L1918.23 176.112L1919.03 174.845ZM1904.71 157.778L1903.35 158.409L1903.35 158.418L1904.71 157.778ZM1904.9 101.976L1906.25 102.631L1906.25 102.628L1904.9 101.976ZM1919.35 85.1648L1920.14 86.4413L1920.14 86.4398L1919.35 85.1648ZM1952.97 82.3523L1952.29 83.6876L1952.3 83.6924L1952.31 83.697L1952.97 82.3523ZM1961.92 89.2557L1960.76 90.2036L1960.76 90.2134L1960.77 90.223L1961.92 89.2557ZM1967.16 97.3097L1965.79 97.927L1966.19 98.8097H1967.16V97.3097ZM1967.99 97.3097V98.8097H1969.49V97.3097H1967.99ZM1967.99 48.0909V46.5909H1966.49V48.0909H1967.99ZM1995.16 48.0909H1996.66V46.5909H1995.16V48.0909ZM1995.16 179V180.5H1996.66V179H1995.16ZM1968.31 179H1966.81V180.5H1968.31V179ZM1968.31 163.276H1969.81V161.776H1968.31V163.276ZM1967.16 163.276V161.776H1966.21L1965.8 162.639L1967.16 163.276ZM1961.73 171.393L1960.6 170.407L1960.6 170.408L1961.73 171.393ZM1952.71 177.977L1952.08 176.62L1952.07 176.623L1952.71 177.977ZM1959.04 155.349L1959.97 156.527L1959.97 156.525L1959.04 155.349ZM1966.07 145.186L1964.67 144.65L1964.67 144.662L1966.07 145.186ZM1966.14 114.696L1967.54 114.168L1966.14 114.696ZM1936.61 104.852L1935.68 103.676L1936.61 104.852ZM1929.64 145.058L1928.23 145.565L1928.23 145.574L1928.23 145.582L1929.64 145.058ZM1936.61 155.286L1935.66 156.447L1935.67 156.454L1935.68 156.462L1936.61 155.286ZM1939.29 180.598V179.098C1932.11 179.098 1925.63 177.255 1919.83 173.578L1919.03 174.845L1918.23 176.112C1924.53 180.106 1931.56 182.098 1939.29 182.098V180.598ZM1919.03 174.845L1919.84 173.585C1914.1 169.882 1909.5 164.426 1906.07 157.139L1904.71 157.778L1903.35 158.418C1906.99 166.131 1911.94 172.053 1918.22 176.105L1919.03 174.845ZM1904.71 157.778L1906.07 157.148C1902.69 149.855 1900.97 140.837 1900.97 130.037H1899.47H1897.97C1897.97 141.14 1899.74 150.616 1903.35 158.409L1904.71 157.778ZM1899.47 130.037H1900.97C1900.97 118.937 1902.76 109.825 1906.25 102.631L1904.9 101.976L1903.55 101.32C1899.8 109.042 1897.97 118.637 1897.97 130.037H1899.47ZM1904.9 101.976L1906.25 102.628C1909.77 95.3387 1914.41 89.9733 1920.14 86.4413L1919.35 85.1648L1918.56 83.8882C1912.27 87.771 1907.28 93.613 1903.55 101.324L1904.9 101.976ZM1919.35 85.1648L1920.14 86.4398C1925.95 82.8387 1932.3 81.0398 1939.23 81.0398V79.5398V78.0398C1931.75 78.0398 1924.85 79.9909 1918.56 83.8898L1919.35 85.1648ZM1939.23 79.5398V81.0398C1944.56 81.0398 1948.89 81.9509 1952.29 83.6876L1952.97 82.3523L1953.65 81.0169C1949.72 79.0036 1944.89 78.0398 1939.23 78.0398V79.5398ZM1952.97 82.3523L1952.31 83.697C1955.85 85.4491 1958.65 87.6242 1960.76 90.2036L1961.92 89.2557L1963.08 88.3078C1960.67 85.3473 1957.5 82.9202 1953.64 81.0076L1952.97 82.3523ZM1961.92 89.2557L1960.77 90.223C1963 92.8678 1964.67 95.4364 1965.79 97.927L1967.16 97.3097L1968.53 96.6923C1967.27 93.8988 1965.44 91.0982 1963.07 88.2884L1961.92 89.2557ZM1967.16 97.3097V98.8097H1967.99V97.3097V95.8097H1967.16V97.3097ZM1967.99 97.3097H1969.49V48.0909H1967.99H1966.49V97.3097H1967.99ZM1967.99 48.0909V49.5909H1995.16V48.0909V46.5909H1967.99V48.0909ZM1995.16 48.0909H1993.66V179H1995.16H1996.66V48.0909H1995.16ZM1995.16 179V177.5H1968.31V179V180.5H1995.16V179ZM1968.31 179H1969.81V163.276H1968.31H1966.81V179H1968.31ZM1968.31 163.276V161.776H1967.16V163.276V164.776H1968.31V163.276ZM1967.16 163.276L1965.8 162.639C1964.59 165.219 1962.87 167.809 1960.6 170.407L1961.73 171.393L1962.86 172.38C1965.28 169.609 1967.17 166.787 1968.52 163.912L1967.16 163.276ZM1961.73 171.393L1960.6 170.408C1958.45 172.869 1955.63 174.947 1952.08 176.62L1952.71 177.977L1953.35 179.334C1957.22 177.513 1960.4 175.202 1962.86 172.379L1961.73 171.393ZM1952.71 177.977L1952.07 176.623C1948.66 178.25 1944.42 179.098 1939.29 179.098V180.598V182.098C1944.73 182.098 1949.44 181.199 1953.36 179.331L1952.71 177.977ZM1947.92 158.929V160.429C1952.6 160.429 1956.65 159.151 1959.97 156.527L1959.04 155.349L1958.11 154.172C1955.39 156.321 1952.02 157.429 1947.92 157.429V158.929ZM1959.04 155.349L1959.97 156.525C1963.29 153.897 1965.78 150.265 1967.48 145.71L1966.07 145.186L1964.67 144.662C1963.13 148.8 1960.93 151.944 1958.11 154.173L1959.04 155.349ZM1966.07 145.186L1967.48 145.722C1969.22 141.167 1970.07 135.885 1970.07 129.909H1968.57H1967.07C1967.07 135.609 1966.26 140.512 1964.67 144.65L1966.07 145.186ZM1968.57 129.909H1970.07C1970.07 123.937 1969.24 118.679 1967.54 114.168L1966.14 114.696L1964.73 115.224C1966.28 119.321 1967.07 124.205 1967.07 129.909H1968.57ZM1966.14 114.696L1967.54 114.168C1965.84 109.652 1963.35 106.077 1960.02 103.532L1959.11 104.724L1958.2 105.916C1961 108.059 1963.19 111.133 1964.73 115.224L1966.14 114.696ZM1959.11 104.724L1960.02 103.532C1956.65 100.962 1952.59 99.7088 1947.92 99.7088V101.209V102.709C1952.03 102.709 1955.42 103.799 1958.2 105.916L1959.11 104.724ZM1947.92 101.209V99.7088C1943.16 99.7088 1939.05 101.008 1935.68 103.676L1936.61 104.852L1937.54 106.028C1940.3 103.839 1943.73 102.709 1947.92 102.709V101.209ZM1936.61 104.852L1935.68 103.676C1932.36 106.305 1929.89 109.917 1928.23 114.436L1929.64 114.952L1931.05 115.468C1932.55 111.378 1934.72 108.258 1937.54 106.028L1936.61 104.852ZM1929.64 114.952L1928.23 114.436C1926.58 118.939 1925.77 124.106 1925.77 129.909H1927.27H1928.77C1928.77 124.377 1929.54 119.572 1931.05 115.468L1929.64 114.952ZM1927.27 129.909H1925.77C1925.77 135.755 1926.58 140.982 1928.23 145.565L1929.64 145.058L1931.05 144.551C1929.54 140.356 1928.77 135.484 1928.77 129.909H1927.27ZM1929.64 145.058L1928.23 145.582C1929.93 150.131 1932.39 153.778 1935.66 156.447L1936.61 155.286L1937.56 154.124C1934.77 151.85 1932.59 148.679 1931.05 144.535L1929.64 145.058ZM1936.61 155.286L1935.68 156.462C1939.05 159.13 1943.16 160.429 1947.92 160.429V158.929V157.429C1943.73 157.429 1940.3 156.299 1937.54 154.109L1936.61 155.286Z" fill="white" mask="url(#path-2-outside-1_2452_11934)"/>
</svg>
