<svg viewBox="0 0 1920 228" fill="none" xmlns="http://www.w3.org/2000/svg">
<mask id="path-1-outside-1_2452_11960" maskUnits="userSpaceOnUse" x="-104.925" y="39" width="1009" height="181" fill="black">
<rect fill="white" x="-104.925" y="39" width="1009" height="181"/>
<path d="M-102.547 179V48.0909H-50.8992C-41.0129 48.0909 -32.5754 49.8594 -25.5867 53.3963C-18.5555 56.8906 -13.2075 61.8551 -9.5427 68.2898C-5.83531 74.6818 -3.98162 82.2031 -3.98162 90.8537C-3.98162 99.5469 -5.85662 107.026 -9.60662 113.29C-13.3566 119.511 -18.7899 124.284 -25.9063 127.608C-32.9802 130.932 -41.5455 132.594 -51.6024 132.594H-86.1833V110.349H-56.0768C-50.7927 110.349 -46.4035 109.625 -42.9092 108.176C-39.4149 106.727 -36.8154 104.554 -35.1109 101.656C-33.3637 98.7585 -32.4901 95.1577 -32.4901 90.8537C-32.4901 86.5071 -33.3637 82.8423 -35.1109 79.8594C-36.8154 76.8764 -39.4362 74.6179 -42.9731 73.0838C-46.4674 71.5071 -50.8779 70.7188 -56.2046 70.7188H-74.8694V179H-102.547ZM-31.8509 119.426L0.68457 179H-29.8694L-61.7018 119.426H-31.8509ZM55.229 180.918C45.1295 180.918 36.4363 178.872 29.1494 174.781C21.9051 170.648 16.3227 164.81 12.4023 157.267C8.4818 149.682 6.52157 140.712 6.52157 130.357C6.52157 120.257 8.4818 111.393 12.4023 103.766C16.3227 96.1378 21.8412 90.1932 28.9577 85.9318C36.1167 81.6705 44.5116 79.5398 54.1423 79.5398C60.6196 79.5398 66.6494 80.5838 72.2318 82.6719C77.8568 84.7173 82.7574 87.8068 86.9335 91.9403C91.1523 96.0739 94.4335 101.273 96.7773 107.537C99.121 113.759 100.293 121.045 100.293 129.398V136.876H17.3881V120.001H74.6608C74.6608 116.081 73.8085 112.608 72.104 109.582C70.3994 106.557 68.0344 104.192 65.0088 102.487C62.0258 100.74 58.5528 99.8665 54.5898 99.8665C50.4562 99.8665 46.7915 100.825 43.5954 102.743C40.442 104.618 37.9704 107.153 36.1807 110.349C34.3909 113.503 33.4747 117.018 33.4321 120.896V136.94C33.4321 141.798 34.327 145.996 36.1167 149.533C37.9491 153.07 40.5273 155.797 43.8511 157.714C47.175 159.632 51.1167 160.591 55.6764 160.591C58.702 160.591 61.4719 160.165 63.9861 159.312C66.5003 158.46 68.6523 157.182 70.442 155.477C72.2318 153.773 73.5954 151.685 74.5329 149.213L99.7176 150.875C98.4392 156.926 95.8185 162.21 91.8554 166.727C87.9349 171.202 82.8639 174.696 76.6423 177.21C70.4633 179.682 63.3256 180.918 55.229 180.918ZM159.424 180.918C149.367 180.918 140.716 178.787 133.472 174.526C126.27 170.222 120.73 164.256 116.853 156.628C113.017 149 111.1 140.222 111.1 130.293C111.1 120.236 113.039 111.415 116.916 103.83C120.837 96.2017 126.398 90.2571 133.6 85.9957C140.801 81.6918 149.367 79.5398 159.296 79.5398C167.861 79.5398 175.361 81.0952 181.796 84.206C188.23 87.3168 193.323 91.6847 197.073 97.3097C200.823 102.935 202.889 109.54 203.273 117.125H177.577C176.853 112.224 174.935 108.283 171.824 105.3C168.756 102.274 164.729 100.761 159.743 100.761C155.524 100.761 151.838 101.912 148.685 104.213C145.574 106.472 143.145 109.774 141.398 114.121C139.651 118.467 138.777 123.73 138.777 129.909C138.777 136.173 139.63 141.5 141.334 145.889C143.081 150.278 145.532 153.624 148.685 155.925C151.838 158.226 155.524 159.376 159.743 159.376C162.854 159.376 165.645 158.737 168.117 157.459C170.631 156.18 172.698 154.327 174.317 151.898C175.979 149.426 177.066 146.464 177.577 143.013H203.273C202.847 150.513 200.801 157.118 197.137 162.828C193.514 168.496 188.507 172.928 182.115 176.124C175.723 179.32 168.159 180.918 159.424 180.918ZM262.068 180.918C252.139 180.918 243.552 178.808 236.308 174.589C229.106 170.328 223.545 164.405 219.625 156.82C215.704 149.192 213.744 140.349 213.744 130.293C213.744 120.151 215.704 111.287 219.625 103.702C223.545 96.0739 229.106 90.1506 236.308 85.9318C243.552 81.6705 252.139 79.5398 262.068 79.5398C271.997 79.5398 280.562 81.6705 287.764 85.9318C295.008 90.1506 300.591 96.0739 304.511 103.702C308.432 111.287 310.392 120.151 310.392 130.293C310.392 140.349 308.432 149.192 304.511 156.82C300.591 164.405 295.008 170.328 287.764 174.589C280.562 178.808 271.997 180.918 262.068 180.918ZM262.196 159.824C266.713 159.824 270.484 158.545 273.51 155.989C276.535 153.389 278.815 149.852 280.349 145.378C281.926 140.903 282.714 135.811 282.714 130.101C282.714 124.391 281.926 119.298 280.349 114.824C278.815 110.349 276.535 106.812 273.51 104.213C270.484 101.614 266.713 100.314 262.196 100.314C257.636 100.314 253.801 101.614 250.69 104.213C247.622 106.812 245.3 110.349 243.723 114.824C242.189 119.298 241.422 124.391 241.422 130.101C241.422 135.811 242.189 140.903 243.723 145.378C245.3 149.852 247.622 153.389 250.69 155.989C253.801 158.545 257.636 159.824 262.196 159.824ZM369.331 217.864C360.51 217.864 352.946 216.649 346.639 214.22C340.375 211.834 335.389 208.574 331.682 204.44C327.974 200.307 325.567 195.662 324.459 190.506L349.643 187.118C350.41 189.078 351.625 190.911 353.287 192.615C354.949 194.32 357.143 195.683 359.871 196.706C362.641 197.771 366.007 198.304 369.97 198.304C375.893 198.304 380.773 196.855 384.608 193.957C388.486 191.102 390.425 186.308 390.425 179.575V161.614H389.274C388.081 164.341 386.291 166.919 383.905 169.348C381.518 171.777 378.45 173.759 374.7 175.293C370.95 176.827 366.476 177.594 361.277 177.594C353.905 177.594 347.193 175.889 341.142 172.48C335.133 169.028 330.339 163.766 326.76 156.692C323.223 149.575 321.454 140.584 321.454 129.717C321.454 118.595 323.266 109.305 326.888 101.848C330.51 94.3906 335.325 88.8082 341.334 85.1009C347.385 81.3935 354.011 79.5398 361.213 79.5398C366.71 79.5398 371.312 80.4773 375.02 82.3523C378.727 84.1847 381.71 86.4858 383.969 89.2557C386.27 91.983 388.038 94.6676 389.274 97.3097H390.297V80.8182H417.335V179.959C417.335 188.311 415.29 195.3 411.199 200.925C407.108 206.55 401.44 210.768 394.196 213.581C386.994 216.436 378.706 217.864 369.331 217.864ZM369.906 157.139C374.295 157.139 378.003 156.053 381.028 153.879C384.097 151.663 386.44 148.51 388.06 144.419C389.722 140.286 390.552 135.342 390.552 129.589C390.552 123.837 389.743 118.851 388.123 114.632C386.504 110.371 384.16 107.068 381.092 104.724C378.024 102.381 374.295 101.209 369.906 101.209C365.432 101.209 361.66 102.423 358.592 104.852C355.524 107.239 353.202 110.562 351.625 114.824C350.048 119.085 349.26 124.007 349.26 129.589C349.26 135.257 350.048 140.158 351.625 144.291C353.244 148.382 355.567 151.557 358.592 153.815C361.66 156.031 365.432 157.139 369.906 157.139ZM463.234 122.239V179H436.004V80.8182H461.956V98.1406H463.106C465.28 92.4304 468.923 87.9133 474.037 84.5895C479.15 81.223 485.351 79.5398 492.638 79.5398C499.456 79.5398 505.4 81.0312 510.472 84.0142C515.543 86.9972 519.484 91.2585 522.297 96.7983C525.109 102.295 526.516 108.858 526.516 116.486V179H499.285V121.344C499.328 115.335 497.794 110.648 494.683 107.281C491.572 103.872 487.29 102.168 481.835 102.168C478.17 102.168 474.932 102.956 472.119 104.533C469.349 106.109 467.176 108.411 465.599 111.436C464.065 114.419 463.277 118.02 463.234 122.239ZM544.977 179V80.8182H572.207V179H544.977ZM558.656 68.1619C554.608 68.1619 551.134 66.8196 548.237 64.1349C545.382 61.4077 543.954 58.1477 543.954 54.3551C543.954 50.6051 545.382 47.3878 548.237 44.7031C551.134 41.9758 554.608 40.6122 558.656 40.6122C562.704 40.6122 566.156 41.9758 569.011 44.7031C571.909 47.3878 573.358 50.6051 573.358 54.3551C573.358 58.1477 571.909 61.4077 569.011 64.1349C566.156 66.8196 562.704 68.1619 558.656 68.1619ZM643.243 80.8182V101.273H584.116V80.8182H643.243ZM597.54 57.2955H624.77V148.83C624.77 151.344 625.153 153.304 625.92 154.71C626.687 156.074 627.753 157.033 629.116 157.587C630.523 158.141 632.142 158.418 633.974 158.418C635.253 158.418 636.531 158.311 637.81 158.098C639.088 157.842 640.068 157.651 640.75 157.523L645.033 177.786C643.669 178.212 641.751 178.702 639.28 179.256C636.808 179.852 633.804 180.214 630.267 180.342C623.704 180.598 617.952 179.724 613.008 177.722C608.108 175.719 604.294 172.608 601.567 168.389C598.839 164.17 597.497 158.844 597.54 152.409V57.2955ZM657.981 179V80.8182H685.211V179H657.981ZM671.66 68.1619C667.611 68.1619 664.138 66.8196 661.241 64.1349C658.386 61.4077 656.958 58.1477 656.958 54.3551C656.958 50.6051 658.386 47.3878 661.241 44.7031C664.138 41.9758 667.611 40.6122 671.66 40.6122C675.708 40.6122 679.16 41.9758 682.015 44.7031C684.913 47.3878 686.361 50.6051 686.361 54.3551C686.361 58.1477 684.913 61.4077 682.015 64.1349C679.16 66.8196 675.708 68.1619 671.66 68.1619ZM748.385 180.918C738.456 180.918 729.869 178.808 722.625 174.589C715.423 170.328 709.862 164.405 705.941 156.82C702.021 149.192 700.061 140.349 700.061 130.293C700.061 120.151 702.021 111.287 705.941 103.702C709.862 96.0739 715.423 90.1506 722.625 85.9318C729.869 81.6705 738.456 79.5398 748.385 79.5398C758.313 79.5398 766.879 81.6705 774.081 85.9318C781.325 90.1506 786.907 96.0739 790.828 103.702C794.748 111.287 796.708 120.151 796.708 130.293C796.708 140.349 794.748 149.192 790.828 156.82C786.907 164.405 781.325 170.328 774.081 174.589C766.879 178.808 758.313 180.918 748.385 180.918ZM748.512 159.824C753.029 159.824 756.801 158.545 759.826 155.989C762.852 153.389 765.132 149.852 766.666 145.378C768.242 140.903 769.031 135.811 769.031 130.101C769.031 124.391 768.242 119.298 766.666 114.824C765.132 110.349 762.852 106.812 759.826 104.213C756.801 101.614 753.029 100.314 748.512 100.314C743.953 100.314 740.117 101.614 737.007 104.213C733.938 106.812 731.616 110.349 730.039 114.824C728.505 119.298 727.738 124.391 727.738 130.101C727.738 135.811 728.505 140.903 730.039 145.378C731.616 149.852 733.938 153.389 737.007 155.989C740.117 158.545 743.953 159.824 748.512 159.824ZM838.644 122.239V179H811.414V80.8182H837.366V98.1406H838.517C840.69 92.4304 844.333 87.9133 849.447 84.5895C854.561 81.223 860.761 79.5398 868.048 79.5398C874.866 79.5398 880.811 81.0312 885.882 84.0142C890.953 86.9972 894.894 91.2585 897.707 96.7983C900.519 102.295 901.926 108.858 901.926 116.486V179H874.696V121.344C874.738 115.335 873.204 110.648 870.093 107.281C866.983 103.872 862.7 102.168 857.245 102.168C853.581 102.168 850.342 102.956 847.529 104.533C844.76 106.109 842.586 108.411 841.01 111.436C839.475 114.419 838.687 118.02 838.644 122.239Z"/>
</mask>
<path d="M-102.547 179H-104.047V180.5H-102.547V179ZM-102.547 48.0909V46.5909H-104.047V48.0909H-102.547ZM-25.5867 53.3963L-26.2641 54.7347L-26.2543 54.7396L-25.5867 53.3963ZM-9.5427 68.2898L-10.8462 69.0321L-10.8402 69.0424L-9.5427 68.2898ZM-9.60661 113.29L-8.32192 114.064L-8.3196 114.06L-9.60661 113.29ZM-25.9063 127.608L-26.5411 126.249L-26.5442 126.25L-25.9063 127.608ZM-86.1833 132.594H-87.6833V134.094H-86.1833V132.594ZM-86.1833 110.349V108.849H-87.6833V110.349H-86.1833ZM-42.9092 108.176L-42.3347 109.562L-42.9092 108.176ZM-35.1109 101.656L-36.3955 100.882L-36.3997 100.889L-36.4038 100.896L-35.1109 101.656ZM-35.1109 79.8594L-36.4132 80.6036L-36.4093 80.6106L-36.4052 80.6175L-35.1109 79.8594ZM-42.9731 73.0838L-43.59 74.4511L-43.58 74.4556L-43.57 74.4599L-42.9731 73.0838ZM-74.8694 70.7188V69.2188H-76.3694V70.7188H-74.8694ZM-74.8694 179V180.5H-73.3694V179H-74.8694ZM-31.8509 119.426L-30.5345 118.707L-30.961 117.926H-31.8509V119.426ZM0.68457 179V180.5H3.2129L2.00104 178.281L0.68457 179ZM-29.8694 179L-31.1924 179.707L-30.7686 180.5H-29.8694V179ZM-61.7018 119.426V117.926H-64.204L-63.0248 120.133L-61.7018 119.426ZM-102.547 179H-101.047V48.0909H-102.547H-104.047V179H-102.547ZM-102.547 48.0909V49.5909H-50.8992V48.0909V46.5909H-102.547V48.0909ZM-50.8992 48.0909V49.5909C-41.1881 49.5909 -32.9949 51.3282 -26.2641 54.7347L-25.5867 53.3963L-24.9094 52.0579C-32.1558 48.3906 -40.8377 46.5909 -50.8992 46.5909V48.0909ZM-25.5867 53.3963L-26.2543 54.7396C-19.4731 58.1096 -14.3543 62.8725 -10.8461 69.0321L-9.5427 68.2898L-8.23928 67.5474C-12.0607 60.8377 -17.6379 55.6716 -24.9192 52.053L-25.5867 53.3963ZM-9.5427 68.2898L-10.8402 69.0424C-7.28658 75.1694 -5.48161 82.4219 -5.48161 90.8537H-3.98161H-2.48161C-2.48161 81.9843 -4.38404 74.1943 -8.24516 67.5372L-9.5427 68.2898ZM-3.98161 90.8537H-5.48161C-5.48161 99.3276 -7.30753 106.529 -10.8936 112.519L-9.60661 113.29L-8.3196 114.06C-4.4057 107.522 -2.48161 99.7661 -2.48161 90.8537H-3.98161ZM-9.60661 113.29L-10.8913 112.515C-14.4749 118.461 -19.6716 123.04 -26.5411 126.249L-25.9063 127.608L-25.2716 128.967C-17.9081 125.528 -12.2383 120.562 -8.32193 114.064L-9.60661 113.29ZM-25.9063 127.608L-26.5442 126.25C-33.3699 129.458 -41.7051 131.094 -51.6024 131.094V132.594V134.094C-41.3859 134.094 -32.5905 132.406 -25.2684 128.966L-25.9063 127.608ZM-51.6024 132.594V131.094H-86.1833V132.594V134.094H-51.6024V132.594ZM-86.1833 132.594H-84.6833V110.349H-86.1833H-87.6833V132.594H-86.1833ZM-86.1833 110.349V111.849H-56.0768V110.349V108.849H-86.1833V110.349ZM-56.0768 110.349V111.849C-50.6683 111.849 -46.068 111.11 -42.3347 109.562L-42.9092 108.176L-43.4837 106.791C-46.739 108.14 -50.9171 108.849 -56.0768 108.849V110.349ZM-42.9092 108.176L-42.3347 109.562C-38.5789 108.004 -35.7082 105.63 -33.818 102.417L-35.1109 101.656L-36.4038 100.896C-37.9227 103.478 -40.2508 105.45 -43.4837 106.791L-42.9092 108.176ZM-35.1109 101.656L-33.8263 102.431C-31.9047 99.2437 -30.9901 95.3574 -30.9901 90.8537H-32.4901H-33.9901C-33.9901 94.9579 -34.8228 98.2734 -36.3955 100.882L-35.1109 101.656ZM-32.4901 90.8537H-30.9901C-30.9901 86.3083 -31.9042 82.3663 -33.8166 79.1013L-35.1109 79.8594L-36.4052 80.6175C-34.8233 83.3184 -33.9901 86.7059 -33.9901 90.8537H-32.4901ZM-35.1109 79.8594L-33.8085 79.1152C-35.6933 75.8169 -38.5801 73.3542 -42.3762 71.7077L-42.9731 73.0838L-43.57 74.4599C-40.2922 75.8816 -37.9376 77.936 -36.4132 80.6036L-35.1109 79.8594ZM-42.9731 73.0838L-42.3562 71.7165C-46.1044 70.0253 -50.7427 69.2188 -56.2046 69.2188V70.7188V72.2188C-51.0131 72.2188 -46.8304 72.9889 -43.59 74.4511L-42.9731 73.0838ZM-56.2046 70.7188V69.2188H-74.8694V70.7188V72.2188H-56.2046V70.7188ZM-74.8694 70.7188H-76.3694V179H-74.8694H-73.3694V70.7188H-74.8694ZM-74.8694 179V177.5H-102.547V179V180.5H-74.8694V179ZM-31.8509 119.426L-33.1674 120.145L-0.631897 179.719L0.68457 179L2.00104 178.281L-30.5345 118.707L-31.8509 119.426ZM0.68457 179V177.5H-29.8694V179V180.5H0.68457V179ZM-29.8694 179L-28.5464 178.293L-60.3788 118.719L-61.7018 119.426L-63.0248 120.133L-31.1924 179.707L-29.8694 179ZM-61.7018 119.426V120.926H-31.8509V119.426V117.926H-61.7018V119.426ZM29.1494 174.781L28.406 176.084L28.4151 176.089L29.1494 174.781ZM12.4023 157.267L11.0697 157.956L11.0713 157.959L12.4023 157.267ZM12.4023 103.766L11.0682 103.08L12.4023 103.766ZM28.9577 85.9318L28.1904 84.6429L28.187 84.6449L28.9577 85.9318ZM72.2318 82.6719L71.7063 84.0769L71.7192 84.0816L72.2318 82.6719ZM86.9335 91.9403L85.8783 93.0064L85.8837 93.0118L86.9335 91.9403ZM96.7773 107.537L95.3724 108.063L95.3736 108.066L96.7773 107.537ZM100.293 136.876V138.376H101.793V136.876H100.293ZM17.388 136.876H15.888V138.376H17.388V136.876ZM17.388 120.001V118.501H15.888V120.001H17.388ZM74.6608 120.001V121.501H76.1608V120.001H74.6608ZM72.104 109.582L70.7971 110.319V110.319L72.104 109.582ZM65.0088 102.487L64.2507 103.782L64.2616 103.788L64.2725 103.794L65.0088 102.487ZM43.5954 102.743L44.3621 104.032L44.3672 104.029L43.5954 102.743ZM36.1807 110.349L37.4852 111.09L37.4894 111.082L36.1807 110.349ZM33.4321 120.896L31.9322 120.88L31.9321 120.888V120.896H33.4321ZM36.1167 149.533L34.7784 150.21L34.7816 150.216L34.7849 150.223L36.1167 149.533ZM63.9861 159.312L63.5045 157.892L63.9861 159.312ZM70.442 155.477L69.4075 154.391L70.442 155.477ZM74.5329 149.213L74.6317 147.716L73.5241 147.643L73.1304 148.681L74.5329 149.213ZM99.7176 150.875L101.185 151.185L101.543 149.492L99.8164 149.378L99.7176 150.875ZM91.8554 166.727L90.7278 165.738L90.7272 165.739L91.8554 166.727ZM76.6423 177.21L77.1994 178.603L77.2043 178.601L76.6423 177.21ZM55.229 180.918V179.418C45.3333 179.418 36.904 177.414 29.8837 173.473L29.1494 174.781L28.4151 176.089C35.9687 180.33 44.9258 182.418 55.229 182.418V180.918ZM29.1494 174.781L29.8928 173.478C22.9041 169.491 17.5233 163.867 13.7332 156.575L12.4023 157.267L11.0713 157.959C15.1221 165.752 20.9061 171.805 28.406 176.084L29.1494 174.781ZM12.4023 157.267L13.7348 156.578C9.9454 149.247 8.02158 140.522 8.02158 130.357H6.52158H5.02158C5.02158 140.901 7.0182 150.117 11.0697 157.956L12.4023 157.267ZM6.52158 130.357H8.02158C8.02158 120.453 9.94273 111.832 13.7364 104.451L12.4023 103.766L11.0682 103.08C7.02087 110.955 5.02158 120.061 5.02158 130.357H6.52158ZM12.4023 103.766L13.7364 104.451C17.5334 97.0637 22.8605 91.3312 29.7283 87.2187L28.9577 85.9318L28.187 84.6449C20.8219 89.0552 15.1121 95.2119 11.0682 103.08L12.4023 103.766ZM28.9577 85.9318L29.7249 87.2207C36.6177 83.1179 44.739 81.0398 54.1423 81.0398V79.5398V78.0398C44.2843 78.0398 35.6158 80.223 28.1904 84.6429L28.9577 85.9318ZM54.1423 79.5398V81.0398C60.4557 81.0398 66.306 82.0569 71.7063 84.0768L72.2318 82.6719L72.7573 81.2669C66.9928 79.1108 60.7834 78.0398 54.1423 78.0398V79.5398ZM72.2318 82.6719L71.7192 84.0816C77.1445 86.0544 81.859 89.0282 85.8783 93.0064L86.9335 91.9403L87.9887 90.8743C83.6557 86.5855 78.5691 83.3802 72.7444 81.2622L72.2318 82.6719ZM86.9335 91.9403L85.8837 93.0118C89.926 96.9724 93.0954 101.977 95.3724 108.063L96.7773 107.537L98.1821 107.011C95.7716 100.569 92.3785 95.1754 87.9833 90.8689L86.9335 91.9403ZM96.7773 107.537L95.3736 108.066C97.6396 114.081 98.7929 121.182 98.7929 129.398H100.293H101.793C101.793 120.909 100.602 113.436 98.181 107.008L96.7773 107.537ZM100.293 129.398H98.7929V136.876H100.293H101.793V129.398H100.293ZM100.293 136.876V135.376H17.388V136.876V138.376H100.293V136.876ZM17.388 136.876H18.888V120.001H17.388H15.888V136.876H17.388ZM17.388 120.001V121.501H74.6608V120.001V118.501H17.388V120.001ZM74.6608 120.001H76.1608C76.1608 115.857 75.2576 112.124 73.4108 108.846L72.104 109.582L70.7971 110.319C72.3594 113.092 73.1608 116.305 73.1608 120.001H74.6608ZM72.104 109.582L73.4108 108.846C71.5718 105.582 69.0094 103.019 65.7451 101.18L65.0088 102.487L64.2725 103.794C67.0593 105.364 69.2271 107.532 70.7971 110.319L72.104 109.582ZM65.0088 102.487L65.7669 101.193C62.522 99.2923 58.7797 98.3665 54.5898 98.3665V99.8665V101.366C58.326 101.366 61.5296 102.188 64.2507 103.782L65.0088 102.487ZM54.5898 99.8665V98.3665C50.2148 98.3665 46.2777 99.3843 42.8237 101.457L43.5954 102.743L44.3672 104.029C47.3053 102.266 50.6976 101.366 54.5898 101.366V99.8665ZM43.5954 102.743L42.8288 101.454C39.4493 103.463 36.7906 106.19 34.8719 109.617L36.1807 110.349L37.4894 111.082C39.1503 108.117 41.4347 105.773 44.362 104.032L43.5954 102.743ZM36.1807 110.349L34.8761 109.609C32.9523 112.999 31.9774 116.766 31.9322 120.88L33.4321 120.896L34.932 120.913C34.972 117.271 35.8295 114.007 37.4852 111.09L36.1807 110.349ZM33.4321 120.896H31.9321V136.94H33.4321H34.9321V120.896H33.4321ZM33.4321 136.94H31.9321C31.9321 141.981 32.861 146.421 34.7784 150.21L36.1167 149.533L37.4551 148.855C35.7929 145.571 34.9321 141.615 34.9321 136.94H33.4321ZM36.1167 149.533L34.7849 150.223C36.7439 154.004 39.5196 156.947 43.1015 159.014L43.8511 157.714L44.6007 156.415C41.5349 154.646 39.1544 152.135 37.4486 148.843L36.1167 149.533ZM43.8511 157.714L43.1015 159.014C46.6929 161.086 50.9033 162.091 55.6764 162.091V160.591V159.091C51.3302 159.091 47.6571 158.179 44.6007 156.415L43.8511 157.714ZM55.6764 160.591V162.091C58.8432 162.091 61.7783 161.645 64.4676 160.733L63.9861 159.312L63.5045 157.892C61.1654 158.685 58.5607 159.091 55.6764 159.091V160.591ZM63.9861 159.312L64.4676 160.733C67.1727 159.816 69.5174 158.429 71.4765 156.563L70.442 155.477L69.4075 154.391C67.7871 155.934 65.8279 157.104 63.5045 157.892L63.9861 159.312ZM70.442 155.477L71.4765 156.563C73.44 154.693 74.924 152.412 75.9354 149.745L74.5329 149.213L73.1304 148.681C72.2669 150.958 71.0236 152.852 69.4075 154.391L70.442 155.477ZM74.5329 149.213L74.4342 150.71L99.6188 152.372L99.7176 150.875L99.8164 149.378L74.6317 147.716L74.5329 149.213ZM99.7176 150.875L98.25 150.565C97.0232 156.372 94.5161 161.42 90.7278 165.738L91.8554 166.727L92.9829 167.717C97.1208 163 99.8552 157.48 101.185 151.185L99.7176 150.875ZM91.8554 166.727L90.7272 165.739C86.9802 170.015 82.1124 173.382 76.0803 175.819L76.6423 177.21L77.2043 178.601C83.6154 176.01 88.8896 172.388 92.9836 167.716L91.8554 166.727ZM76.6423 177.21L76.0852 175.818C70.1173 178.205 63.1749 179.418 55.229 179.418V180.918V182.418C63.4762 182.418 70.8094 181.159 77.1994 178.603L76.6423 177.21ZM133.472 174.526L132.702 175.813L132.711 175.818L133.472 174.526ZM116.853 156.628L115.512 157.302L115.515 157.308L116.853 156.628ZM116.916 103.83L115.582 103.144L115.581 103.147L116.916 103.83ZM133.6 85.9957L134.364 87.2867L134.369 87.2833L133.6 85.9957ZM181.796 84.206L182.449 82.8555L181.796 84.206ZM203.273 117.125V118.625H204.851L204.771 117.049L203.273 117.125ZM177.577 117.125L176.093 117.344L176.282 118.625H177.577V117.125ZM171.824 105.3L170.771 106.368L170.778 106.375L170.786 106.382L171.824 105.3ZM148.685 104.213L149.566 105.427L149.569 105.425L148.685 104.213ZM141.334 145.889L139.936 146.432L139.94 146.444L141.334 145.889ZM148.685 155.925L149.569 154.713L148.685 155.925ZM168.117 157.459L167.437 156.122L167.428 156.126L168.117 157.459ZM174.317 151.898L173.072 151.061L173.069 151.066L174.317 151.898ZM177.577 143.013V141.513H176.283L176.093 142.793L177.577 143.013ZM203.273 143.013L204.771 143.098L204.861 141.513H203.273V143.013ZM197.137 162.828L195.874 162.018L195.873 162.02L197.137 162.828ZM182.115 176.124L181.445 174.782L182.115 176.124ZM159.424 180.918V179.418C149.581 179.418 141.205 177.334 134.232 173.233L133.472 174.526L132.711 175.818C140.228 180.24 149.152 182.418 159.424 182.418V180.918ZM133.472 174.526L134.241 173.238C127.287 169.082 121.942 163.329 118.19 155.948L116.853 156.628L115.515 157.308C119.519 165.182 125.253 171.361 132.702 175.813L133.472 174.526ZM116.853 156.628L118.193 155.954C114.478 148.567 112.6 140.026 112.6 130.293H111.1H109.6C109.6 140.417 111.556 149.433 115.512 157.302L116.853 156.628ZM111.1 130.293H112.6C112.6 120.431 114.5 111.851 118.252 104.512L116.916 103.83L115.581 103.147C111.577 110.978 109.6 120.041 109.6 130.293H111.1ZM116.916 103.83L118.251 104.515C122.045 97.1322 127.411 91.4003 134.364 87.2867L133.6 85.9957L132.836 84.7048C125.384 89.1139 119.629 95.2712 115.582 103.144L116.916 103.83ZM133.6 85.9957L134.369 87.2833C141.299 83.142 149.588 81.0398 159.296 81.0398V79.5398V78.0398C149.146 78.0398 140.304 80.2415 132.83 84.7081L133.6 85.9957ZM159.296 79.5398V81.0398C167.679 81.0398 174.948 82.5617 181.143 85.5564L181.796 84.206L182.449 82.8555C175.774 79.6287 168.043 78.0398 159.296 78.0398V79.5398ZM181.796 84.206L181.143 85.5564C187.351 88.5576 192.232 92.7524 195.825 98.1417L197.073 97.3097L198.321 96.4776C194.414 90.6169 189.11 86.0759 182.449 82.8555L181.796 84.206ZM197.073 97.3097L195.825 98.1417C199.407 103.515 201.403 109.851 201.775 117.201L203.273 117.125L204.771 117.049C204.376 109.228 202.239 102.354 198.321 96.4776L197.073 97.3097ZM203.273 117.125V115.625H177.577V117.125V118.625H203.273V117.125ZM177.577 117.125L179.061 116.906C178.295 111.727 176.248 107.464 172.862 104.217L171.824 105.3L170.786 106.382C173.621 109.101 175.41 112.722 176.093 117.344L177.577 117.125ZM171.824 105.3L172.877 104.232C169.484 100.886 165.056 99.2614 159.743 99.2614V100.761V102.261C164.402 102.261 168.028 103.663 170.771 106.368L171.824 105.3ZM159.743 100.761V99.2614C155.234 99.2614 151.232 100.498 147.801 103.001L148.685 104.213L149.569 105.425C152.445 103.326 155.815 102.261 159.743 102.261V100.761ZM148.685 104.213L147.804 102.999C144.419 105.457 141.836 109.01 140.006 113.561L141.398 114.121L142.79 114.68C144.455 110.538 146.729 107.487 149.566 105.427L148.685 104.213ZM141.398 114.121L140.006 113.561C138.169 118.133 137.277 123.596 137.277 129.909H138.777H140.277C140.277 123.864 141.133 118.802 142.79 114.68L141.398 114.121ZM138.777 129.909H137.277C137.277 136.301 138.146 141.823 139.936 146.432L141.334 145.889L142.732 145.346C141.113 141.177 140.277 136.045 140.277 129.909H138.777ZM141.334 145.889L139.94 146.444C141.77 151.04 144.375 154.637 147.801 157.136L148.685 155.925L149.569 154.713C146.688 152.611 144.392 149.517 142.728 145.334L141.334 145.889ZM148.685 155.925L147.801 157.136C151.232 159.64 155.234 160.876 159.743 160.876V159.376V157.876C155.815 157.876 152.445 156.811 149.569 154.713L148.685 155.925ZM159.743 159.376V160.876C163.065 160.876 166.097 160.192 168.806 158.791L168.117 157.459L167.428 156.126C165.193 157.282 162.643 157.876 159.743 157.876V159.376ZM168.117 157.459L168.797 158.796C171.549 157.397 173.808 155.365 175.565 152.73L174.317 151.898L173.069 151.066C171.587 153.288 169.713 154.964 167.437 156.122L168.117 157.459ZM174.317 151.898L175.562 152.735C177.368 150.049 178.522 146.868 179.061 143.233L177.577 143.013L176.093 142.793C175.609 146.061 174.59 148.804 173.072 151.061L174.317 151.898ZM177.577 143.013V144.513H203.273V143.013V141.513H177.577V143.013ZM203.273 143.013L201.775 142.928C201.362 150.198 199.385 156.548 195.874 162.018L197.137 162.828L198.399 163.638C202.218 157.688 204.331 150.828 204.771 143.098L203.273 143.013ZM197.137 162.828L195.873 162.02C192.406 167.445 187.61 171.699 181.445 174.782L182.115 176.124L182.786 177.465C189.405 174.156 194.623 169.546 198.401 163.636L197.137 162.828ZM182.115 176.124L181.445 174.782C175.302 177.853 167.977 179.418 159.424 179.418V180.918V182.418C168.341 182.418 176.145 180.786 182.786 177.465L182.115 176.124ZM236.308 174.589L235.544 175.88L235.553 175.886L236.308 174.589ZM219.625 156.82L218.291 157.505L218.292 157.508L219.625 156.82ZM219.625 103.702L220.957 104.39L220.959 104.387L219.625 103.702ZM236.308 85.9318L237.066 87.2261L237.069 87.2247L236.308 85.9318ZM287.764 85.9318L287 87.2228L287.009 87.228L287.764 85.9318ZM304.511 103.702L303.177 104.387L303.179 104.39L304.511 103.702ZM304.511 156.82L305.844 157.508L305.845 157.505L304.511 156.82ZM287.764 174.589L288.522 175.884L288.525 175.882L287.764 174.589ZM273.51 155.989L274.478 157.134L274.487 157.126L273.51 155.989ZM280.349 145.378L278.935 144.879L278.93 144.891L280.349 145.378ZM280.349 114.824L278.93 115.31L278.935 115.322L280.349 114.824ZM250.69 104.213L249.728 103.062L249.721 103.069L250.69 104.213ZM243.723 114.824L242.308 114.325L242.304 114.337L243.723 114.824ZM243.723 145.378L242.304 145.864L242.308 145.876L243.723 145.378ZM250.69 155.989L249.721 157.133L249.729 157.14L249.738 157.147L250.69 155.989ZM262.068 180.918V179.418C252.355 179.418 244.039 177.356 237.063 173.293L236.308 174.589L235.553 175.886C243.066 180.261 251.923 182.418 262.068 182.418V180.918ZM236.308 174.589L237.072 173.299C230.118 169.184 224.751 163.471 220.957 156.131L219.625 156.82L218.292 157.508C222.339 165.338 228.095 171.473 235.544 175.88L236.308 174.589ZM219.625 156.82L220.959 156.134C217.165 148.752 215.244 140.152 215.244 130.293H213.744H212.244C212.244 140.547 214.244 149.632 218.291 157.505L219.625 156.82ZM213.744 130.293H215.244C215.244 120.345 217.166 111.726 220.957 104.39L219.625 103.702L218.292 103.013C214.243 110.848 212.244 119.956 212.244 130.293H213.744ZM219.625 103.702L220.959 104.387C224.753 97.0056 230.118 91.2967 237.066 87.2261L236.308 85.9318L235.55 84.6375C228.095 89.0045 222.338 95.1421 218.291 103.016L219.625 103.702ZM236.308 85.9318L237.069 87.2247C244.044 83.1217 252.358 81.0398 262.068 81.0398V79.5398V78.0398C251.921 78.0398 243.061 80.2192 235.548 84.6389L236.308 85.9318ZM262.068 79.5398V81.0398C271.779 81.0398 280.07 83.1218 287 87.2227L287.764 85.9318L288.528 84.6409C281.055 80.2191 272.215 78.0398 262.068 78.0398V79.5398ZM287.764 85.9318L287.009 87.228C294 91.2992 299.384 97.008 303.177 104.387L304.511 103.702L305.845 103.016C301.797 95.1398 296.017 89.0019 288.519 84.6356L287.764 85.9318ZM304.511 103.702L303.179 104.39C306.97 111.726 308.892 120.345 308.892 130.293H310.392H311.892C311.892 119.956 309.893 110.848 305.844 103.013L304.511 103.702ZM310.392 130.293H308.892C308.892 140.152 306.971 148.752 303.177 156.134L304.511 156.82L305.845 157.505C309.892 149.632 311.892 140.547 311.892 130.293H310.392ZM304.511 156.82L303.179 156.131C299.386 163.469 294 169.181 287.004 173.297L287.764 174.589L288.525 175.882C296.017 171.475 301.796 165.341 305.844 157.508L304.511 156.82ZM287.764 174.589L287.006 173.295C280.074 177.356 271.781 179.418 262.068 179.418V180.918V182.418C272.213 182.418 281.05 180.261 288.522 175.884L287.764 174.589ZM262.196 159.824V161.324C267.015 161.324 271.144 159.952 274.478 157.134L273.51 155.989L272.542 154.843C269.825 157.139 266.411 158.324 262.196 158.324V159.824ZM273.51 155.989L274.487 157.126C277.75 154.323 280.164 150.544 281.768 145.864L280.349 145.378L278.93 144.891C277.467 149.16 275.321 152.455 272.532 154.851L273.51 155.989ZM280.349 145.378L281.764 145.876C283.407 141.213 284.214 135.947 284.214 130.101H282.714H281.214C281.214 135.675 280.445 140.594 278.935 144.879L280.349 145.378ZM282.714 130.101H284.214C284.214 124.254 283.407 118.989 281.764 114.325L280.349 114.824L278.935 115.322C280.445 119.608 281.214 124.527 281.214 130.101H282.714ZM280.349 114.824L281.768 114.337C280.164 109.658 277.75 105.879 274.487 103.075L273.51 104.213L272.532 105.351C275.321 107.746 277.467 111.041 278.93 115.31L280.349 114.824ZM273.51 104.213L274.487 103.075C271.154 100.211 267.021 98.8139 262.196 98.8139V100.314V101.814C266.405 101.814 269.815 103.016 272.532 105.351L273.51 104.213ZM262.196 100.314V98.8139C257.331 98.8139 253.143 100.209 249.728 103.062L250.69 104.213L251.652 105.364C254.459 103.018 257.941 101.814 262.196 101.814V100.314ZM250.69 104.213L249.721 103.069C246.416 105.869 243.957 109.645 242.308 114.325L243.723 114.824L245.138 115.322C246.642 111.053 248.829 107.756 251.66 105.358L250.69 104.213ZM243.723 114.824L242.304 114.337C240.706 118.997 239.922 124.258 239.922 130.101H241.422H242.922C242.922 124.523 243.671 119.6 245.142 115.31L243.723 114.824ZM241.422 130.101H239.922C239.922 135.943 240.706 141.205 242.304 145.864L243.723 145.378L245.142 144.891C243.671 140.602 242.922 135.679 242.922 130.101H241.422ZM243.723 145.378L242.308 145.876C243.957 150.556 246.416 154.333 249.721 157.133L250.69 155.989L251.66 154.844C248.829 152.445 246.642 149.148 245.138 144.879L243.723 145.378ZM250.69 155.989L249.738 157.147C253.152 159.954 257.338 161.324 262.196 161.324V159.824V158.324C257.935 158.324 254.45 157.137 251.643 154.83L250.69 155.989ZM346.639 214.22L347.178 212.82L347.173 212.818L346.639 214.22ZM331.682 204.44L330.565 205.442L331.682 204.44ZM324.459 190.506L324.259 189.019L322.651 189.235L322.992 190.821L324.459 190.506ZM349.643 187.118L351.04 186.571L350.611 185.474L349.443 185.631L349.643 187.118ZM353.287 192.615L354.361 191.568L353.287 192.615ZM359.871 196.706L360.409 195.306L360.397 195.301L359.871 196.706ZM384.608 193.957L383.719 192.749L383.711 192.755L383.704 192.761L384.608 193.957ZM390.425 161.614H391.925V160.114H390.425V161.614ZM389.274 161.614V160.114H388.293L387.9 161.012L389.274 161.614ZM383.905 169.348L384.975 170.399L383.905 169.348ZM341.142 172.48L340.395 173.781L340.406 173.787L341.142 172.48ZM326.76 156.692L325.417 157.359L325.421 157.369L326.76 156.692ZM326.888 101.848L325.538 101.193L326.888 101.848ZM341.334 85.1009L340.55 83.8218L340.546 83.8243L341.334 85.1009ZM375.02 82.3523L374.343 83.6909L374.355 83.697L375.02 82.3523ZM383.969 89.2557L382.806 90.2036L382.814 90.2134L382.822 90.223L383.969 89.2557ZM389.274 97.3097L387.915 97.9452L388.32 98.8097H389.274V97.3097ZM390.297 97.3097V98.8097H391.797V97.3097H390.297ZM390.297 80.8182V79.3182H388.797V80.8182H390.297ZM417.335 80.8182H418.835V79.3182H417.335V80.8182ZM411.199 200.925L409.986 200.042L411.199 200.925ZM394.196 213.581L393.653 212.183L393.643 212.187L394.196 213.581ZM381.028 153.879L381.903 155.098L381.907 155.095L381.028 153.879ZM388.06 144.419L386.668 143.859L386.665 143.867L388.06 144.419ZM388.124 114.632L386.721 115.165L386.723 115.17L388.124 114.632ZM358.592 104.852L359.513 106.036L359.523 106.028L358.592 104.852ZM351.625 114.824L353.032 115.344L351.625 114.824ZM351.625 144.291L350.223 144.826L350.227 144.835L350.23 144.843L351.625 144.291ZM358.592 153.815L357.695 155.017L357.704 155.024L357.714 155.031L358.592 153.815ZM369.331 217.864V216.364C360.641 216.364 353.269 215.166 347.178 212.82L346.639 214.22L346.1 215.62C352.622 218.132 360.379 219.364 369.331 219.364V217.864ZM346.639 214.22L347.173 212.818C341.086 210.5 336.316 207.361 332.798 203.439L331.682 204.44L330.565 205.442C334.462 209.787 339.663 213.168 346.105 215.622L346.639 214.22ZM331.682 204.44L332.798 203.439C329.256 199.489 326.975 195.078 325.925 190.191L324.459 190.506L322.992 190.821C324.158 196.246 326.693 201.125 330.565 205.442L331.682 204.44ZM324.459 190.506L324.659 191.992L349.843 188.605L349.643 187.118L349.443 185.631L324.259 189.019L324.459 190.506ZM349.643 187.118L348.247 187.664C349.096 189.834 350.429 191.833 352.213 193.662L353.287 192.615L354.361 191.568C352.821 189.988 351.725 188.322 351.04 186.571L349.643 187.118ZM353.287 192.615L352.213 193.662C354.059 195.556 356.455 197.027 359.344 198.11L359.871 196.706L360.397 195.301C357.831 194.339 355.838 193.083 354.361 191.568L353.287 192.615ZM359.871 196.706L359.332 198.106C362.321 199.255 365.881 199.804 369.97 199.804V198.304V196.804C366.133 196.804 362.96 196.287 360.409 195.306L359.871 196.706ZM369.97 198.304V199.804C376.142 199.804 381.361 198.291 385.512 195.154L384.608 193.957L383.704 192.761C380.184 195.42 375.644 196.804 369.97 196.804V198.304ZM384.608 193.957L385.497 195.165C389.897 191.926 391.925 186.582 391.925 179.575H390.425H388.925C388.925 186.034 387.074 190.279 383.719 192.749L384.608 193.957ZM390.425 179.575H391.925V161.614H390.425H388.925V179.575H390.425ZM390.425 161.614V160.114H389.274V161.614V163.114H390.425V161.614ZM389.274 161.614L387.9 161.012C386.79 163.55 385.111 165.98 382.835 168.297L383.905 169.348L384.975 170.399C387.471 167.859 389.372 165.132 390.648 162.215L389.274 161.614ZM383.905 169.348L382.835 168.297C380.616 170.556 377.729 172.433 374.132 173.904L374.7 175.293L375.268 176.681C379.171 175.084 382.421 172.998 384.975 170.399L383.905 169.348ZM374.7 175.293L374.132 173.904C370.606 175.347 366.334 176.094 361.277 176.094V177.594V179.094C366.618 179.094 371.295 178.306 375.268 176.681L374.7 175.293ZM361.277 177.594V176.094C354.146 176.094 347.691 174.448 341.878 171.173L341.142 172.48L340.406 173.787C346.695 177.331 353.663 179.094 361.277 179.094V177.594ZM341.142 172.48L341.889 171.179C336.169 167.894 331.565 162.866 328.098 156.014L326.76 156.692L325.421 157.369C329.113 164.665 334.097 170.163 340.395 173.781L341.142 172.48ZM326.76 156.692L328.103 156.024C324.7 149.177 322.954 140.433 322.954 129.717H321.454H319.954C319.954 140.735 321.746 149.974 325.417 157.359L326.76 156.692ZM321.454 129.717H322.954C322.954 118.748 324.742 109.699 328.237 102.503L326.888 101.848L325.538 101.193C321.789 108.912 319.954 118.442 319.954 129.717H321.454ZM326.888 101.848L328.237 102.503C331.757 95.2568 336.395 89.9108 342.121 86.3774L341.334 85.1009L340.546 83.8243C334.256 87.7057 329.263 93.5245 325.538 101.193L326.888 101.848ZM341.334 85.1009L342.117 86.3799C347.929 82.8192 354.284 81.0398 361.213 81.0398V79.5398V78.0398C353.739 78.0398 346.841 79.9677 340.55 83.8218L341.334 85.1009ZM361.213 79.5398V81.0398C366.548 81.0398 370.902 81.9506 374.343 83.6908L375.02 82.3523L375.697 81.0137C371.723 79.004 366.872 78.0398 361.213 78.0398V79.5398ZM375.02 82.3523L374.355 83.697C377.9 85.4491 380.703 87.6242 382.806 90.2036L383.969 89.2557L385.131 88.3078C382.717 85.3473 379.554 82.9202 375.684 81.0076L375.02 82.3523ZM383.969 89.2557L382.822 90.223C385.057 92.871 386.746 95.4457 387.915 97.9452L389.274 97.3097L390.633 96.6741C389.33 93.8895 387.483 91.0949 385.115 88.2884L383.969 89.2557ZM389.274 97.3097V98.8097H390.297V97.3097V95.8097H389.274V97.3097ZM390.297 97.3097H391.797V80.8182H390.297H388.797V97.3097H390.297ZM390.297 80.8182V82.3182H417.335V80.8182V79.3182H390.297V80.8182ZM417.335 80.8182H415.835V179.959H417.335H418.835V80.8182H417.335ZM417.335 179.959H415.835C415.835 188.059 413.855 194.722 409.986 200.042L411.199 200.925L412.412 201.807C416.724 195.877 418.835 188.563 418.835 179.959H417.335ZM411.199 200.925L409.986 200.042C406.083 205.408 400.662 209.462 393.653 212.183L394.196 213.581L394.739 214.979C402.219 212.075 408.132 207.691 412.412 201.807L411.199 200.925ZM394.196 213.581L393.643 212.187C386.65 214.959 378.555 216.364 369.331 216.364V217.864V219.364C378.856 219.364 387.338 217.913 394.749 214.975L394.196 213.581ZM369.906 157.139V158.639C374.552 158.639 378.58 157.485 381.903 155.098L381.028 153.879L380.153 152.661C377.426 154.62 374.039 155.639 369.906 155.639V157.139ZM381.028 153.879L381.907 155.095C385.242 152.686 387.747 149.284 389.454 144.971L388.06 144.419L386.665 143.867C385.133 147.736 382.951 150.641 380.15 152.663L381.028 153.879ZM388.06 144.419L389.451 144.979C391.202 140.624 392.052 135.481 392.052 129.589H390.552H389.052C389.052 135.204 388.241 139.947 386.668 143.859L388.06 144.419ZM390.552 129.589H392.052C392.052 123.701 391.224 118.525 389.524 114.095L388.124 114.632L386.723 115.17C388.261 119.177 389.052 123.972 389.052 129.589H390.552ZM388.124 114.632L389.526 114.099C387.825 109.624 385.33 106.074 382.003 103.532L381.092 104.724L380.182 105.916C382.99 108.062 385.183 111.117 386.721 115.165L388.124 114.632ZM381.092 104.724L382.003 103.532C378.638 100.962 374.577 99.7088 369.906 99.7088V101.209V102.709C374.013 102.709 377.41 103.799 380.182 105.916L381.092 104.724ZM369.906 101.209V99.7088C365.145 99.7088 361.032 101.008 357.661 103.676L358.592 104.852L359.523 106.028C362.289 103.839 365.719 102.709 369.906 102.709V101.209ZM358.592 104.852L357.671 103.668C354.348 106.253 351.875 109.825 350.218 114.303L351.625 114.824L353.032 115.344C354.528 111.3 356.701 108.224 359.513 106.036L358.592 104.852ZM351.625 114.824L350.218 114.303C348.567 118.765 347.76 123.869 347.76 129.589H349.26H350.76C350.76 124.146 351.529 119.406 353.032 115.344L351.625 114.824ZM349.26 129.589H347.76C347.76 135.391 348.566 140.481 350.223 144.826L351.625 144.291L353.026 143.757C351.53 139.834 350.76 135.123 350.76 129.589H349.26ZM351.625 144.291L350.23 144.843C351.935 149.149 354.412 152.567 357.695 155.017L358.592 153.815L359.49 152.613C356.721 150.547 354.554 147.615 353.02 143.739L351.625 144.291ZM358.592 153.815L357.714 155.031C361.082 157.464 365.176 158.639 369.906 158.639V157.139V155.639C365.688 155.639 362.239 154.599 359.47 152.599L358.592 153.815ZM463.234 122.239L461.734 122.223L461.734 122.231V122.239H463.234ZM463.234 179V180.5H464.734V179H463.234ZM436.004 179H434.504V180.5H436.004V179ZM436.004 80.8182V79.3182H434.504V80.8182H436.004ZM461.956 80.8182H463.456V79.3182H461.956V80.8182ZM461.956 98.1406H460.456V99.6406H461.956V98.1406ZM463.106 98.1406V99.6406H464.141L464.508 98.6742L463.106 98.1406ZM474.037 84.5895L474.854 85.8472L474.862 85.8424L474.037 84.5895ZM522.297 96.7983L520.959 97.4773L520.961 97.4815L522.297 96.7983ZM526.516 179V180.5H528.016V179H526.516ZM499.285 179H497.785V180.5H499.285V179ZM499.285 121.344L497.785 121.333V121.344H499.285ZM494.683 107.281L493.575 108.292L493.581 108.299L494.683 107.281ZM472.119 104.533L471.386 103.224L471.377 103.229L472.119 104.533ZM465.599 111.436L464.269 110.743L464.265 110.75L465.599 111.436ZM463.234 122.239H461.734V179H463.234H464.734V122.239H463.234ZM463.234 179V177.5H436.004V179V180.5H463.234V179ZM436.004 179H437.504V80.8182H436.004H434.504V179H436.004ZM436.004 80.8182V82.3182H461.956V80.8182V79.3182H436.004V80.8182ZM461.956 80.8182H460.456V98.1406H461.956H463.456V80.8182H461.956ZM461.956 98.1406V99.6406H463.106V98.1406V96.6406H461.956V98.1406ZM463.106 98.1406L464.508 98.6742C466.569 93.2606 470.008 88.9974 474.854 85.8471L474.037 84.5895L473.219 83.3318C467.839 86.8293 463.991 91.6002 461.705 97.6071L463.106 98.1406ZM474.037 84.5895L474.862 85.8424C479.687 82.6657 485.587 81.0398 492.638 81.0398V79.5398V78.0398C485.114 78.0398 478.614 79.7804 473.212 83.3366L474.037 84.5895ZM492.638 79.5398V81.0398C499.232 81.0398 504.905 82.48 509.711 85.3071L510.471 84.0142L511.232 82.7213C505.896 79.5825 499.68 78.0398 492.638 78.0398V79.5398ZM510.471 84.0142L509.711 85.3071C514.521 88.1364 518.269 92.1781 520.959 97.4773L522.297 96.7983L523.634 96.1193C520.7 90.339 516.564 85.8579 511.232 82.7213L510.471 84.0142ZM522.297 96.7983L520.961 97.4815C523.643 102.723 525.016 109.041 525.016 116.486H526.516H528.016C528.016 108.675 526.575 101.868 523.632 96.1151L522.297 96.7983ZM526.516 116.486H525.016V179H526.516H528.016V116.486H526.516ZM526.516 179V177.5H499.285V179V180.5H526.516V179ZM499.285 179H500.785V121.344H499.285H497.785V179H499.285ZM499.285 121.344L500.785 121.354C500.83 115.087 499.227 109.988 495.785 106.263L494.683 107.281L493.581 108.299C496.361 111.308 497.826 115.584 497.785 121.333L499.285 121.344ZM494.683 107.281L495.791 106.27C492.344 102.493 487.628 100.668 481.835 100.668V102.168V103.668C486.952 103.668 490.8 105.252 493.575 108.292L494.683 107.281ZM481.835 102.168V100.668C477.949 100.668 474.451 101.506 471.386 103.224L472.119 104.533L472.853 105.841C475.412 104.406 478.392 103.668 481.835 103.668V102.168ZM472.119 104.533L471.377 103.229C468.339 104.959 465.969 107.48 464.269 110.743L465.599 111.436L466.93 112.129C468.383 109.341 470.36 107.26 472.861 105.836L472.119 104.533ZM465.599 111.436L464.265 110.75C462.601 113.987 461.779 117.83 461.734 122.223L463.234 122.239L464.734 122.254C464.775 118.21 465.53 114.851 466.933 112.122L465.599 111.436ZM544.977 179H543.477V180.5H544.977V179ZM544.977 80.8182V79.3182H543.477V80.8182H544.977ZM572.207 80.8182H573.707V79.3182H572.207V80.8182ZM572.207 179V180.5H573.707V179H572.207ZM548.237 64.1349L547.201 65.2196L547.209 65.2275L547.217 65.2353L548.237 64.1349ZM548.237 44.7031L549.264 45.7959L549.265 45.7954L548.237 44.7031ZM569.011 44.7031L567.975 45.7878L567.983 45.7957L567.992 45.8035L569.011 44.7031ZM569.011 64.1349L570.038 65.2277L570.039 65.2272L569.011 64.1349ZM544.977 179H546.477V80.8182H544.977H543.477V179H544.977ZM544.977 80.8182V82.3182H572.207V80.8182V79.3182H544.977V80.8182ZM572.207 80.8182H570.707V179H572.207H573.707V80.8182H572.207ZM572.207 179V177.5H544.977V179V180.5H572.207V179ZM558.656 68.1619V66.6619C554.975 66.6619 551.869 65.4554 549.256 63.0346L548.237 64.1349L547.217 65.2353C550.4 68.1838 554.24 69.6619 558.656 69.6619V68.1619ZM548.237 64.1349L549.273 63.0503C546.7 60.593 545.454 57.7195 545.454 54.3551H543.954H542.454C542.454 58.576 544.063 62.2224 547.201 65.2196L548.237 64.1349ZM543.954 54.3551H545.454C545.454 51.0395 546.695 48.2115 549.264 45.7959L548.237 44.7031L547.209 43.6103C544.068 46.5641 542.454 50.1707 542.454 54.3551H543.954ZM548.237 44.7031L549.265 45.7954C551.879 43.335 554.982 42.1122 558.656 42.1122V40.6122V39.1122C554.233 39.1122 550.39 40.6167 547.209 43.6108L548.237 44.7031ZM558.656 40.6122V42.1122C562.329 42.1122 565.407 43.3345 567.975 45.7878L569.011 44.7031L570.047 43.6185C566.905 40.6172 563.079 39.1122 558.656 39.1122V40.6122ZM569.011 44.7031L567.992 45.8035C570.601 48.2213 571.857 51.0473 571.857 54.3551H573.357H574.857C574.857 50.163 573.216 46.5542 570.03 43.6028L569.011 44.7031ZM573.357 54.3551H571.857C571.857 57.7118 570.596 60.5831 567.983 63.0426L569.011 64.1349L570.039 65.2272C573.221 62.2322 574.857 58.5837 574.857 54.3551H573.357ZM569.011 64.1349L567.983 63.0422C565.416 65.4558 562.336 66.6619 558.656 66.6619V68.1619V69.6619C563.072 69.6619 566.895 68.1834 570.038 65.2277L569.011 64.1349ZM643.243 80.8182H644.743V79.3182H643.243V80.8182ZM643.243 101.273V102.773H644.743V101.273H643.243ZM584.116 101.273H582.616V102.773H584.116V101.273ZM584.116 80.8182V79.3182H582.616V80.8182H584.116ZM597.54 57.2955V55.7955H596.04V57.2955H597.54ZM624.77 57.2955H626.27V55.7955H624.77V57.2955ZM625.92 154.71L624.604 155.428L624.608 155.437L624.613 155.446L625.92 154.71ZM629.116 157.587L628.552 158.976L628.559 158.979L628.567 158.982L629.116 157.587ZM637.81 158.098L638.056 159.578L638.08 159.574L638.104 159.569L637.81 158.098ZM640.75 157.523L642.217 157.213L641.914 155.778L640.474 156.048L640.75 157.523ZM645.033 177.786L645.48 179.217L646.782 178.81L646.5 177.475L645.033 177.786ZM639.28 179.256L638.952 177.792L638.94 177.795L638.928 177.798L639.28 179.256ZM630.267 180.342L630.213 178.843L630.209 178.843L630.267 180.342ZM613.008 177.722L612.441 179.11L612.445 179.112L613.008 177.722ZM601.567 168.389L602.826 167.575L601.567 168.389ZM597.54 152.409L599.04 152.419V152.409H597.54ZM643.243 80.8182H641.743V101.273H643.243H644.743V80.8182H643.243ZM643.243 101.273V99.7727H584.116V101.273V102.773H643.243V101.273ZM584.116 101.273H585.616V80.8182H584.116H582.616V101.273H584.116ZM584.116 80.8182V82.3182H643.243V80.8182V79.3182H584.116V80.8182ZM597.54 57.2955V58.7955H624.77V57.2955V55.7955H597.54V57.2955ZM624.77 57.2955H623.27V148.83H624.77H626.27V57.2955H624.77ZM624.77 148.83H623.27C623.27 151.465 623.667 153.711 624.604 155.428L625.92 154.71L627.237 153.992C626.64 152.897 626.27 151.222 626.27 148.83H624.77ZM625.92 154.71L624.613 155.446C625.535 157.085 626.853 158.286 628.552 158.976L629.116 157.587L629.681 156.197C628.652 155.779 627.84 155.063 627.228 153.975L625.92 154.71ZM629.116 157.587L628.567 158.982C630.181 159.618 631.993 159.918 633.974 159.918V158.418V156.918C632.291 156.918 630.865 156.663 629.666 156.191L629.116 157.587ZM633.974 158.418V159.918C635.336 159.918 636.697 159.804 638.056 159.578L637.81 158.098L637.563 156.618C636.365 156.818 635.169 156.918 633.974 156.918V158.418ZM637.81 158.098L638.104 159.569C639.38 159.314 640.354 159.123 641.026 158.997L640.75 157.523L640.474 156.048C639.783 156.178 638.796 156.371 637.515 156.627L637.81 158.098ZM640.75 157.523L639.282 157.833L643.565 178.096L645.033 177.786L646.5 177.475L642.217 157.213L640.75 157.523ZM645.033 177.786L644.585 176.354C643.28 176.762 641.409 177.241 638.952 177.792L639.28 179.256L639.608 180.719C642.094 180.162 644.058 179.662 645.48 179.217L645.033 177.786ZM639.28 179.256L638.928 177.798C636.583 178.363 633.685 178.718 630.213 178.843L630.267 180.342L630.321 181.841C633.923 181.711 637.033 181.341 639.632 180.714L639.28 179.256ZM630.267 180.342L630.209 178.843C623.811 179.093 618.278 178.238 613.572 176.331L613.008 177.722L612.445 179.112C617.626 181.211 623.598 182.103 630.325 181.841L630.267 180.342ZM613.008 177.722L613.576 176.333C608.943 174.44 605.378 171.522 602.826 167.575L601.567 168.389L600.307 169.204C603.21 173.694 607.273 176.998 612.441 179.11L613.008 177.722ZM601.567 168.389L602.826 167.575C600.297 163.662 598.998 158.643 599.04 152.419L597.54 152.409L596.04 152.399C595.996 159.045 597.382 164.679 600.307 169.204L601.567 168.389ZM597.54 152.409H599.04V57.2955H597.54H596.04V152.409H597.54ZM657.981 179H656.481V180.5H657.981V179ZM657.981 80.8182V79.3182H656.481V80.8182H657.981ZM685.211 80.8182H686.711V79.3182H685.211V80.8182ZM685.211 179V180.5H686.711V179H685.211ZM661.241 64.1349L660.205 65.2196L660.213 65.2275L660.221 65.2353L661.241 64.1349ZM661.241 44.7031L662.268 45.7959L662.269 45.7954L661.241 44.7031ZM682.015 44.7031L680.979 45.7878L680.987 45.7957L680.995 45.8035L682.015 44.7031ZM682.015 64.1349L683.042 65.2277L683.043 65.2272L682.015 64.1349ZM657.981 179H659.481V80.8182H657.981H656.481V179H657.981ZM657.981 80.8182V82.3182H685.211V80.8182V79.3182H657.981V80.8182ZM685.211 80.8182H683.711V179H685.211H686.711V80.8182H685.211ZM685.211 179V177.5H657.981V179V180.5H685.211V179ZM671.66 68.1619V66.6619C667.979 66.6619 664.873 65.4554 662.26 63.0346L661.241 64.1349L660.221 65.2353C663.404 68.1838 667.244 69.6619 671.66 69.6619V68.1619ZM661.241 64.1349L662.277 63.0503C659.704 60.593 658.458 57.7195 658.458 54.3551H656.958H655.458C655.458 58.576 657.067 62.2224 660.205 65.2196L661.241 64.1349ZM656.958 54.3551H658.458C658.458 51.0395 659.699 48.2115 662.268 45.7959L661.241 44.7031L660.213 43.6103C657.072 46.5641 655.458 50.1707 655.458 54.3551H656.958ZM661.241 44.7031L662.269 45.7954C664.883 43.335 667.986 42.1122 671.66 42.1122V40.6122V39.1122C667.237 39.1122 663.394 40.6167 660.213 43.6108L661.241 44.7031ZM671.66 40.6122V42.1122C675.333 42.1122 678.41 43.3345 680.979 45.7878L682.015 44.7031L683.051 43.6185C679.909 40.6172 676.083 39.1122 671.66 39.1122V40.6122ZM682.015 44.7031L680.995 45.8035C683.605 48.2213 684.861 51.0473 684.861 54.3551H686.361H687.861C687.861 50.163 686.22 46.5542 683.034 43.6028L682.015 44.7031ZM686.361 54.3551H684.861C684.861 57.7118 683.6 60.5831 680.987 63.0426L682.015 64.1349L683.043 65.2272C686.225 62.2322 687.861 58.5837 687.861 54.3551H686.361ZM682.015 64.1349L680.987 63.0422C678.42 65.4558 675.34 66.6619 671.66 66.6619V68.1619V69.6619C676.076 69.6619 679.899 68.1834 683.042 65.2277L682.015 64.1349ZM722.625 174.589L721.861 175.88L721.87 175.886L722.625 174.589ZM705.941 156.82L704.607 157.505L704.609 157.508L705.941 156.82ZM705.941 103.702L707.274 104.39L707.275 104.387L705.941 103.702ZM722.625 85.9318L723.383 87.2261L723.385 87.2247L722.625 85.9318ZM774.081 85.9318L773.317 87.2228L773.326 87.228L774.081 85.9318ZM790.828 103.702L789.494 104.387L789.495 104.39L790.828 103.702ZM790.828 156.82L792.16 157.508L792.162 157.505L790.828 156.82ZM774.081 174.589L774.839 175.884L774.841 175.882L774.081 174.589ZM759.826 155.989L760.794 157.134L760.804 157.126L759.826 155.989ZM766.666 145.378L765.251 144.879L765.247 144.891L766.666 145.378ZM766.666 114.824L765.247 115.31L765.251 115.322L766.666 114.824ZM737.007 104.213L736.045 103.062L736.037 103.069L737.007 104.213ZM730.039 114.824L728.625 114.325L728.62 114.337L730.039 114.824ZM730.039 145.378L728.62 145.864L728.625 145.876L730.039 145.378ZM737.007 155.989L736.037 157.133L736.046 157.14L736.054 157.147L737.007 155.989ZM748.385 180.918V179.418C738.672 179.418 730.355 177.356 723.379 173.293L722.625 174.589L721.87 175.886C729.382 180.261 738.24 182.418 748.385 182.418V180.918ZM722.625 174.589L723.388 173.299C716.434 169.184 711.068 163.471 707.274 156.131L705.941 156.82L704.609 157.508C708.656 165.338 714.411 171.473 721.861 175.88L722.625 174.589ZM705.941 156.82L707.275 156.134C703.481 148.752 701.561 140.152 701.561 130.293H700.061H698.561C698.561 140.547 700.56 149.632 704.607 157.505L705.941 156.82ZM700.061 130.293H701.561C701.561 120.345 703.482 111.726 707.274 104.39L705.941 103.702L704.609 103.013C700.559 110.848 698.561 119.956 698.561 130.293H700.061ZM705.941 103.702L707.275 104.387C711.069 97.0056 716.434 91.2967 723.383 87.2261L722.625 85.9318L721.866 84.6375C714.412 89.0045 708.654 95.1421 704.607 103.016L705.941 103.702ZM722.625 85.9318L723.385 87.2247C730.36 83.1217 738.674 81.0398 748.385 81.0398V79.5398V78.0398C738.237 78.0398 729.378 80.2192 721.864 84.6389L722.625 85.9318ZM748.385 79.5398V81.0398C758.095 81.0398 766.386 83.1218 773.317 87.2227L774.081 85.9318L774.844 84.6409C767.372 80.2191 758.532 78.0398 748.385 78.0398V79.5398ZM774.081 85.9318L773.326 87.228C780.317 91.2992 785.701 97.008 789.494 104.387L790.828 103.702L792.162 103.016C788.114 95.1398 782.333 89.0019 774.835 84.6356L774.081 85.9318ZM790.828 103.702L789.495 104.39C793.287 111.726 795.208 120.345 795.208 130.293H796.708H798.208C798.208 119.956 796.21 110.848 792.16 103.013L790.828 103.702ZM796.708 130.293H795.208C795.208 140.152 793.288 148.752 789.494 156.134L790.828 156.82L792.162 157.505C796.209 149.632 798.208 140.547 798.208 130.293H796.708ZM790.828 156.82L789.495 156.131C785.702 163.469 780.316 169.181 773.32 173.297L774.081 174.589L774.841 175.882C782.333 171.475 788.112 165.341 792.16 157.508L790.828 156.82ZM774.081 174.589L773.322 173.295C766.391 177.356 758.098 179.418 748.385 179.418V180.918V182.418C758.529 182.418 767.367 180.261 774.839 175.884L774.081 174.589ZM748.512 159.824V161.324C753.331 161.324 757.46 159.952 760.794 157.134L759.826 155.989L758.858 154.843C756.141 157.139 752.728 158.324 748.512 158.324V159.824ZM759.826 155.989L760.804 157.126C764.067 154.323 766.48 150.544 768.085 145.864L766.666 145.378L765.247 144.891C763.783 149.16 761.637 152.455 758.849 154.851L759.826 155.989ZM766.666 145.378L768.081 145.876C769.724 141.213 770.531 135.947 770.531 130.101H769.031H767.531C767.531 135.675 766.761 140.594 765.251 144.879L766.666 145.378ZM769.031 130.101H770.531C770.531 124.254 769.724 118.989 768.081 114.325L766.666 114.824L765.251 115.322C766.761 119.608 767.531 124.527 767.531 130.101H769.031ZM766.666 114.824L768.085 114.337C766.48 109.658 764.067 105.879 760.804 103.075L759.826 104.213L758.849 105.351C761.637 107.746 763.783 111.041 765.247 115.31L766.666 114.824ZM759.826 104.213L760.804 103.075C757.47 100.211 753.337 98.8139 748.512 98.8139V100.314V101.814C752.721 101.814 756.131 103.016 758.849 105.351L759.826 104.213ZM748.512 100.314V98.8139C743.648 98.8139 739.459 100.209 736.045 103.062L737.007 104.213L737.969 105.364C740.776 103.018 744.258 101.814 748.512 101.814V100.314ZM737.007 104.213L736.037 103.069C732.732 105.869 730.274 109.645 728.625 114.325L730.039 114.824L731.454 115.322C732.958 111.053 735.145 107.756 737.976 105.358L737.007 104.213ZM730.039 114.824L728.62 114.337C727.023 118.997 726.238 124.258 726.238 130.101H727.738H729.238C729.238 124.523 729.988 119.6 731.458 115.31L730.039 114.824ZM727.738 130.101H726.238C726.238 135.943 727.023 141.205 728.62 145.864L730.039 145.378L731.458 144.891C729.988 140.602 729.238 135.679 729.238 130.101H727.738ZM730.039 145.378L728.625 145.876C730.274 150.556 732.732 154.333 736.037 157.133L737.007 155.989L737.976 154.844C735.145 152.445 732.958 149.148 731.454 144.879L730.039 145.378ZM737.007 155.989L736.054 157.147C739.469 159.954 743.654 161.324 748.512 161.324V159.824V158.324C744.251 158.324 740.766 157.137 737.959 154.83L737.007 155.989ZM838.644 122.239L837.145 122.223L837.144 122.231V122.239H838.644ZM838.644 179V180.5H840.144V179H838.644ZM811.414 179H809.914V180.5H811.414V179ZM811.414 80.8182V79.3182H809.914V80.8182H811.414ZM837.366 80.8182H838.866V79.3182H837.366V80.8182ZM837.366 98.1406H835.866V99.6406H837.366V98.1406ZM838.517 98.1406V99.6406H839.551L839.919 98.6742L838.517 98.1406ZM849.447 84.5895L850.265 85.8472L850.272 85.8424L849.447 84.5895ZM897.707 96.7983L896.369 97.4773L896.372 97.4815L897.707 96.7983ZM901.926 179V180.5H903.426V179H901.926ZM874.696 179H873.196V180.5H874.696V179ZM874.696 121.344L873.196 121.333V121.344H874.696ZM870.093 107.281L868.985 108.292L868.992 108.299L870.093 107.281ZM847.529 104.533L846.796 103.224L846.787 103.229L847.529 104.533ZM841.01 111.436L839.679 110.743L839.676 110.75L841.01 111.436ZM838.644 122.239H837.144V179H838.644H840.144V122.239H838.644ZM838.644 179V177.5H811.414V179V180.5H838.644V179ZM811.414 179H812.914V80.8182H811.414H809.914V179H811.414ZM811.414 80.8182V82.3182H837.366V80.8182V79.3182H811.414V80.8182ZM837.366 80.8182H835.866V98.1406H837.366H838.866V80.8182H837.366ZM837.366 98.1406V99.6406H838.517V98.1406V96.6406H837.366V98.1406ZM838.517 98.1406L839.919 98.6742C841.979 93.2606 845.418 88.9974 850.264 85.8471L849.447 84.5895L848.63 83.3318C843.249 86.8293 839.401 91.6002 837.115 97.6071L838.517 98.1406ZM849.447 84.5895L850.272 85.8424C855.097 82.6657 860.997 81.0398 868.048 81.0398V79.5398V78.0398C860.524 78.0398 854.024 79.7804 848.622 83.3366L849.447 84.5895ZM868.048 79.5398V81.0398C874.642 81.0398 880.315 82.48 885.121 85.3071L885.882 84.0142L886.642 82.7213C881.306 79.5825 875.09 78.0398 868.048 78.0398V79.5398ZM885.882 84.0142L885.121 85.3071C889.931 88.1364 893.679 92.1781 896.369 97.4773L897.707 96.7983L899.044 96.1193C896.11 90.339 891.974 85.8579 886.642 82.7213L885.882 84.0142ZM897.707 96.7983L896.372 97.4815C899.053 102.723 900.426 109.041 900.426 116.486H901.926H903.426C903.426 108.675 901.986 101.868 899.042 96.1151L897.707 96.7983ZM901.926 116.486H900.426V179H901.926H903.426V116.486H901.926ZM901.926 179V177.5H874.696V179V180.5H901.926V179ZM874.696 179H876.196V121.344H874.696H873.196V179H874.696ZM874.696 121.344L876.196 121.354C876.24 115.087 874.637 109.988 871.195 106.263L870.093 107.281L868.992 108.299C871.772 111.308 873.236 115.584 873.196 121.333L874.696 121.344ZM870.093 107.281L871.201 106.27C867.754 102.493 863.038 100.668 857.245 100.668V102.168V103.668C862.362 103.668 866.211 105.252 868.985 108.292L870.093 107.281ZM857.245 102.168V100.668C853.359 100.668 849.862 101.506 846.796 103.224L847.529 104.533L848.263 105.841C850.822 104.406 853.802 103.668 857.245 103.668V102.168ZM847.529 104.533L846.787 103.229C843.749 104.959 841.379 107.48 839.679 110.743L841.01 111.436L842.34 112.129C843.793 109.341 845.77 107.26 848.271 105.836L847.529 104.533ZM841.01 111.436L839.676 110.75C838.011 113.987 837.189 117.83 837.145 122.223L838.644 122.239L840.144 122.254C840.185 118.21 840.94 114.851 842.343 112.122L841.01 111.436Z" fill="white" mask="url(#path-1-outside-1_2452_11960)"/>
<path d="M988.453 179V48.0909H1040.1C1049.99 48.0909 1058.42 49.8594 1065.41 53.3963C1072.44 56.8906 1077.79 61.8551 1081.46 68.2898C1085.16 74.6818 1087.02 82.2031 1087.02 90.8537C1087.02 99.5469 1085.14 107.026 1081.39 113.29C1077.64 119.511 1072.21 124.284 1065.09 127.608C1058.02 130.932 1049.45 132.594 1039.4 132.594H1004.82V110.349H1034.92C1040.21 110.349 1044.6 109.625 1048.09 108.176C1051.59 106.727 1054.18 104.554 1055.89 101.656C1057.64 98.7585 1058.51 95.1577 1058.51 90.8537C1058.51 86.5071 1057.64 82.8423 1055.89 79.8594C1054.18 76.8764 1051.56 74.6179 1048.03 73.0838C1044.53 71.5071 1040.12 70.7188 1034.8 70.7188H1016.13V179H988.453ZM1059.15 119.426L1091.68 179H1061.13L1029.3 119.426H1059.15ZM1146.23 180.918C1136.13 180.918 1127.44 178.872 1120.15 174.781C1112.91 170.648 1107.32 164.81 1103.4 157.267C1099.48 149.682 1097.52 140.712 1097.52 130.357C1097.52 120.257 1099.48 111.393 1103.4 103.766C1107.32 96.1378 1112.84 90.1932 1119.96 85.9318C1127.12 81.6705 1135.51 79.5398 1145.14 79.5398C1151.62 79.5398 1157.65 80.5838 1163.23 82.6719C1168.86 84.7173 1173.76 87.8068 1177.93 91.9403C1182.15 96.0739 1185.43 101.273 1187.78 107.537C1190.12 113.759 1191.29 121.045 1191.29 129.398V136.876H1108.39V120.001H1165.66C1165.66 116.081 1164.81 112.608 1163.1 109.582C1161.4 106.557 1159.03 104.192 1156.01 102.487C1153.03 100.74 1149.55 99.8665 1145.59 99.8665C1141.46 99.8665 1137.79 100.825 1134.6 102.743C1131.44 104.618 1128.97 107.153 1127.18 110.349C1125.39 113.503 1124.47 117.018 1124.43 120.896V136.94C1124.43 141.798 1125.33 145.996 1127.12 149.533C1128.95 153.07 1131.53 155.797 1134.85 157.714C1138.17 159.632 1142.12 160.591 1146.68 160.591C1149.7 160.591 1152.47 160.165 1154.99 159.312C1157.5 158.46 1159.65 157.182 1161.44 155.477C1163.23 153.773 1164.6 151.685 1165.53 149.213L1190.72 150.875C1189.44 156.926 1186.82 162.21 1182.86 166.727C1178.93 171.202 1173.86 174.696 1167.64 177.21C1161.46 179.682 1154.33 180.918 1146.23 180.918ZM1250.42 180.918C1240.37 180.918 1231.72 178.787 1224.47 174.526C1217.27 170.222 1211.73 164.256 1207.85 156.628C1204.02 149 1202.1 140.222 1202.1 130.293C1202.1 120.236 1204.04 111.415 1207.92 103.83C1211.84 96.2017 1217.4 90.2571 1224.6 85.9957C1231.8 81.6918 1240.37 79.5398 1250.3 79.5398C1258.86 79.5398 1266.36 81.0952 1272.8 84.206C1279.23 87.3168 1284.32 91.6847 1288.07 97.3097C1291.82 102.935 1293.89 109.54 1294.27 117.125H1268.58C1267.85 112.224 1265.93 108.283 1262.82 105.3C1259.76 102.274 1255.73 100.761 1250.74 100.761C1246.52 100.761 1242.84 101.912 1239.68 104.213C1236.57 106.472 1234.15 109.774 1232.4 114.121C1230.65 118.467 1229.78 123.73 1229.78 129.909C1229.78 136.173 1230.63 141.5 1232.33 145.889C1234.08 150.278 1236.53 153.624 1239.68 155.925C1242.84 158.226 1246.52 159.376 1250.74 159.376C1253.85 159.376 1256.65 158.737 1259.12 157.459C1261.63 156.18 1263.7 154.327 1265.32 151.898C1266.98 149.426 1268.07 146.464 1268.58 143.013H1294.27C1293.85 150.513 1291.8 157.118 1288.14 162.828C1284.51 168.496 1279.51 172.928 1273.12 176.124C1266.72 179.32 1259.16 180.918 1250.42 180.918ZM1353.07 180.918C1343.14 180.918 1334.55 178.808 1327.31 174.589C1320.11 170.328 1314.55 164.405 1310.62 156.82C1306.7 149.192 1304.74 140.349 1304.74 130.293C1304.74 120.151 1306.7 111.287 1310.62 103.702C1314.55 96.0739 1320.11 90.1506 1327.31 85.9318C1334.55 81.6705 1343.14 79.5398 1353.07 79.5398C1363 79.5398 1371.56 81.6705 1378.76 85.9318C1386.01 90.1506 1391.59 96.0739 1395.51 103.702C1399.43 111.287 1401.39 120.151 1401.39 130.293C1401.39 140.349 1399.43 149.192 1395.51 156.82C1391.59 164.405 1386.01 170.328 1378.76 174.589C1371.56 178.808 1363 180.918 1353.07 180.918ZM1353.2 159.824C1357.71 159.824 1361.48 158.545 1364.51 155.989C1367.54 153.389 1369.82 149.852 1371.35 145.378C1372.93 140.903 1373.71 135.811 1373.71 130.101C1373.71 124.391 1372.93 119.298 1371.35 114.824C1369.82 110.349 1367.54 106.812 1364.51 104.213C1361.48 101.614 1357.71 100.314 1353.2 100.314C1348.64 100.314 1344.8 101.614 1341.69 104.213C1338.62 106.812 1336.3 110.349 1334.72 114.824C1333.19 119.298 1332.42 124.391 1332.42 130.101C1332.42 135.811 1333.19 140.903 1334.72 145.378C1336.3 149.852 1338.62 153.389 1341.69 155.989C1344.8 158.545 1348.64 159.824 1353.2 159.824ZM1460.33 217.864C1451.51 217.864 1443.95 216.649 1437.64 214.22C1431.37 211.834 1426.39 208.574 1422.68 204.44C1418.97 200.307 1416.57 195.662 1415.46 190.506L1440.64 187.118C1441.41 189.078 1442.62 190.911 1444.29 192.615C1445.95 194.32 1448.14 195.683 1450.87 196.706C1453.64 197.771 1457.01 198.304 1460.97 198.304C1466.89 198.304 1471.77 196.855 1475.61 193.957C1479.49 191.102 1481.42 186.308 1481.42 179.575V161.614H1480.27C1479.08 164.341 1477.29 166.919 1474.9 169.348C1472.52 171.777 1469.45 173.759 1465.7 175.293C1461.95 176.827 1457.48 177.594 1452.28 177.594C1444.9 177.594 1438.19 175.889 1432.14 172.48C1426.13 169.028 1421.34 163.766 1417.76 156.692C1414.22 149.575 1412.45 140.584 1412.45 129.717C1412.45 118.595 1414.27 109.305 1417.89 101.848C1421.51 94.3906 1426.33 88.8082 1432.33 85.1009C1438.38 81.3935 1445.01 79.5398 1452.21 79.5398C1457.71 79.5398 1462.31 80.4773 1466.02 82.3523C1469.73 84.1847 1472.71 86.4858 1474.97 89.2557C1477.27 91.983 1479.04 94.6676 1480.27 97.3097H1481.3V80.8182H1508.34V179.959C1508.34 188.311 1506.29 195.3 1502.2 200.925C1498.11 206.55 1492.44 210.768 1485.2 213.581C1477.99 216.436 1469.71 217.864 1460.33 217.864ZM1460.91 157.139C1465.3 157.139 1469 156.053 1472.03 153.879C1475.1 151.663 1477.44 148.51 1479.06 144.419C1480.72 140.286 1481.55 135.342 1481.55 129.589C1481.55 123.837 1480.74 118.851 1479.12 114.632C1477.5 110.371 1475.16 107.068 1472.09 104.724C1469.02 102.381 1465.3 101.209 1460.91 101.209C1456.43 101.209 1452.66 102.423 1449.59 104.852C1446.52 107.239 1444.2 110.562 1442.62 114.824C1441.05 119.085 1440.26 124.007 1440.26 129.589C1440.26 135.257 1441.05 140.158 1442.62 144.291C1444.24 148.382 1446.57 151.557 1449.59 153.815C1452.66 156.031 1456.43 157.139 1460.91 157.139ZM1554.23 122.239V179H1527V80.8182H1552.96V98.1406H1554.11C1556.28 92.4304 1559.92 87.9133 1565.04 84.5895C1570.15 81.223 1576.35 79.5398 1583.64 79.5398C1590.46 79.5398 1596.4 81.0312 1601.47 84.0142C1606.54 86.9972 1610.48 91.2585 1613.3 96.7983C1616.11 102.295 1617.52 108.858 1617.52 116.486V179H1590.29V121.344C1590.33 115.335 1588.79 110.648 1585.68 107.281C1582.57 103.872 1578.29 102.168 1572.84 102.168C1569.17 102.168 1565.93 102.956 1563.12 104.533C1560.35 106.109 1558.18 108.411 1556.6 111.436C1555.07 114.419 1554.28 118.02 1554.23 122.239ZM1635.98 179V80.8182H1663.21V179H1635.98ZM1649.66 68.1619C1645.61 68.1619 1642.13 66.8196 1639.24 64.1349C1636.38 61.4077 1634.95 58.1477 1634.95 54.3551C1634.95 50.6051 1636.38 47.3878 1639.24 44.7031C1642.13 41.9758 1645.61 40.6122 1649.66 40.6122C1653.7 40.6122 1657.16 41.9758 1660.01 44.7031C1662.91 47.3878 1664.36 50.6051 1664.36 54.3551C1664.36 58.1477 1662.91 61.4077 1660.01 64.1349C1657.16 66.8196 1653.7 68.1619 1649.66 68.1619ZM1734.24 80.8182V101.273H1675.12V80.8182H1734.24ZM1688.54 57.2955H1715.77V148.83C1715.77 151.344 1716.15 153.304 1716.92 154.71C1717.69 156.074 1718.75 157.033 1720.12 157.587C1721.52 158.141 1723.14 158.418 1724.97 158.418C1726.25 158.418 1727.53 158.311 1728.81 158.098C1730.09 157.842 1731.07 157.651 1731.75 157.523L1736.03 177.786C1734.67 178.212 1732.75 178.702 1730.28 179.256C1727.81 179.852 1724.8 180.214 1721.27 180.342C1714.7 180.598 1708.95 179.724 1704.01 177.722C1699.11 175.719 1695.29 172.608 1692.57 168.389C1689.84 164.17 1688.5 158.844 1688.54 152.409V57.2955ZM1748.98 179V80.8182H1776.21V179H1748.98ZM1762.66 68.1619C1758.61 68.1619 1755.14 66.8196 1752.24 64.1349C1749.39 61.4077 1747.96 58.1477 1747.96 54.3551C1747.96 50.6051 1749.39 47.3878 1752.24 44.7031C1755.14 41.9758 1758.61 40.6122 1762.66 40.6122C1766.71 40.6122 1770.16 41.9758 1773.01 44.7031C1775.91 47.3878 1777.36 50.6051 1777.36 54.3551C1777.36 58.1477 1775.91 61.4077 1773.01 64.1349C1770.16 66.8196 1766.71 68.1619 1762.66 68.1619ZM1839.38 180.918C1829.46 180.918 1820.87 178.808 1813.62 174.589C1806.42 170.328 1800.86 164.405 1796.94 156.82C1793.02 149.192 1791.06 140.349 1791.06 130.293C1791.06 120.151 1793.02 111.287 1796.94 103.702C1800.86 96.0739 1806.42 90.1506 1813.62 85.9318C1820.87 81.6705 1829.46 79.5398 1839.38 79.5398C1849.31 79.5398 1857.88 81.6705 1865.08 85.9318C1872.32 90.1506 1877.91 96.0739 1881.83 103.702C1885.75 111.287 1887.71 120.151 1887.71 130.293C1887.71 140.349 1885.75 149.192 1881.83 156.82C1877.91 164.405 1872.32 170.328 1865.08 174.589C1857.88 178.808 1849.31 180.918 1839.38 180.918ZM1839.51 159.824C1844.03 159.824 1847.8 158.545 1850.83 155.989C1853.85 153.389 1856.13 149.852 1857.67 145.378C1859.24 140.903 1860.03 135.811 1860.03 130.101C1860.03 124.391 1859.24 119.298 1857.67 114.824C1856.13 110.349 1853.85 106.812 1850.83 104.213C1847.8 101.614 1844.03 100.314 1839.51 100.314C1834.95 100.314 1831.12 101.614 1828.01 104.213C1824.94 106.812 1822.62 110.349 1821.04 114.824C1819.51 119.298 1818.74 124.391 1818.74 130.101C1818.74 135.811 1819.51 140.903 1821.04 145.378C1822.62 149.852 1824.94 153.389 1828.01 155.989C1831.12 158.545 1834.95 159.824 1839.51 159.824ZM1929.64 122.239V179H1902.41V80.8182H1928.37V98.1406H1929.52C1931.69 92.4304 1935.33 87.9133 1940.45 84.5895C1945.56 81.223 1951.76 79.5398 1959.05 79.5398C1965.87 79.5398 1971.81 81.0312 1976.88 84.0142C1981.95 86.9972 1985.89 91.2585 1988.71 96.7983C1991.52 102.295 1992.93 108.858 1992.93 116.486V179H1965.7V121.344C1965.74 115.335 1964.2 110.648 1961.09 107.281C1957.98 103.872 1953.7 102.168 1948.25 102.168C1944.58 102.168 1941.34 102.956 1938.53 104.533C1935.76 106.109 1933.59 108.411 1932.01 111.436C1930.48 114.419 1929.69 118.02 1929.64 122.239Z" fill="white"/>
</svg>
