<svg width="1312" height="800" viewBox="0 0 1312 800" fill="none" xmlns="http://www.w3.org/2000/svg">
<rect x="182" y="100.811" width="948" height="600" rx="300" fill="white" fill-opacity="0.4"/>
<g filter="url(#filter1_d_2452_11980)">
<path d="M36 240.811C36 218.719 53.9086 200.811 76 200.811H396C418.091 200.811 436 218.719 436 240.811V560.811C436 582.902 418.091 600.811 396 600.811H76C53.9086 600.811 36 582.902 36 560.811V240.811Z" fill="black" fill-opacity="0.01" shape-rendering="crispEdges"/>
<path d="M377.68 232.811H74.32C70.8296 232.811 68 235.497 68 238.811C68 242.124 70.8296 244.811 74.32 244.811H377.68C381.17 244.811 384 242.124 384 238.811C384 235.497 381.17 232.811 377.68 232.811Z" fill="#DFDFDE"/>
<path d="M295.676 260.811H74.3243C70.8315 260.811 68 263.497 68 266.811C68 270.124 70.8315 272.811 74.3243 272.811H295.676C299.169 272.811 302 270.124 302 266.811C302 263.497 299.169 260.811 295.676 260.811Z" fill="#DFDFDE"/>
<g clip-path="url(#clip0_2452_11980)">
<rect x="250" y="295.811" width="138" height="12" rx="6" fill="#DFDFDE"/>
<rect x="250" y="320.811" width="152" height="12" rx="6" fill="#DFDFDE"/>
<rect x="250" y="345.811" width="152" height="12" rx="6" fill="#DFDFDE"/>
<rect x="250" y="370.811" width="129" height="12" rx="6" fill="#DFDFDE"/>
<rect x="250" y="395.811" width="152" height="12" rx="6" fill="#DFDFDE"/>
<rect x="250" y="420.811" width="138" height="12" rx="6" fill="#DFDFDE"/>
<rect x="68" y="288.811" width="160" height="144" rx="16" fill="#DFDFDE"/>
<path d="M134.4 357.922C138.156 357.922 141.2 354.887 141.2 351.144C141.2 347.401 138.156 344.366 134.4 344.366C130.644 344.366 127.6 347.401 127.6 351.144C127.6 354.887 130.644 357.922 134.4 357.922Z" fill="#DFDFDE"/>
<path d="M114 347.077C114 341.383 114 338.536 115.112 336.362C116.09 334.449 117.65 332.893 119.569 331.919C121.751 330.811 124.607 330.811 130.32 330.811H165.68C171.393 330.811 174.249 330.811 176.431 331.919C178.35 332.893 179.91 334.449 180.888 336.362C182 338.536 182 341.383 182 347.077V375.544C182 381.238 182 384.085 180.888 386.259C179.91 388.172 178.35 389.728 176.431 390.702C174.249 391.811 171.393 391.811 165.68 391.811H130.32C124.607 391.811 121.751 391.811 119.569 390.702C117.65 389.728 116.09 388.172 115.112 386.259C114 384.085 114 381.238 114 375.544V347.077Z" fill="#DFDFDE"/>
<path d="M121.725 390.888L144.153 368.534C145.5 367.191 146.173 366.52 146.949 366.269C147.632 366.048 148.368 366.048 149.051 366.269C149.827 366.52 150.5 367.191 151.847 368.534L174.125 390.739M154.8 371.477L164.553 361.756C165.9 360.414 166.573 359.743 167.349 359.491C168.032 359.27 168.768 359.27 169.451 359.491C170.227 359.743 170.9 360.414 172.247 361.756L182 371.477M141.2 351.144C141.2 354.887 138.156 357.922 134.4 357.922C130.644 357.922 127.6 354.887 127.6 351.144C127.6 347.401 130.644 344.366 134.4 344.366C138.156 344.366 141.2 347.401 141.2 351.144ZM130.32 391.811H165.68C171.393 391.811 174.249 391.811 176.431 390.702C178.35 389.728 179.91 388.172 180.888 386.259C182 384.085 182 381.238 182 375.544V347.077C182 341.383 182 338.536 180.888 336.362C179.91 334.449 178.35 332.893 176.431 331.919C174.249 330.811 171.393 330.811 165.68 330.811H130.32C124.607 330.811 121.751 330.811 119.569 331.919C117.65 332.893 116.09 334.449 115.112 336.362C114 338.536 114 341.383 114 347.077V375.544C114 381.238 114 384.085 115.112 386.259C116.09 388.172 117.65 389.728 119.569 390.702C121.751 391.811 124.607 391.811 130.32 391.811Z" stroke="white" stroke-width="4"/>
</g>
<path d="M68 464.811C68 455.974 75.1634 448.811 84 448.811H146V478.811H68V464.811Z" fill="#181A1B" fill-opacity="0.1"/>
<path d="M154 448.811H232V478.811H154V448.811Z" fill="#181A1B" fill-opacity="0.1"/>
<path d="M240 448.811H318V478.811H240V448.811Z" fill="#181A1B" fill-opacity="0.1"/>
<path d="M326 448.811H388C396.837 448.811 404 455.974 404 464.811V478.811H326V448.811Z" fill="#181A1B" fill-opacity="0.1"/>
<path d="M68 486.811H146V525.811H68V486.811Z" fill="#181A1B" fill-opacity="0.1"/>
<path d="M154 486.811H232V525.811H154V486.811Z" fill="#181A1B" fill-opacity="0.1"/>
<path d="M240 486.811H318V525.811H240V486.811Z" fill="#181A1B" fill-opacity="0.1"/>
<path d="M326 486.811H404V525.811H326V486.811Z" fill="#181A1B" fill-opacity="0.1"/>
<path d="M68 533.811H146V572.811H84C75.1634 572.811 68 565.647 68 556.811V533.811Z" fill="#181A1B" fill-opacity="0.1"/>
<path d="M154 533.811H232V572.811H154V533.811Z" fill="#181A1B" fill-opacity="0.1"/>
<path d="M240 533.811H318V572.811H240V533.811Z" fill="#181A1B" fill-opacity="0.1"/>
<path d="M326 533.811H404V556.811C404 565.647 396.837 572.811 388 572.811H326V533.811Z" fill="#181A1B" fill-opacity="0.1"/>
</g>
<mask id="path-26-inside-1_2452_11980" fill="white">
<path d="M516 400.811C516 350 557.19 308.811 608 308.811H703.333C754.144 308.811 795.333 350 795.333 400.811C795.333 451.621 754.144 492.811 703.333 492.811H608C557.19 492.811 516 451.621 516 400.811Z"/>
</mask>
<path d="M608 492.811V491.811C606.973 491.811 605.949 491.794 604.931 491.76L604.897 492.759L604.864 493.759C605.905 493.793 606.951 493.811 608 493.811V492.811ZM600.775 492.531L600.852 491.534C598.804 491.375 596.775 491.148 594.767 490.856L594.623 491.845L594.479 492.835C596.531 493.134 598.604 493.365 600.697 493.528L600.775 492.531ZM590.55 491.158L590.739 490.176C588.724 489.789 586.733 489.336 584.768 488.818L584.513 489.785L584.259 490.753C586.267 491.281 588.303 491.745 590.362 492.14L590.55 491.158ZM580.546 488.645L580.844 487.69C578.887 487.079 576.958 486.404 575.061 485.666L574.698 486.598L574.336 487.531C576.276 488.284 578.248 488.974 580.248 489.599L580.546 488.645ZM570.885 485.017L571.289 484.102C569.416 483.275 567.576 482.387 565.772 481.441L565.307 482.326L564.843 483.211C566.686 484.179 568.567 485.087 570.481 485.932L570.885 485.017ZM561.695 480.325L562.199 479.462C560.433 478.431 558.704 477.342 557.016 476.199L556.455 477.026L555.894 477.854C557.62 479.023 559.386 480.136 561.191 481.189L561.695 480.325ZM553.09 474.634L553.687 473.832C552.048 472.611 550.451 471.336 548.9 470.009L548.25 470.77L547.6 471.53C549.186 472.885 550.817 474.188 552.492 475.436L553.09 474.634ZM545.172 468.017L545.855 467.287C544.364 465.892 542.919 464.447 541.524 462.955L540.793 463.638L540.063 464.321C541.489 465.846 542.965 467.322 544.489 468.748L545.172 468.017ZM538.041 460.56L538.801 459.911C537.475 458.359 536.2 456.762 534.978 455.123L534.176 455.721L533.375 456.318C534.622 457.993 535.925 459.625 537.281 461.21L538.041 460.56ZM531.784 452.355L532.612 451.794C531.468 450.106 530.38 448.378 529.349 446.611L528.485 447.115L527.621 447.619C528.675 449.425 529.787 451.191 530.956 452.916L531.784 452.355ZM526.485 443.503L527.37 443.039C526.423 441.235 525.535 439.395 524.708 437.522L523.794 437.926L522.879 438.33C523.724 440.244 524.631 442.124 525.599 443.968L526.485 443.503ZM522.212 434.112L523.144 433.75C522.407 431.852 521.732 429.924 521.121 427.966L520.166 428.264L519.211 428.563C519.836 430.563 520.526 432.534 521.28 434.474L522.212 434.112ZM519.025 424.297L519.992 424.043C519.475 422.077 519.022 420.086 518.635 418.072L517.653 418.26L516.671 418.449C517.066 420.508 517.529 422.543 518.058 424.552L519.025 424.297ZM516.965 414.188L517.955 414.043C517.663 412.036 517.436 410.007 517.277 407.958L516.28 408.036L515.283 408.113C515.445 410.206 515.677 412.28 515.976 414.332L516.965 414.188ZM516.051 403.913L517.051 403.88C517.017 402.861 517 401.838 517 400.811H516H515C515 401.86 515.017 402.905 515.052 403.946L516.051 403.913ZM516 400.811H517C517 399.783 517.017 398.76 517.051 397.741L516.051 397.708L515.052 397.675C515.017 398.716 515 399.761 515 400.811H516ZM516.28 393.585L517.277 393.663C517.436 391.614 517.663 389.585 517.955 387.578L516.965 387.434L515.976 387.289C515.677 389.341 515.445 391.415 515.283 393.508L516.28 393.585ZM517.653 383.361L518.635 383.55C519.022 381.535 519.475 379.544 519.992 377.578L519.025 377.324L518.058 377.069C517.529 379.078 517.066 381.113 516.671 383.173L517.653 383.361ZM520.166 373.357L521.121 373.655C521.732 371.698 522.407 369.769 523.144 367.871L522.212 367.509L521.28 367.147C520.526 369.087 519.836 371.058 519.211 373.059L520.166 373.357ZM523.794 363.695L524.708 364.099C525.535 362.226 526.423 360.387 527.37 358.582L526.485 358.118L525.599 357.653C524.631 359.497 523.724 361.377 522.879 363.291L523.794 363.695ZM528.485 354.506L529.349 355.01C530.38 353.243 531.468 351.515 532.612 349.827L531.784 349.266L530.956 348.705C529.787 350.43 528.675 352.197 527.621 354.002L528.485 354.506ZM534.176 345.9L534.978 346.498C536.2 344.859 537.475 343.262 538.801 341.71L538.041 341.061L537.281 340.411C535.925 341.996 534.622 343.628 533.375 345.303L534.176 345.9ZM540.793 337.983L541.524 338.666C542.919 337.174 544.364 335.729 545.855 334.334L545.172 333.604L544.489 332.873C542.965 334.299 541.489 335.775 540.063 337.3L540.793 337.983ZM548.25 330.852L548.9 331.612C550.451 330.285 552.048 329.01 553.687 327.789L553.09 326.987L552.492 326.185C550.817 327.433 549.186 328.736 547.6 330.091L548.25 330.852ZM556.455 324.595L557.016 325.423C558.704 324.279 560.433 323.19 562.199 322.159L561.695 321.296L561.191 320.432C559.386 321.485 557.62 322.598 555.894 323.767L556.455 324.595ZM565.307 319.295L565.772 320.181C567.576 319.234 569.416 318.346 571.289 317.519L570.885 316.604L570.481 315.689C568.567 316.534 566.686 317.442 564.843 318.41L565.307 319.295ZM574.698 315.023L575.061 315.955C576.958 315.218 578.887 314.542 580.844 313.931L580.546 312.977L580.248 312.022C578.248 312.647 576.276 313.337 574.336 314.091L574.698 315.023ZM584.513 311.836L584.768 312.803C586.733 312.285 588.724 311.832 590.739 311.445L590.55 310.463L590.362 309.481C588.303 309.876 586.267 310.34 584.259 310.869L584.513 311.836ZM594.623 309.776L594.767 310.766C596.775 310.473 598.804 310.246 600.852 310.087L600.775 309.09L600.697 308.093C598.604 308.256 596.531 308.488 594.479 308.786L594.623 309.776ZM604.897 308.862L604.931 309.861C605.95 309.828 606.973 309.811 608 309.811V308.811V307.811C606.951 307.811 605.905 307.828 604.864 307.862L604.897 308.862ZM608 308.811V309.811H610.86V308.811V307.811H608V308.811ZM614.673 308.811V309.811H620.393V308.811V307.811H614.673V308.811ZM624.207 308.811V309.811H629.927V308.811V307.811H624.207V308.811ZM633.74 308.811V309.811H639.46V308.811V307.811H633.74V308.811ZM643.273 308.811V309.811H648.993V308.811V307.811H643.273V308.811ZM652.807 308.811V309.811H658.527V308.811V307.811H652.807V308.811ZM662.34 308.811V309.811H668.06V308.811V307.811H662.34V308.811ZM671.873 308.811V309.811H677.593V308.811V307.811H671.873V308.811ZM681.407 308.811V309.811H687.127V308.811V307.811H681.407V308.811ZM690.94 308.811V309.811H696.66V308.811V307.811H690.94V308.811ZM700.473 308.811V309.811H703.333V308.811V307.811H700.473V308.811ZM703.333 308.811V309.811C704.361 309.811 705.384 309.828 706.403 309.861L706.436 308.862L706.469 307.862C705.428 307.828 704.383 307.811 703.333 307.811V308.811ZM710.559 309.09L710.481 310.087C712.529 310.246 714.559 310.473 716.566 310.766L716.71 309.776L716.854 308.786C714.803 308.488 712.729 308.256 710.636 308.093L710.559 309.09ZM720.783 310.463L720.594 311.445C722.609 311.832 724.6 312.285 726.565 312.803L726.82 311.836L727.075 310.869C725.066 310.34 723.031 309.876 720.971 309.481L720.783 310.463ZM730.787 312.977L730.489 313.931C732.446 314.542 734.375 315.218 736.273 315.955L736.635 315.023L736.997 314.091C735.057 313.337 733.086 312.647 731.085 312.022L730.787 312.977ZM740.449 316.604L740.045 317.519C741.918 318.346 743.757 319.234 745.561 320.181L746.026 319.295L746.491 318.41C744.647 317.442 742.767 316.534 740.852 315.689L740.449 316.604ZM749.638 321.296L749.134 322.159C750.9 323.19 752.629 324.279 754.317 325.423L754.878 324.595L755.439 323.767C753.714 322.598 751.947 321.485 750.142 320.432L749.638 321.296ZM758.244 326.987L757.646 327.789C759.285 329.01 760.882 330.285 762.433 331.612L763.083 330.851L763.733 330.091C762.148 328.736 760.516 327.433 758.841 326.185L758.244 326.987ZM766.161 333.604L765.478 334.334C766.97 335.729 768.415 337.174 769.81 338.666L770.54 337.983L771.27 337.3C769.845 335.775 768.368 334.299 766.844 332.873L766.161 333.604ZM773.292 341.061L772.532 341.71C773.859 343.262 775.134 344.859 776.355 346.498L777.157 345.9L777.959 345.303C776.711 343.628 775.408 341.996 774.052 340.411L773.292 341.061ZM779.549 349.266L778.721 349.827C779.865 351.515 780.954 353.243 781.985 355.01L782.848 354.506L783.712 354.002C782.658 352.197 781.546 350.43 780.377 348.705L779.549 349.266ZM784.849 358.118L783.963 358.582C784.91 360.387 785.798 362.226 786.625 364.099L787.54 363.695L788.455 363.291C787.61 361.377 786.702 359.497 785.734 357.653L784.849 358.118ZM789.121 367.509L788.189 367.871C788.926 369.769 789.602 371.698 790.213 373.655L791.167 373.357L792.122 373.059C791.497 371.058 790.807 369.087 790.053 367.147L789.121 367.509ZM792.308 377.324L791.341 377.578C791.859 379.544 792.312 381.535 792.699 383.55L793.681 383.361L794.663 383.172C794.267 381.113 793.804 379.078 793.275 377.069L792.308 377.324ZM794.368 387.434L793.378 387.578C793.671 389.585 793.898 391.614 794.057 393.663L795.054 393.585L796.051 393.508C795.888 391.415 795.656 389.341 795.357 387.289L794.368 387.434ZM795.282 397.708L794.283 397.741C794.316 398.76 794.333 399.783 794.333 400.811H795.333H796.333C796.333 399.761 796.316 398.716 796.281 397.675L795.282 397.708ZM795.333 400.811H794.333C794.333 401.838 794.316 402.861 794.283 403.88L795.282 403.913L796.281 403.946C796.316 402.905 796.333 401.86 796.333 400.811H795.333ZM795.054 408.036L794.057 407.958C793.898 410.007 793.671 412.036 793.378 414.043L794.368 414.188L795.357 414.332C795.656 412.28 795.888 410.206 796.051 408.113L795.054 408.036ZM793.681 418.26L792.699 418.072C792.312 420.086 791.859 422.077 791.341 424.043L792.308 424.297L793.275 424.552C793.804 422.543 794.267 420.508 794.663 418.449L793.681 418.26ZM791.167 428.264L790.213 427.966C789.602 429.923 788.926 431.852 788.189 433.75L789.121 434.112L790.053 434.474C790.807 432.534 791.497 430.563 792.122 428.563L791.167 428.264ZM787.54 437.926L786.625 437.522C785.798 439.395 784.91 441.235 783.963 443.039L784.849 443.503L785.734 443.968C786.702 442.124 787.61 440.244 788.455 438.33L787.54 437.926ZM782.848 447.115L781.985 446.611C780.954 448.378 779.865 450.106 778.721 451.794L779.549 452.355L780.377 452.916C781.546 451.191 782.658 449.425 783.712 447.619L782.848 447.115ZM777.157 455.721L776.355 455.123C775.134 456.762 773.859 458.359 772.532 459.911L773.292 460.56L774.052 461.21C775.408 459.625 776.711 457.993 777.959 456.318L777.157 455.721ZM770.54 463.638L769.81 462.955C768.415 464.447 766.97 465.892 765.478 467.287L766.161 468.017L766.844 468.748C768.368 467.322 769.845 465.846 771.27 464.321L770.54 463.638ZM763.083 470.77L762.433 470.009C760.882 471.336 759.285 472.611 757.646 473.832L758.244 474.634L758.841 475.436C760.516 474.188 762.148 472.885 763.733 471.53L763.083 470.77ZM754.878 477.026L754.317 476.198C752.629 477.342 750.9 478.431 749.134 479.462L749.638 480.325L750.142 481.189C751.947 480.136 753.714 479.023 755.439 477.854L754.878 477.026ZM746.026 482.326L745.561 481.441C743.757 482.387 741.918 483.275 740.045 484.102L740.449 485.017L740.852 485.932C742.767 485.087 744.647 484.179 746.491 483.211L746.026 482.326ZM736.635 486.598L736.273 485.666C734.375 486.403 732.446 487.079 730.489 487.69L730.787 488.645L731.085 489.599C733.086 488.974 735.057 488.284 736.997 487.531L736.635 486.598ZM726.82 489.785L726.565 488.818C724.6 489.336 722.609 489.789 720.594 490.176L720.783 491.158L720.971 492.14C723.031 491.745 725.066 491.281 727.075 490.753L726.82 489.785ZM716.71 491.845L716.566 490.856C714.558 491.148 712.529 491.375 710.481 491.534L710.559 492.531L710.636 493.528C712.729 493.365 714.803 493.134 716.854 492.835L716.71 491.845ZM706.436 492.759L706.403 491.76C705.384 491.794 704.361 491.811 703.333 491.811V492.811V493.811C704.383 493.811 705.428 493.793 706.469 493.759L706.436 492.759ZM703.333 492.811V491.811H700.473V492.811V493.811H703.333V492.811ZM696.66 492.811V491.811H690.94V492.811V493.811H696.66V492.811ZM687.127 492.811V491.811H681.407V492.811V493.811H687.127V492.811ZM677.593 492.811V491.811H671.873V492.811V493.811H677.593V492.811ZM668.06 492.811V491.811H662.34V492.811V493.811H668.06V492.811ZM658.527 492.811V491.811H652.807V492.811V493.811H658.527V492.811ZM648.993 492.811V491.811H643.273V492.811V493.811H648.993V492.811ZM639.46 492.811V491.811H633.74V492.811V493.811H639.46V492.811ZM629.927 492.811V491.811H624.207V492.811V493.811H629.927V492.811ZM620.393 492.811V491.811H614.673V492.811V493.811H620.393V492.811ZM610.86 492.811V491.811H608V492.811V493.811H610.86V492.811ZM608 492.811V490.811C606.984 490.811 605.972 490.794 604.964 490.76L604.897 492.759L604.831 494.758C605.883 494.793 606.94 494.811 608 494.811V492.811ZM600.775 492.531L600.93 490.537C598.904 490.38 596.897 490.155 594.911 489.866L594.623 491.845L594.335 493.824C596.409 494.126 598.504 494.361 600.62 494.525L600.775 492.531ZM590.55 491.158L590.928 489.194C588.935 488.811 586.966 488.363 585.022 487.851L584.513 489.785L584.004 491.72C586.035 492.254 588.092 492.722 590.173 493.122L590.55 491.158ZM580.546 488.645L581.142 486.735C579.207 486.131 577.299 485.463 575.423 484.734L574.698 486.598L573.974 488.463C575.935 489.224 577.928 489.922 579.95 490.554L580.546 488.645ZM570.885 485.017L571.692 483.187C569.84 482.37 568.021 481.491 566.237 480.555L565.307 482.326L564.378 484.097C566.242 485.075 568.142 485.992 570.077 486.847L570.885 485.017ZM561.695 480.325L562.703 478.598C560.956 477.579 559.247 476.502 557.577 475.371L556.455 477.026L555.333 478.682C557.077 479.864 558.863 480.988 560.687 482.053L561.695 480.325ZM553.09 474.634L554.285 473.03C552.663 471.822 551.084 470.561 549.55 469.249L548.25 470.77L546.95 472.29C548.553 473.66 550.202 474.977 551.895 476.238L553.09 474.634ZM545.172 468.017L546.538 466.557C545.063 465.177 543.634 463.748 542.254 462.272L540.793 463.638L539.333 465.004C540.773 466.545 542.266 468.037 543.806 469.478L545.172 468.017ZM538.041 460.56L539.561 459.261C538.249 457.726 536.988 456.147 535.78 454.526L534.176 455.721L532.573 456.916C533.834 458.609 535.151 460.258 536.521 461.86L538.041 460.56ZM531.784 452.355L533.44 451.233C532.309 449.564 531.232 447.854 530.212 446.107L528.485 447.115L526.758 448.123C527.823 449.948 528.947 451.733 530.129 453.477L531.784 452.355ZM526.485 443.503L528.255 442.574C527.319 440.79 526.441 438.97 525.623 437.118L523.794 437.926L521.964 438.733C522.818 440.668 523.735 442.569 524.714 444.433L526.485 443.503ZM522.212 434.112L524.076 433.388C523.347 431.511 522.679 429.604 522.075 427.668L520.166 428.264L518.257 428.861C518.888 430.883 519.586 432.875 520.348 434.836L522.212 434.112ZM519.025 424.297L520.959 423.788C520.448 421.845 519.999 419.876 519.617 417.883L517.653 418.26L515.688 418.637C516.088 420.719 516.556 422.776 517.091 424.806L519.025 424.297ZM516.965 414.188L518.945 413.899C518.655 411.914 518.431 409.907 518.274 407.881L516.28 408.036L514.286 408.191C514.45 410.306 514.684 412.402 514.986 414.476L516.965 414.188ZM516.051 403.913L518.05 403.847C518.017 402.839 518 401.827 518 400.811H516H514C514 401.871 514.018 402.927 514.052 403.979L516.051 403.913ZM516 400.811H518C518 399.794 518.017 398.782 518.05 397.774L516.051 397.708L514.052 397.642C514.018 398.694 514 399.75 514 400.811H516ZM516.28 393.585L518.274 393.74C518.431 391.714 518.655 389.707 518.945 387.722L516.965 387.434L514.986 387.145C514.684 389.219 514.45 391.315 514.286 393.43L516.28 393.585ZM517.653 383.361L519.617 383.738C519.999 381.746 520.448 379.776 520.959 377.833L519.025 377.324L517.091 376.815C516.556 378.845 516.088 380.902 515.688 382.984L517.653 383.361ZM520.166 373.357L522.075 373.953C522.679 372.017 523.347 370.11 524.076 368.233L522.212 367.509L520.348 366.785C519.586 368.746 518.888 370.738 518.257 372.761L520.166 373.357ZM523.794 363.695L525.623 364.503C526.441 362.651 527.319 360.831 528.255 359.047L526.485 358.118L524.714 357.188C523.735 359.052 522.818 360.953 521.964 362.888L523.794 363.695ZM528.485 354.506L530.212 355.514C531.232 353.767 532.309 352.057 533.44 350.388L531.784 349.266L530.129 348.144C528.947 349.888 527.823 351.673 526.758 353.498L528.485 354.506ZM534.176 345.9L535.78 347.095C536.988 345.474 538.249 343.895 539.561 342.36L538.041 341.061L536.521 339.761C535.151 341.363 533.834 343.012 532.573 344.705L534.176 345.9ZM540.793 337.983L542.254 339.349C543.634 337.874 545.063 336.444 546.538 335.065L545.172 333.604L543.806 332.143C542.266 333.584 540.773 335.076 539.333 336.617L540.793 337.983ZM548.25 330.852L549.55 332.372C551.084 331.06 552.663 329.799 554.285 328.591L553.09 326.987L551.895 325.383C550.202 326.644 548.553 327.961 546.951 329.331L548.25 330.852ZM556.455 324.595L557.577 326.25C559.247 325.119 560.956 324.042 562.703 323.023L561.695 321.296L560.687 319.568C558.863 320.633 557.077 321.758 555.334 322.939L556.455 324.595ZM565.307 319.295L566.237 321.066C568.021 320.13 569.84 319.251 571.692 318.434L570.885 316.604L570.077 314.775C568.142 315.629 566.242 316.546 564.378 317.524L565.307 319.295ZM574.698 315.023L575.423 316.887C577.299 316.158 579.207 315.49 581.142 314.886L580.546 312.977L579.95 311.067C577.928 311.699 575.935 312.397 573.974 313.158L574.698 315.023ZM584.513 311.836L585.022 313.77C586.966 313.258 588.935 312.81 590.928 312.427L590.55 310.463L590.173 308.499C588.092 308.899 586.035 309.367 584.004 309.902L584.513 311.836ZM594.623 309.776L594.911 311.755C596.897 311.466 598.904 311.241 600.93 311.084L600.775 309.09L600.62 307.096C598.504 307.26 596.409 307.495 594.335 307.797L594.623 309.776ZM604.897 308.862L604.964 310.861C605.972 310.827 606.984 310.811 608 310.811V308.811V306.811C606.94 306.811 605.883 306.828 604.831 306.863L604.897 308.862ZM608 308.811V310.811H610.86V308.811V306.811H608V308.811ZM614.673 308.811V310.811H620.393V308.811V306.811H614.673V308.811ZM624.207 308.811V310.811H629.927V308.811V306.811H624.207V308.811ZM633.74 308.811V310.811H639.46V308.811V306.811H633.74V308.811ZM643.273 308.811V310.811H648.993V308.811V306.811H643.273V308.811ZM652.807 308.811V310.811H658.527V308.811V306.811H652.807V308.811ZM662.34 308.811V310.811H668.06V308.811V306.811H662.34V308.811ZM671.873 308.811V310.811H677.593V308.811V306.811H671.873V308.811ZM681.407 308.811V310.811H687.127V308.811V306.811H681.407V308.811ZM690.94 308.811V310.811H696.66V308.811V306.811H690.94V308.811ZM700.473 308.811V310.811H703.333V308.811V306.811H700.473V308.811ZM703.333 308.811V310.811C704.35 310.811 705.362 310.827 706.37 310.861L706.436 308.862L706.502 306.863C705.45 306.828 704.394 306.811 703.333 306.811V308.811ZM710.559 309.09L710.404 311.084C712.43 311.241 714.436 311.466 716.422 311.755L716.71 309.776L716.999 307.797C714.925 307.495 712.829 307.26 710.714 307.096L710.559 309.09ZM720.783 310.463L720.406 312.427C722.398 312.81 724.367 313.258 726.311 313.77L726.82 311.836L727.329 309.902C725.299 309.367 723.242 308.899 721.16 308.499L720.783 310.463ZM730.787 312.977L730.191 314.886C732.127 315.49 734.034 316.158 735.911 316.887L736.635 315.023L737.359 313.158C735.398 312.397 733.406 311.699 731.383 311.067L730.787 312.977ZM740.449 316.604L739.641 318.434C741.493 319.251 743.313 320.13 745.097 321.066L746.026 319.295L746.956 317.524C745.092 316.546 743.191 315.629 741.256 314.775L740.449 316.604ZM749.638 321.296L748.63 323.023C750.377 324.042 752.086 325.119 753.756 326.25L754.878 324.595L756 322.939C754.256 321.758 752.471 320.633 750.646 319.568L749.638 321.296ZM758.244 326.987L757.049 328.591C758.67 329.799 760.249 331.06 761.784 332.372L763.083 330.851L764.383 329.331C762.78 327.961 761.131 326.644 759.438 325.383L758.244 326.987ZM766.161 333.604L764.795 335.065C766.27 336.444 767.699 337.873 769.079 339.349L770.54 337.983L772.001 336.617C770.56 335.076 769.068 333.584 767.527 332.143L766.161 333.604ZM773.292 341.061L771.772 342.36C773.084 343.895 774.345 345.474 775.553 347.095L777.157 345.9L778.761 344.705C777.499 343.012 776.182 341.363 774.813 339.761L773.292 341.061ZM779.549 349.266L777.893 350.388C779.025 352.057 780.101 353.767 781.121 355.514L782.848 354.506L784.576 353.498C783.511 351.673 782.386 349.888 781.205 348.144L779.549 349.266ZM784.849 358.118L783.078 359.047C784.014 360.831 784.892 362.651 785.71 364.503L787.54 363.695L789.369 362.888C788.515 360.953 787.598 359.052 786.62 357.188L784.849 358.118ZM789.121 367.509L787.257 368.233C787.986 370.11 788.654 372.017 789.258 373.953L791.167 373.357L793.076 372.761C792.445 370.738 791.747 368.746 790.985 366.785L789.121 367.509ZM792.308 377.324L790.374 377.833C790.886 379.776 791.334 381.746 791.717 383.738L793.681 383.361L795.645 382.984C795.245 380.902 794.777 378.845 794.242 376.815L792.308 377.324ZM794.368 387.434L792.389 387.722C792.678 389.707 792.902 391.714 793.06 393.74L795.054 393.585L797.048 393.43C796.883 391.315 796.649 389.219 796.347 387.145L794.368 387.434ZM795.282 397.708L793.283 397.774C793.316 398.782 793.333 399.794 793.333 400.811H795.333H797.333C797.333 399.75 797.316 398.694 797.281 397.642L795.282 397.708ZM795.333 400.811H793.333C793.333 401.827 793.316 402.839 793.283 403.847L795.282 403.913L797.281 403.979C797.316 402.927 797.333 401.871 797.333 400.811H795.333ZM795.054 408.036L793.06 407.881C792.902 409.907 792.678 411.914 792.389 413.899L794.368 414.188L796.347 414.476C796.649 412.402 796.883 410.306 797.048 408.191L795.054 408.036ZM793.681 418.26L791.717 417.883C791.334 419.876 790.886 421.845 790.374 423.788L792.308 424.297L794.242 424.806C794.777 422.776 795.245 420.719 795.645 418.637L793.681 418.26ZM791.167 428.264L789.258 427.668C788.654 429.604 787.986 431.511 787.257 433.388L789.121 434.112L790.985 434.836C791.747 432.875 792.445 430.883 793.076 428.861L791.167 428.264ZM787.54 437.926L785.71 437.118C784.892 438.97 784.014 440.79 783.078 442.574L784.849 443.503L786.62 444.433C787.598 442.569 788.515 440.668 789.369 438.733L787.54 437.926ZM782.848 447.115L781.121 446.107C780.101 447.854 779.025 449.564 777.893 451.233L779.549 452.355L781.205 453.477C782.386 451.733 783.511 449.948 784.576 448.123L782.848 447.115ZM777.157 455.721L775.553 454.526C774.345 456.147 773.084 457.726 771.772 459.261L773.292 460.56L774.813 461.86C776.182 460.258 777.499 458.609 778.761 456.916L777.157 455.721ZM770.54 463.638L769.079 462.272C767.699 463.748 766.27 465.177 764.795 466.557L766.161 468.017L767.527 469.478C769.068 468.037 770.56 466.545 772.001 465.004L770.54 463.638ZM763.083 470.77L761.784 469.249C760.249 470.561 758.67 471.822 757.049 473.03L758.244 474.634L759.438 476.238C761.131 474.977 762.78 473.66 764.383 472.29L763.083 470.77ZM754.878 477.026L753.756 475.371C752.086 476.502 750.377 477.579 748.63 478.598L749.638 480.325L750.646 482.053C752.471 480.988 754.256 479.863 756 478.682L754.878 477.026ZM746.026 482.326L745.097 480.555C743.313 481.491 741.493 482.37 739.641 483.187L740.449 485.017L741.256 486.847C743.191 485.992 745.092 485.075 746.956 484.097L746.026 482.326ZM736.635 486.598L735.911 484.734C734.034 485.463 732.127 486.131 730.191 486.735L730.787 488.645L731.383 490.554C733.405 489.922 735.398 489.224 737.359 488.463L736.635 486.598ZM726.82 489.785L726.311 487.851C724.367 488.363 722.398 488.811 720.406 489.194L720.783 491.158L721.16 493.122C723.242 492.722 725.299 492.254 727.329 491.72L726.82 489.785ZM716.71 491.845L716.422 489.866C714.436 490.155 712.43 490.38 710.404 490.537L710.559 492.531L710.714 494.525C712.829 494.361 714.925 494.126 716.999 493.824L716.71 491.845ZM706.436 492.759L706.37 490.76C705.362 490.794 704.35 490.811 703.333 490.811V492.811V494.811C704.394 494.811 705.45 494.793 706.502 494.758L706.436 492.759ZM703.333 492.811V490.811H700.473V492.811V494.811H703.333V492.811ZM696.66 492.811V490.811H690.94V492.811V494.811H696.66V492.811ZM687.127 492.811V490.811H681.407V492.811V494.811H687.127V492.811ZM677.593 492.811V490.811H671.873V492.811V494.811H677.593V492.811ZM668.06 492.811V490.811H662.34V492.811V494.811H668.06V492.811ZM658.527 492.811V490.811H652.807V492.811V494.811H658.527V492.811ZM648.993 492.811V490.811H643.273V492.811V494.811H648.993V492.811ZM639.46 492.811V490.811H633.74V492.811V494.811H639.46V492.811ZM629.927 492.811V490.811H624.207V492.811V494.811H629.927V492.811ZM620.393 492.811V490.811H614.673V492.811V494.811H620.393V492.811ZM610.86 492.811V490.811H608V492.811V494.811H610.86V492.811Z" fill="black" mask="url(#path-26-inside-1_2452_11980)"/>
<path d="M812.418 404.575L809.683 405.487L802.96 407.728L800.72 414.45L799.808 417.186H792.278L791.366 414.45L789.125 407.728L782.403 405.487L779.668 404.575V397.046L782.403 396.134L789.125 393.893L791.366 387.171L792.278 384.436H799.808L800.72 387.171L802.96 393.893L809.683 396.134L812.418 397.046V404.575Z" fill="black" stroke="#FBFBFA" stroke-width="8"/>
<path d="M532.418 404.575L529.683 405.487L522.96 407.728L520.72 414.45L519.808 417.186H512.278L511.366 414.45L509.125 407.728L502.403 405.487L499.668 404.575V397.046L502.403 396.134L509.125 393.893L511.366 387.171L512.278 384.436H519.808L520.72 387.171L522.96 393.893L529.683 396.134L532.418 397.046V404.575Z" fill="black" stroke="#FBFBFA" stroke-width="8"/>
<path d="M601.604 441.677H599.745L603.129 432.064H605.279L608.668 441.677H606.809L604.242 434.036H604.167L601.604 441.677ZM601.665 437.908H606.734V439.307H601.665V437.908ZM614.45 432.064V441.677H612.709V432.064H614.45ZM627.188 441.677L624.476 432.064H626.348L628.08 439.128H628.169L630.019 432.064H631.722L633.576 439.133H633.661L635.393 432.064H637.265L634.553 441.677H632.835L630.91 434.932H630.835L628.906 441.677H627.188ZM642.99 432.064V441.677H641.248V432.064H642.99ZM647.228 433.524V432.064H654.898V433.524H651.927V441.677H650.199V433.524H647.228ZM659.152 441.677V432.064H660.893V436.134H665.347V432.064H667.093V441.677H665.347V437.593H660.893V441.677H659.152ZM677.159 432.064H679.126L681.477 436.317H681.571L683.923 432.064H685.889L682.392 438.091V441.677H680.656V438.091L677.159 432.064ZM697.945 436.871C697.945 437.906 697.751 438.793 697.363 439.532C696.978 440.267 696.452 440.83 695.786 441.221C695.123 441.613 694.37 441.808 693.528 441.808C692.687 441.808 691.933 441.613 691.266 441.221C690.603 440.827 690.077 440.262 689.689 439.527C689.304 438.789 689.112 437.903 689.112 436.871C689.112 435.835 689.304 434.949 689.689 434.214C690.077 433.476 690.603 432.911 691.266 432.52C691.933 432.129 692.687 431.933 693.528 431.933C694.37 431.933 695.123 432.129 695.786 432.52C696.452 432.911 696.978 433.476 697.363 434.214C697.751 434.949 697.945 435.835 697.945 436.871ZM696.194 436.871C696.194 436.142 696.08 435.527 695.852 435.026C695.626 434.522 695.313 434.142 694.913 433.886C694.512 433.626 694.051 433.496 693.528 433.496C693.006 433.496 692.544 433.626 692.144 433.886C691.743 434.142 691.429 434.522 691.2 435.026C690.975 435.527 690.862 436.142 690.862 436.871C690.862 437.6 690.975 438.216 691.2 438.72C691.429 439.22 691.743 439.601 692.144 439.86C692.544 440.117 693.006 440.245 693.528 440.245C694.051 440.245 694.512 440.117 694.913 439.86C695.313 439.601 695.626 439.22 695.852 438.72C696.08 438.216 696.194 437.6 696.194 436.871ZM708.426 432.064H710.167V438.344C710.167 439.033 710.005 439.638 709.679 440.161C709.357 440.683 708.903 441.092 708.318 441.386C707.733 441.677 707.049 441.822 706.267 441.822C705.482 441.822 704.796 441.677 704.211 441.386C703.626 441.092 703.172 440.683 702.85 440.161C702.528 439.638 702.367 439.033 702.367 438.344V432.064H704.108V438.199C704.108 438.599 704.196 438.956 704.371 439.269C704.549 439.582 704.799 439.828 705.122 440.006C705.444 440.181 705.826 440.269 706.267 440.269C706.708 440.269 707.09 440.181 707.412 440.006C707.738 439.828 707.988 439.582 708.163 439.269C708.338 438.956 708.426 438.599 708.426 438.199V432.064Z" fill="url(#paint0_linear_2452_11980)"/>
<path d="M606.964 369.277C611.486 369.277 615.65 371.944 617.481 376.079L633.887 413.123C635.987 417.864 632.515 423.199 627.33 423.199C624.4 423.199 621.766 421.417 620.674 418.698L608.688 388.832C608.021 387.169 605.666 387.169 604.999 388.832L592.978 418.782C591.907 421.45 589.322 423.199 586.447 423.199C581.361 423.199 577.954 417.971 580.008 413.318L596.44 376.092C598.269 371.95 602.436 369.277 606.964 369.277ZM650.299 369.277C654.51 369.277 657.924 372.692 657.924 376.903V415.572C657.924 419.784 654.51 423.199 650.299 423.199C646.087 423.199 642.673 419.784 642.673 415.572V376.903C642.673 372.692 646.087 369.277 650.299 369.277Z" fill="url(#paint1_linear_2452_11980)"/>
<path d="M687.493 369.277C691.704 369.277 695.119 372.692 695.119 376.903V398.703C695.119 403.325 696.018 406.637 697.815 408.64C699.664 410.642 702.18 411.645 705.364 411.645C708.548 411.645 711.038 410.642 712.835 408.64C714.633 406.637 715.532 403.325 715.532 398.703V390.171C715.532 387.962 716.485 385.976 718.003 384.602L719.208 388.211C719.745 389.823 721.254 390.911 722.953 390.911C724.652 390.911 726.16 389.823 726.698 388.211L727.941 384.48C729.539 385.858 730.553 387.895 730.553 390.171V399.165C730.553 407.176 728.319 413.364 723.851 417.729C719.383 422.095 713.169 424.277 705.209 424.277C697.25 424.277 691.036 422.095 686.568 417.729C682.1 413.364 679.867 407.176 679.867 399.165V376.903C679.867 372.692 683.281 369.277 687.493 369.277ZM721.991 387.283C722.043 387.439 722.129 387.575 722.241 387.685V387.686C722.129 387.576 722.042 387.44 721.99 387.284L720.585 383.073H720.586L721.991 387.283Z" fill="#EF7953"/>
<path fill-rule="evenodd" clip-rule="evenodd" d="M719.838 374.596L722.222 367.444H723.685L726.068 374.596L733.22 376.98V378.442L726.068 380.826L723.685 387.978H722.222L719.838 380.826L712.687 378.442V376.98L719.838 374.596Z" fill="url(#paint2_linear_2452_11980)"/>
<g filter="url(#filter2_d_2452_11980)">
<path d="M876 240.811C876 218.719 893.909 200.811 916 200.811H1236C1258.09 200.811 1276 218.719 1276 240.811V560.811C1276 582.902 1258.09 600.811 1236 600.811H916C893.909 600.811 876 582.902 876 560.811V240.811Z" fill="black" fill-opacity="0.01" shape-rendering="crispEdges"/>
<path d="M1217.68 232.811H914.32C910.83 232.811 908 235.497 908 238.811C908 242.124 910.83 244.811 914.32 244.811H1217.68C1221.17 244.811 1224 242.124 1224 238.811C1224 235.497 1221.17 232.811 1217.68 232.811Z" fill="url(#paint3_linear_2452_11980)"/>
<path d="M1135.68 260.811H914.324C910.831 260.811 908 263.497 908 266.811C908 270.124 910.831 272.811 914.324 272.811H1135.68C1139.17 272.811 1142 270.124 1142 266.811C1142 263.497 1139.17 260.811 1135.68 260.811Z" fill="url(#paint4_linear_2452_11980)"/>
<g clip-path="url(#clip1_2452_11980)">
<rect x="1090" y="345.811" width="152" height="12" rx="6" fill="#181A1B" fill-opacity="0.1"/>
<rect x="1090" y="295.811" width="138" height="12" rx="6" fill="url(#paint5_linear_2452_11980)"/>
<rect x="1090" y="320.811" width="152" height="12" rx="6" fill="url(#paint6_linear_2452_11980)"/>
<path d="M1090 351.811C1090 348.497 1092.69 345.811 1096 345.811H1207V357.811H1096C1092.69 357.811 1090 355.124 1090 351.811Z" fill="url(#paint7_linear_2452_11980)"/>
<rect x="1090" y="370.811" width="129" height="12" rx="6" fill="#181A1B" fill-opacity="0.1"/>
<rect x="1090" y="395.811" width="152" height="12" rx="6" fill="#181A1B" fill-opacity="0.1"/>
<rect x="1090" y="420.811" width="138" height="12" rx="6" fill="#181A1B" fill-opacity="0.1"/>
<rect x="1203" y="337.811" width="4" height="28" fill="#E9938A"/>
<rect x="908" y="288.906" width="160" height="144" rx="16" fill="url(#paint8_linear_2452_11980)"/>
<path d="M961.725 390.984L984.153 368.629C985.5 367.287 986.173 366.616 986.949 366.365C987.632 366.144 988.368 366.144 989.051 366.365C989.827 366.616 990.5 367.287 991.847 368.629L1014.13 390.835M994.8 371.573L1004.55 361.851C1005.9 360.509 1006.57 359.838 1007.35 359.587C1008.03 359.366 1008.77 359.366 1009.45 359.587C1010.23 359.838 1010.9 360.509 1012.25 361.851L1022 371.573M981.2 351.24C981.2 354.983 978.156 358.017 974.4 358.017C970.644 358.017 967.6 354.983 967.6 351.24C967.6 347.496 970.644 344.462 974.4 344.462C978.156 344.462 981.2 347.496 981.2 351.24ZM970.32 391.906H1005.68C1011.39 391.906 1014.25 391.906 1016.43 390.798C1018.35 389.823 1019.91 388.268 1020.89 386.355C1022 384.18 1022 381.333 1022 375.64V347.173C1022 341.479 1022 338.632 1020.89 336.457C1019.91 334.544 1018.35 332.989 1016.43 332.014C1014.25 330.906 1011.39 330.906 1005.68 330.906H970.32C964.607 330.906 961.751 330.906 959.569 332.014C957.65 332.989 956.09 334.544 955.112 336.457C954 338.632 954 341.479 954 347.173V375.64C954 381.333 954 384.18 955.112 386.355C956.09 388.268 957.65 389.823 959.569 390.798C961.751 391.906 964.607 391.906 970.32 391.906Z" stroke="white" stroke-width="4"/>
</g>
<g clip-path="url(#clip2_2452_11980)">
<path d="M986 479.811H908V449.811H986V479.811ZM1072 479.811H994V449.811H1072V479.811ZM1158 479.811H1080V449.811H1158V479.811ZM1244 479.811H1166V449.811H1244V479.811Z" fill="url(#paint9_linear_2452_11980)"/>
<path d="M986 526.811H908V487.811H986V526.811ZM1072 526.811H994V487.811H1072V526.811ZM1158 526.811H1080V487.811H1158V526.811ZM1244 526.811H1166V487.811H1244V526.811Z" fill="url(#paint10_linear_2452_11980)"/>
<path d="M986 573.811H908V534.811H986V573.811ZM1072 573.811H994V534.811H1072V573.811ZM1158 573.811H1080V534.811H1158V573.811ZM1244 573.811H1166V534.811H1244V573.811Z" fill="url(#paint11_linear_2452_11980)"/>
</g>
</g>
<rect x="585" y="55.7998" width="10.0984" height="70" fill="#DFDFDE"/>
<rect x="596.935" y="55.7998" width="4.59016" height="70" fill="#DFDFDE"/>
<rect x="603.361" y="55.7998" width="6.42623" height="70" fill="#DFDFDE"/>
<rect x="611.623" y="55.7998" width="1.83607" height="70" fill="#DFDFDE"/>
<rect x="615.295" y="55.7998" width="6.42623" height="70" fill="#DFDFDE"/>
<rect x="623.558" y="55.7998" width="21" height="70" fill="#DFDFDE"/>
<rect x="646.394" y="55.7998" width="6.42623" height="70" fill="#DFDFDE"/>
<rect x="654.656" y="55.7998" width="1.83607" height="70" fill="#DFDFDE"/>
<rect x="658.328" y="55.7998" width="10.0984" height="70" fill="#DFDFDE"/>
<rect x="670.262" y="55.7998" width="4.59016" height="70" fill="#DFDFDE"/>
<rect x="676.688" y="55.7998" width="1.83607" height="70" fill="#DFDFDE"/>
<rect x="680.361" y="55.7998" width="6.42623" height="70" fill="#DFDFDE"/>
<rect x="688.623" y="55.7998" width="11" height="70" fill="#DFDFDE"/>
<rect x="701.459" y="55.7998" width="1.83607" height="70" fill="#DFDFDE"/>
<rect x="705.131" y="55.7998" width="6.42623" height="70" fill="#DFDFDE"/>
<rect x="713.394" y="55.7998" width="1.83607" height="70" fill="#DFDFDE"/>
<rect x="717.065" y="55.7998" width="6.42623" height="70" fill="#DFDFDE"/>
<rect x="725.328" y="55.7998" width="1.83607" height="70" fill="#DFDFDE"/>
<path opacity="0.1" d="M960.16 707.811H948.84L944.34 696.104H923.738L919.484 707.811H908.445L928.52 656.271H939.523L960.16 707.811ZM941 687.42L933.898 668.295L926.938 687.42H941ZM973.027 681.865L964.062 680.248C965.07 676.639 966.805 673.967 969.266 672.232C971.727 670.498 975.383 669.631 980.234 669.631C984.641 669.631 987.922 670.158 990.078 671.213C992.234 672.244 993.746 673.568 994.613 675.186C995.504 676.779 995.949 679.721 995.949 684.01L995.844 695.541C995.844 698.822 995.996 701.248 996.301 702.818C996.629 704.365 997.227 706.029 998.094 707.811H988.32C988.062 707.154 987.746 706.182 987.371 704.893C987.207 704.307 987.09 703.92 987.02 703.732C985.332 705.373 983.527 706.604 981.605 707.424C979.684 708.244 977.633 708.654 975.453 708.654C971.609 708.654 968.574 707.611 966.348 705.525C964.145 703.439 963.043 700.803 963.043 697.615C963.043 695.506 963.547 693.631 964.555 691.99C965.562 690.326 966.969 689.061 968.773 688.193C970.602 687.303 973.227 686.529 976.648 685.873C981.266 685.006 984.465 684.197 986.246 683.447V682.463C986.246 680.564 985.777 679.217 984.84 678.42C983.902 677.6 982.133 677.189 979.531 677.189C977.773 677.189 976.402 677.541 975.418 678.244C974.434 678.924 973.637 680.131 973.027 681.865ZM986.246 689.881C984.98 690.303 982.977 690.807 980.234 691.393C977.492 691.979 975.699 692.553 974.855 693.115C973.566 694.029 972.922 695.189 972.922 696.596C972.922 697.979 973.438 699.174 974.469 700.182C975.5 701.189 976.812 701.693 978.406 701.693C980.188 701.693 981.887 701.107 983.504 699.936C984.699 699.045 985.484 697.955 985.859 696.666C986.117 695.822 986.246 694.217 986.246 691.85V689.881Z" fill="#DFDFDE"/>
<path d="M699.6 620.689C703.576 620.689 706.8 617.455 706.8 613.466C706.8 609.478 703.576 606.244 699.6 606.244C695.624 606.244 692.4 609.478 692.4 613.466C692.4 617.455 695.624 620.689 699.6 620.689Z" fill="#DFDFDE"/>
<path d="M678 609.133C678 603.066 678 600.032 679.177 597.715C680.213 595.676 681.865 594.019 683.897 592.981C686.207 591.8 689.231 591.8 695.28 591.8H732.72C738.769 591.8 741.793 591.8 744.103 592.981C746.135 594.019 747.787 595.676 748.823 597.715C750 600.032 750 603.066 750 609.133V639.466C750 645.534 750 648.567 748.823 650.885C747.787 652.923 746.135 654.58 744.103 655.619C741.793 656.8 738.769 656.8 732.72 656.8H695.28C689.231 656.8 686.207 656.8 683.897 655.619C681.865 654.58 680.213 652.923 679.177 650.885C678 648.567 678 645.534 678 639.466V609.133Z" fill="#DFDFDE"/>
<path d="M686.18 655.817L709.927 631.996C711.353 630.566 712.066 629.851 712.888 629.583C713.611 629.348 714.389 629.348 715.112 629.583C715.934 629.851 716.647 630.566 718.073 631.996L741.662 655.658M721.2 635.133L731.527 624.774C732.953 623.344 733.666 622.629 734.488 622.361C735.211 622.126 735.989 622.126 736.712 622.361C737.534 622.629 738.247 623.344 739.673 624.774L750 635.133M706.8 613.466C706.8 617.455 703.576 620.689 699.6 620.689C695.624 620.689 692.4 617.455 692.4 613.466C692.4 609.478 695.624 606.244 699.6 606.244C703.576 606.244 706.8 609.478 706.8 613.466ZM695.28 656.8H732.72C738.769 656.8 741.793 656.8 744.103 655.619C746.135 654.58 747.787 652.923 748.823 650.885C750 648.567 750 645.534 750 639.466V609.133C750 603.066 750 600.032 748.823 597.715C747.787 595.676 746.135 594.019 744.103 592.981C741.793 591.8 738.769 591.8 732.72 591.8H695.28C689.231 591.8 686.207 591.8 683.897 592.981C681.865 594.019 680.213 595.676 679.177 597.715C678 600.032 678 603.066 678 609.133V639.466C678 645.534 678 648.567 679.177 650.885C680.213 652.923 681.865 654.58 683.897 655.619C686.207 656.8 689.231 656.8 695.28 656.8Z" stroke="#F7F7F7" stroke-width="4"/>
<path fill-rule="evenodd" clip-rule="evenodd" d="M1067.47 88.7998C1070.03 88.7998 1072.1 90.8705 1072.1 93.4247V98.0496H1088.32C1090.87 98.0496 1092.95 100.12 1092.95 102.675C1092.95 105.229 1090.87 107.299 1088.32 107.299H1083.34C1082.38 114.03 1079.44 121.727 1074.86 128.346L1083.19 136.34C1085.03 138.111 1085.09 141.038 1083.32 142.88C1081.54 144.721 1078.61 144.778 1076.77 143.008L1068.85 135.405C1064.33 139.691 1058.71 143.031 1052.09 144.225C1049.57 144.679 1047.16 143.009 1046.71 140.495C1046.25 137.981 1047.92 135.576 1050.44 135.122C1054.8 134.337 1058.75 132.136 1062.17 128.986L1052.68 119.883C1050.84 118.113 1050.78 115.185 1052.56 113.344C1054.33 111.503 1057.26 111.445 1059.1 113.216L1068.08 121.832C1071.12 117.073 1073.11 111.823 1073.95 107.299H1046.63C1044.07 107.299 1042 105.229 1042 102.675C1042 100.12 1044.07 98.0496 1046.63 98.0496H1062.84V93.4247C1062.84 90.8705 1064.92 88.7998 1067.47 88.7998ZM1109.16 111.924C1111.07 111.924 1112.78 113.095 1113.47 114.873L1129.68 156.497C1130.61 158.878 1129.43 161.558 1127.05 162.484C1124.66 163.41 1121.98 162.231 1121.05 159.85L1118.6 153.549H1099.72L1097.26 159.85C1096.34 162.231 1093.65 163.41 1091.27 162.484C1088.88 161.558 1087.7 158.878 1088.63 156.497L1104.84 114.873C1105.53 113.095 1107.25 111.924 1109.16 111.924ZM1103.32 144.299H1114.99L1109.16 129.31L1103.32 144.299Z" fill="#DFDFDE"/>
<defs>
<filter id="filter1_d_2452_11980" x="24" y="192.811" width="424" height="424" filterUnits="userSpaceOnUse" color-interpolation-filters="sRGB">
<feFlood flood-opacity="0" result="BackgroundImageFix"/>
<feColorMatrix in="SourceAlpha" type="matrix" values="0 0 0 0 0 0 0 0 0 0 0 0 0 0 0 0 0 0 127 0" result="hardAlpha"/>
<feOffset dy="4"/>
<feGaussianBlur stdDeviation="6"/>
<feComposite in2="hardAlpha" operator="out"/>
<feColorMatrix type="matrix" values="0 0 0 0 0 0 0 0 0 0 0 0 0 0 0 0 0 0 0.04 0"/>
<feBlend mode="normal" in2="BackgroundImageFix" result="effect1_dropShadow_2452_11980"/>
<feBlend mode="normal" in="BackgroundImageFix" in2="effect1_dropShadow_2452_11980" result="BackgroundImageFix"/>
<feBlend mode="normal" in="SourceGraphic" in2="BackgroundImageFix" result="shape"/>
</filter>
<filter id="filter2_d_2452_11980" x="864" y="192.811" width="424" height="424" filterUnits="userSpaceOnUse" color-interpolation-filters="sRGB">
<feFlood flood-opacity="0" result="BackgroundImageFix"/>
<feColorMatrix in="SourceAlpha" type="matrix" values="0 0 0 0 0 0 0 0 0 0 0 0 0 0 0 0 0 0 127 0" result="hardAlpha"/>
<feOffset dy="4"/>
<feGaussianBlur stdDeviation="6"/>
<feComposite in2="hardAlpha" operator="out"/>
<feColorMatrix type="matrix" values="0 0 0 0 0 0 0 0 0 0 0 0 0 0 0 0 0 0 0.04 0"/>
<feBlend mode="normal" in2="BackgroundImageFix" result="effect1_dropShadow_2452_11980"/>
<feBlend mode="normal" in="BackgroundImageFix" in2="effect1_dropShadow_2452_11980" result="BackgroundImageFix"/>
<feBlend mode="normal" in="SourceGraphic" in2="BackgroundImageFix" result="shape"/>
</filter>
<linearGradient id="paint0_linear_2452_11980" x1="599.267" y1="431.768" x2="599.2" y2="440.561" gradientUnits="userSpaceOnUse">
<stop stop-color="#EF7953"/>
<stop offset="1" stop-color="#5F73F1"/>
</linearGradient>
<linearGradient id="paint1_linear_2452_11980" x1="579.4" y1="383.761" x2="742.911" y2="460.171" gradientUnits="userSpaceOnUse">
<stop stop-color="#586AF5"/>
<stop offset="1" stop-color="#9700D2"/>
</linearGradient>
<linearGradient id="paint2_linear_2452_11980" x1="673.131" y1="366.068" x2="703.702" y2="440.925" gradientUnits="userSpaceOnUse">
<stop stop-color="#586AF5"/>
<stop offset="1" stop-color="#9700D2"/>
</linearGradient>
<linearGradient id="paint3_linear_2452_11980" x1="890.826" y1="234.979" x2="895.074" y2="276.985" gradientUnits="userSpaceOnUse">
<stop stop-color="#7582FF"/>
<stop offset="1" stop-color="#FF9573"/>
</linearGradient>
<linearGradient id="paint4_linear_2452_11980" x1="895.283" y1="262.979" x2="900.971" y2="304.638" gradientUnits="userSpaceOnUse">
<stop stop-color="#7582FF"/>
<stop offset="1" stop-color="#FF9573"/>
</linearGradient>
<linearGradient id="paint5_linear_2452_11980" x1="1082.5" y1="297.979" x2="1091.83" y2="338.255" gradientUnits="userSpaceOnUse">
<stop stop-color="#7582FF"/>
<stop offset="1" stop-color="#FF9573"/>
</linearGradient>
<linearGradient id="paint6_linear_2452_11980" x1="1081.74" y1="322.979" x2="1090.28" y2="363.619" gradientUnits="userSpaceOnUse">
<stop stop-color="#7582FF"/>
<stop offset="1" stop-color="#FF9573"/>
</linearGradient>
<linearGradient id="paint7_linear_2452_11980" x1="1083.64" y1="347.979" x2="1094.43" y2="387.469" gradientUnits="userSpaceOnUse">
<stop stop-color="#7582FF"/>
<stop offset="1" stop-color="#FF9573"/>
</linearGradient>
<linearGradient id="paint8_linear_2452_11980" x1="899.304" y1="314.924" x2="1078.49" y2="417.651" gradientUnits="userSpaceOnUse">
<stop stop-color="#7582FF"/>
<stop offset="1" stop-color="#FF9573"/>
</linearGradient>
<linearGradient id="paint9_linear_2452_11980" x1="908" y1="487.172" x2="1180.44" y2="621.372" gradientUnits="userSpaceOnUse">
<stop stop-color="#7582FF"/>
<stop offset="1" stop-color="#FF9573"/>
</linearGradient>
<linearGradient id="paint10_linear_2452_11980" x1="908" y1="525.172" x2="1180.44" y2="659.372" gradientUnits="userSpaceOnUse">
<stop stop-color="#7582FF"/>
<stop offset="1" stop-color="#FF9573"/>
</linearGradient>
<linearGradient id="paint11_linear_2452_11980" x1="908" y1="572.172" x2="1180.44" y2="706.372" gradientUnits="userSpaceOnUse">
<stop stop-color="#7582FF"/>
<stop offset="1" stop-color="#FF9573"/>
</linearGradient>
<clipPath id="clip0_2452_11980">
<rect width="336" height="144" fill="white" transform="translate(68 288.811)"/>
</clipPath>
<clipPath id="clip1_2452_11980">
<rect width="336" height="145" fill="white" transform="translate(908 288.811)"/>
</clipPath>
<clipPath id="clip2_2452_11980">
<rect x="908" y="449.811" width="336" height="124" rx="16" fill="white"/>
</clipPath>
</defs>
</svg>
