<svg width="751" height="296" viewBox="0 0 751 296" fill="none" xmlns="http://www.w3.org/2000/svg">
<rect x="4" y="37.4102" width="744" height="220" rx="21" fill="#1A1919" stroke="url(#paint0_linear_2452_11941)" stroke-width="6"/>
<path d="M174.727 146.956C174.727 161.231 172.021 173.376 166.609 183.39C161.24 193.404 153.91 201.054 144.62 206.338C135.373 211.579 124.976 214.2 113.427 214.2C101.794 214.2 91.3533 211.558 82.1062 206.274C72.859 200.99 65.5508 193.341 60.1815 183.326C54.8121 173.312 52.1275 161.189 52.1275 146.956C52.1275 132.68 54.8121 120.535 60.1815 110.521C65.5508 100.507 72.859 92.8789 82.1062 87.6374C91.3533 82.3533 101.794 79.7113 113.427 79.7113C124.976 79.7113 135.373 82.3533 144.62 87.6374C153.91 92.8789 161.24 100.507 166.609 110.521C172.021 120.535 174.727 132.68 174.727 146.956ZM146.666 146.956C146.666 137.708 145.281 129.91 142.511 123.561C139.784 117.211 135.927 112.396 130.941 109.115C125.956 105.833 120.118 104.193 113.427 104.193C106.737 104.193 100.899 105.833 95.913 109.115C90.9272 112.396 87.0494 117.211 84.2795 123.561C81.5522 129.91 80.1886 137.708 80.1886 146.956C80.1886 156.203 81.5522 164.001 84.2795 170.35C87.0494 176.7 90.9272 181.515 95.913 184.797C100.899 188.078 106.737 189.718 113.427 189.718C120.118 189.718 125.956 188.078 130.941 184.797C135.927 181.515 139.784 176.7 142.511 170.35C145.281 164.001 146.666 156.203 146.666 146.956ZM307.734 127.332H279.737C279.225 123.71 278.181 120.493 276.604 117.68C275.028 114.825 273.004 112.396 270.532 110.393C268.06 108.39 265.205 106.856 261.967 105.791C258.771 104.725 255.298 104.193 251.548 104.193C244.772 104.193 238.87 105.876 233.842 109.243C228.813 112.566 224.914 117.424 222.144 123.816C219.374 130.166 217.989 137.879 217.989 146.956C217.989 156.288 219.374 164.129 222.144 170.478C224.957 176.828 228.877 181.622 233.906 184.86C238.934 188.099 244.751 189.718 251.356 189.718C255.063 189.718 258.494 189.228 261.647 188.248C264.843 187.268 267.677 185.841 270.148 183.966C272.62 182.048 274.665 179.725 276.285 176.998C277.947 174.271 279.097 171.16 279.737 167.666L307.734 167.794C307.009 173.802 305.198 179.598 302.3 185.18C299.445 190.72 295.589 195.684 290.731 200.074C285.915 204.42 280.163 207.872 273.472 210.429C266.825 212.943 259.303 214.2 250.908 214.2C239.232 214.2 228.792 211.558 219.587 206.274C210.425 200.99 203.181 193.341 197.854 183.326C192.57 173.312 189.928 161.189 189.928 146.956C189.928 132.68 192.613 120.535 197.982 110.521C203.352 100.507 210.638 92.8789 219.843 87.6374C229.048 82.3533 239.403 79.7113 250.908 79.7113C258.494 79.7113 265.525 80.7766 272.002 82.9073C278.522 85.038 284.296 88.1488 289.325 92.2397C294.353 96.288 298.444 101.252 301.597 107.133C304.793 113.014 306.839 119.747 307.734 127.332ZM324.581 212.41V81.5011H376.229C386.115 81.5011 394.553 83.2695 401.541 86.8065C408.572 90.3008 413.92 95.2653 417.585 101.7C421.293 108.092 423.146 115.613 423.146 124.264C423.146 132.957 421.271 140.436 417.521 146.7C413.771 152.922 408.338 157.694 401.222 161.018C394.148 164.342 385.582 166.004 375.526 166.004H340.945V143.76H371.051C376.335 143.76 380.724 143.035 384.219 141.586C387.713 140.137 390.313 137.964 392.017 135.066C393.764 132.169 394.638 128.568 394.638 124.264C394.638 119.917 393.764 116.252 392.017 113.27C390.313 110.287 387.692 108.028 384.155 106.494C380.661 104.917 376.25 104.129 370.923 104.129H352.259V212.41H324.581ZM395.277 152.836L427.812 212.41H397.259L365.426 152.836H395.277ZM530.653 114.228V134.683H470.056V114.228H530.653ZM483.927 212.41V107.133C483.927 100.017 485.312 94.1147 488.082 89.4272C490.895 84.7397 494.73 81.2241 499.588 78.8803C504.446 76.5366 509.964 75.3647 516.143 75.3647C520.319 75.3647 524.133 75.6843 527.585 76.3235C531.079 76.9627 533.679 77.538 535.383 78.0494L530.525 98.5039C529.46 98.163 528.139 97.8434 526.562 97.5451C525.028 97.2468 523.451 97.0977 521.832 97.0977C517.826 97.0977 515.035 98.0352 513.458 99.9102C511.882 101.743 511.093 104.321 511.093 107.645V212.41H483.927ZM585.134 214.328C575.205 214.328 566.618 212.218 559.374 208C552.172 203.738 546.611 197.815 542.69 190.23C538.77 182.602 536.81 173.76 536.81 163.703C536.81 153.561 538.77 144.697 542.69 137.112C546.611 129.484 552.172 123.561 559.374 119.342C566.618 115.081 575.205 112.95 585.134 112.95C595.062 112.95 603.628 115.081 610.83 119.342C618.074 123.561 623.656 129.484 627.577 137.112C631.497 144.697 633.457 153.561 633.457 163.703C633.457 173.76 631.497 182.602 627.577 190.23C623.656 197.815 618.074 203.738 610.83 208C603.628 212.218 595.062 214.328 585.134 214.328ZM585.261 193.234C589.778 193.234 593.55 191.956 596.575 189.399C599.601 186.799 601.881 183.262 603.415 178.788C604.991 174.314 605.78 169.221 605.78 163.511C605.78 157.801 604.991 152.708 603.415 148.234C601.881 143.76 599.601 140.223 596.575 137.623C593.55 135.024 589.778 133.724 585.261 133.724C580.702 133.724 576.866 135.024 573.756 137.623C570.688 140.223 568.365 143.76 566.788 148.234C565.254 152.708 564.487 157.801 564.487 163.511C564.487 169.221 565.254 174.314 566.788 178.788C568.365 183.262 570.688 186.799 573.756 189.399C576.866 191.956 580.702 193.234 585.261 193.234ZM648.163 212.41V114.228H674.562V131.359H675.585C677.375 125.265 680.379 120.663 684.598 117.552C688.817 114.399 693.675 112.822 699.172 112.822C700.536 112.822 702.006 112.907 703.582 113.078C705.159 113.248 706.544 113.483 707.737 113.781V137.943C706.459 137.559 704.69 137.218 702.432 136.92C700.173 136.622 698.107 136.473 696.232 136.473C692.226 136.473 688.646 137.346 685.493 139.093C682.382 140.798 679.911 143.184 678.078 146.252C676.288 149.321 675.393 152.858 675.393 156.863V212.41H648.163Z" fill="url(#paint1_linear_2452_11941)"/>
<path d="M335.5 260.82H0.5V34.8203H335.5V260.82Z" fill="url(#paint2_linear_2452_11941)"/>
<rect x="335" y="16.8203" width="12" height="262" fill="#F3927C"/>
<rect x="347" y="16.8203" width="12" height="262" fill="#1A1919"/>
<defs>
<linearGradient id="paint0_linear_2452_11941" x1="1" y1="147.41" x2="751" y2="147.41" gradientUnits="userSpaceOnUse">
<stop stop-color="#FF9573"/>
<stop offset="1" stop-color="#505EE2"/>
</linearGradient>
<linearGradient id="paint1_linear_2452_11941" x1="347.11" y1="147.41" x2="707.825" y2="132.023" gradientUnits="userSpaceOnUse">
<stop stop-color="#FF9573"/>
<stop offset="1" stop-color="#505EE2"/>
</linearGradient>
<linearGradient id="paint2_linear_2452_11941" x1="29.9759" y1="147.999" x2="315.918" y2="143.529" gradientUnits="userSpaceOnUse">
<stop stop-color="#EF7953" stop-opacity="0.1"/>
<stop offset="1" stop-color="#EF7953" stop-opacity="0.4"/>
</linearGradient>
</defs>
</svg>
