<svg viewBox="0 0 1920 228" fill="none" xmlns="http://www.w3.org/2000/svg">
<path d="M-128.622 179V48.0909H-76.9744C-67.0455 48.0909 -58.5866 49.9872 -51.598 53.7798C-44.6094 57.5298 -39.2827 62.75 -35.6179 69.4403C-31.9105 76.0881 -30.0568 83.7585 -30.0568 92.4517C-30.0568 101.145 -31.9318 108.815 -35.6818 115.463C-39.4318 122.111 -44.8651 127.288 -51.9815 130.996C-59.0554 134.703 -67.6207 136.557 -77.6776 136.557H-110.597V114.376H-82.152C-76.8253 114.376 -72.4361 113.46 -68.9844 111.628C-65.4901 109.753 -62.8906 107.175 -61.1861 103.893C-59.4389 100.57 -58.5653 96.7557 -58.5653 92.4517C-58.5653 88.1051 -59.4389 84.3125 -61.1861 81.0739C-62.8906 77.7926 -65.4901 75.2571 -68.9844 73.4673C-72.4787 71.6349 -76.9105 70.7188 -82.2798 70.7188H-100.945V179H-128.622ZM31.3271 179H-15.0792V48.0909H31.7106C44.8782 48.0909 56.2134 50.7116 65.7163 55.9531C75.2191 61.152 82.5274 68.6307 87.641 78.3892C92.7972 88.1477 95.3754 99.8239 95.3754 113.418C95.3754 127.054 92.7972 138.773 87.641 148.574C82.5274 158.375 75.1765 165.896 65.5884 171.138C56.043 176.379 44.6225 179 31.3271 179ZM12.5984 155.286H30.1765C38.3583 155.286 45.2404 153.837 50.8228 150.939C56.4478 147.999 60.6666 143.46 63.4791 137.324C66.3342 131.145 67.7617 123.176 67.7617 113.418C67.7617 103.744 66.3342 95.8395 63.4791 89.7031C60.6666 83.5668 56.4691 79.0497 50.8867 76.152C45.3043 73.2543 38.4222 71.8054 30.2404 71.8054H12.5984V155.286ZM112.878 179V48.0909H199.554V70.9105H140.555V102.104H193.801V124.923H140.555V179H112.878ZM293.462 180.918C284.428 180.918 276.629 179.298 270.067 176.06C263.504 172.821 258.455 168.432 254.918 162.892C251.423 157.31 249.676 151.088 249.676 144.227C249.676 139.114 250.699 134.575 252.744 130.612C254.79 126.649 257.645 123.006 261.31 119.682C264.974 116.315 269.236 112.97 274.094 109.646L299.47 92.9631C302.751 90.875 305.159 88.6804 306.693 86.3793C308.227 84.0355 308.994 81.5 308.994 78.7727C308.994 76.1733 307.95 73.7656 305.862 71.5497C303.774 69.3338 300.812 68.2472 296.977 68.2898C294.42 68.2898 292.205 68.8651 290.33 70.0156C288.455 71.1236 286.984 72.5937 285.919 74.4261C284.896 76.2159 284.385 78.2188 284.385 80.4347C284.385 83.1619 285.152 85.9318 286.686 88.7443C288.22 91.5568 290.266 94.5398 292.822 97.6932C295.379 100.804 298.17 104.17 301.196 107.793L363.263 179H334.882L283.107 121.344C279.697 117.466 276.288 113.418 272.879 109.199C269.513 104.937 266.7 100.42 264.442 95.6477C262.183 90.8324 261.054 85.6122 261.054 79.9872C261.054 73.6378 262.524 67.9276 265.464 62.8565C268.447 57.7855 272.624 53.7798 277.993 50.8395C283.362 47.8565 289.626 46.3651 296.786 46.3651C303.774 46.3651 309.804 47.7926 314.875 50.6477C319.989 53.4602 323.909 57.2102 326.636 61.8977C329.406 66.5426 330.791 71.6562 330.791 77.2386C330.791 83.4176 329.257 89.0213 326.189 94.0497C323.163 99.0355 318.902 103.51 313.405 107.473L286.686 126.713C283.064 129.355 280.379 132.061 278.632 134.831C276.928 137.558 276.075 140.179 276.075 142.693C276.075 145.804 276.842 148.595 278.376 151.067C279.911 153.538 282.084 155.499 284.896 156.947C287.709 158.354 291.011 159.057 294.804 159.057C299.406 159.057 303.945 158.013 308.419 155.925C312.936 153.794 317.027 150.79 320.692 146.912C324.399 142.991 327.361 138.347 329.577 132.977C331.793 127.608 332.901 121.663 332.901 115.143H355.464C355.464 123.155 354.591 130.378 352.844 136.812C351.097 143.205 348.668 148.787 345.557 153.56C342.446 158.29 338.888 162.168 334.882 165.193C333.604 166.003 332.368 166.77 331.175 167.494C329.982 168.219 328.746 168.986 327.467 169.795C322.609 173.716 317.176 176.55 311.168 178.297C305.202 180.044 299.3 180.918 293.462 180.918ZM438.458 48.0909V179H410.78V48.0909H438.458ZM457.718 179V80.8182H483.67V98.1406H484.82C486.866 92.3878 490.275 87.8494 495.048 84.5256C499.82 81.2017 505.531 79.5398 512.178 79.5398C518.911 79.5398 524.643 81.223 529.373 84.5895C534.103 87.9133 537.256 92.4304 538.833 98.1406H539.856C541.859 92.5156 545.481 88.0199 550.722 84.6534C556.006 81.2443 562.249 79.5398 569.451 79.5398C578.613 79.5398 586.049 82.4588 591.759 88.2969C597.512 94.0923 600.389 102.317 600.389 112.97V179H573.222V118.339C573.222 112.885 571.773 108.794 568.876 106.067C565.978 103.339 562.356 101.976 558.009 101.976C553.066 101.976 549.21 103.553 546.44 106.706C543.67 109.817 542.285 113.929 542.285 119.043V179H515.886V117.764C515.886 112.949 514.501 109.114 511.731 106.259C509.004 103.403 505.403 101.976 500.928 101.976C497.903 101.976 495.175 102.743 492.746 104.277C490.36 105.768 488.464 107.878 487.058 110.605C485.651 113.29 484.948 116.443 484.948 120.065V179H457.718ZM646.895 180.854C640.631 180.854 635.048 179.767 630.148 177.594C625.247 175.378 621.369 172.118 618.514 167.814C615.702 163.467 614.295 158.055 614.295 151.578C614.295 146.124 615.297 141.543 617.3 137.835C619.303 134.128 622.03 131.145 625.482 128.886C628.933 126.628 632.854 124.923 637.243 123.773C641.675 122.622 646.32 121.812 651.178 121.344C656.888 120.747 661.49 120.193 664.984 119.682C668.479 119.128 671.014 118.318 672.591 117.253C674.168 116.187 674.956 114.611 674.956 112.523V112.139C674.956 108.091 673.678 104.959 671.121 102.743C668.607 100.527 665.027 99.419 660.382 99.419C655.482 99.419 651.582 100.506 648.685 102.679C645.787 104.81 643.869 107.494 642.932 110.733L617.747 108.688C619.026 102.722 621.54 97.5653 625.29 93.2188C629.04 88.8295 633.876 85.4631 639.8 83.1193C645.766 80.733 652.669 79.5398 660.51 79.5398C665.964 79.5398 671.185 80.179 676.17 81.4574C681.199 82.7358 685.652 84.7173 689.53 87.402C693.45 90.0866 696.54 93.5384 698.798 97.7571C701.057 101.933 702.186 106.94 702.186 112.778V179H676.362V165.385H675.595C674.018 168.453 671.909 171.159 669.267 173.503C666.625 175.804 663.45 177.615 659.743 178.936C656.036 180.214 651.753 180.854 646.895 180.854ZM654.693 162.061C658.699 162.061 662.236 161.273 665.304 159.696C668.372 158.077 670.78 155.903 672.527 153.176C674.274 150.449 675.148 147.359 675.148 143.908V133.489C674.295 134.043 673.124 134.554 671.632 135.023C670.183 135.449 668.543 135.854 666.71 136.237C664.878 136.578 663.045 136.898 661.213 137.196C659.381 137.452 657.719 137.686 656.227 137.899C653.031 138.368 650.24 139.114 647.854 140.136C645.467 141.159 643.614 142.544 642.293 144.291C640.972 145.996 640.311 148.126 640.311 150.683C640.311 154.391 641.653 157.224 644.338 159.185C647.065 161.102 650.517 162.061 654.693 162.061ZM764.545 217.864C755.724 217.864 748.16 216.649 741.853 214.22C735.589 211.834 730.603 208.574 726.896 204.44C723.188 200.307 720.781 195.662 719.673 190.506L744.857 187.118C745.624 189.078 746.839 190.911 748.501 192.615C750.163 194.32 752.357 195.683 755.085 196.706C757.854 197.771 761.221 198.304 765.184 198.304C771.107 198.304 775.987 196.855 779.822 193.957C783.7 191.102 785.638 186.308 785.638 179.575V161.614H784.488C783.295 164.341 781.505 166.919 779.119 169.348C776.732 171.777 773.664 173.759 769.914 175.293C766.164 176.827 761.69 177.594 756.491 177.594C749.119 177.594 742.407 175.889 736.356 172.48C730.347 169.028 725.553 163.766 721.974 156.692C718.437 149.575 716.668 140.584 716.668 129.717C716.668 118.595 718.479 109.305 722.102 101.848C725.724 94.3906 730.539 88.8082 736.548 85.1009C742.599 81.3935 749.225 79.5398 756.427 79.5398C761.924 79.5398 766.526 80.4773 770.234 82.3523C773.941 84.1847 776.924 86.4858 779.183 89.2557C781.484 91.983 783.252 94.6676 784.488 97.3097H785.511V80.8182H812.549V179.959C812.549 188.311 810.504 195.3 806.413 200.925C802.322 206.55 796.654 210.768 789.41 213.581C782.208 216.436 773.92 217.864 764.545 217.864ZM765.12 157.139C769.509 157.139 773.217 156.053 776.242 153.879C779.31 151.663 781.654 148.51 783.273 144.419C784.935 140.286 785.766 135.342 785.766 129.589C785.766 123.837 784.957 118.851 783.337 114.632C781.718 110.371 779.374 107.068 776.306 104.724C773.238 102.381 769.509 101.209 765.12 101.209C760.646 101.209 756.874 102.423 753.806 104.852C750.738 107.239 748.415 110.562 746.839 114.824C745.262 119.085 744.474 124.007 744.474 129.589C744.474 135.257 745.262 140.158 746.839 144.291C748.458 148.382 750.781 151.557 753.806 153.815C756.874 156.031 760.646 157.139 765.12 157.139ZM875.962 180.918C865.863 180.918 857.17 178.872 849.883 174.781C842.638 170.648 837.056 164.81 833.136 157.267C829.215 149.682 827.255 140.712 827.255 130.357C827.255 120.257 829.215 111.393 833.136 103.766C837.056 96.1378 842.575 90.1932 849.691 85.9318C856.85 81.6705 865.245 79.5398 874.876 79.5398C881.353 79.5398 887.383 80.5838 892.965 82.6719C898.59 84.7173 903.491 87.8068 907.667 91.9403C911.886 96.0739 915.167 101.273 917.511 107.537C919.854 113.759 921.026 121.045 921.026 129.398V136.876H838.121V120.001H895.394C895.394 116.081 894.542 112.608 892.837 109.582C891.133 106.557 888.768 104.192 885.742 102.487C882.759 100.74 879.286 99.8665 875.323 99.8665C871.19 99.8665 867.525 100.825 864.329 102.743C861.175 104.618 858.704 107.153 856.914 110.349C855.124 113.503 854.208 117.018 854.165 120.896V136.94C854.165 141.798 855.06 145.996 856.85 149.533C858.683 153.07 861.261 155.797 864.585 157.714C867.908 159.632 871.85 160.591 876.41 160.591C879.435 160.591 882.205 160.165 884.719 159.312C887.234 158.46 889.386 157.182 891.175 155.477C892.965 153.773 894.329 151.685 895.266 149.213L920.451 150.875C919.173 156.926 916.552 162.21 912.589 166.727C908.668 171.202 903.597 174.696 897.376 177.21C891.197 179.682 884.059 180.918 875.962 180.918Z" fill="white"/>
<mask id="path-2-outside-1_2452_11953" maskUnits="userSpaceOnUse" x="1001" y="44" width="1054" height="176" fill="black">
<rect fill="white" x="1001" y="44" width="1054" height="176"/>
<path d="M1003.38 179V48.0909H1055.03C1064.95 48.0909 1073.41 49.9872 1080.4 53.7798C1087.39 57.5298 1092.72 62.75 1096.38 69.4403C1100.09 76.0881 1101.94 83.7585 1101.94 92.4517C1101.94 101.145 1100.07 108.815 1096.32 115.463C1092.57 122.111 1087.13 127.288 1080.02 130.996C1072.94 134.703 1064.38 136.557 1054.32 136.557H1021.4V114.376H1049.85C1055.17 114.376 1059.56 113.46 1063.02 111.628C1066.51 109.753 1069.11 107.175 1070.81 103.893C1072.56 100.57 1073.43 96.7557 1073.43 92.4517C1073.43 88.1051 1072.56 84.3125 1070.81 81.0739C1069.11 77.7926 1066.51 75.2571 1063.02 73.4673C1059.52 71.6349 1055.09 70.7188 1049.72 70.7188H1031.06V179H1003.38ZM1163.33 179H1116.92V48.0909H1163.71C1176.88 48.0909 1188.21 50.7116 1197.72 55.9531C1207.22 61.152 1214.53 68.6307 1219.64 78.3892C1224.8 88.1477 1227.38 99.8239 1227.38 113.418C1227.38 127.054 1224.8 138.773 1219.64 148.574C1214.53 158.375 1207.18 165.896 1197.59 171.138C1188.04 176.379 1176.62 179 1163.33 179ZM1144.6 155.286H1162.18C1170.36 155.286 1177.24 153.837 1182.82 150.939C1188.45 147.999 1192.67 143.46 1195.48 137.324C1198.33 131.145 1199.76 123.176 1199.76 113.418C1199.76 103.744 1198.33 95.8395 1195.48 89.7031C1192.67 83.5668 1188.47 79.0497 1182.89 76.152C1177.3 73.2543 1170.42 71.8054 1162.24 71.8054H1144.6V155.286ZM1244.88 179V48.0909H1331.55V70.9105H1272.56V102.104H1325.8V124.923H1272.56V179H1244.88ZM1425.46 180.918C1416.43 180.918 1408.63 179.298 1402.07 176.06C1395.5 172.821 1390.45 168.432 1386.92 162.892C1383.42 157.31 1381.68 151.088 1381.68 144.227C1381.68 139.114 1382.7 134.575 1384.74 130.612C1386.79 126.649 1389.64 123.006 1393.31 119.682C1396.97 116.315 1401.24 112.97 1406.09 109.646L1431.47 92.9631C1434.75 90.875 1437.16 88.6804 1438.69 86.3793C1440.23 84.0355 1440.99 81.5 1440.99 78.7727C1440.99 76.1733 1439.95 73.7656 1437.86 71.5497C1435.77 69.3338 1432.81 68.2472 1428.98 68.2898C1426.42 68.2898 1424.2 68.8651 1422.33 70.0156C1420.45 71.1236 1418.98 72.5937 1417.92 74.4261C1416.9 76.2159 1416.38 78.2188 1416.38 80.4347C1416.38 83.1619 1417.15 85.9318 1418.69 88.7443C1420.22 91.5568 1422.27 94.5398 1424.82 97.6932C1427.38 100.804 1430.17 104.17 1433.2 107.793L1495.26 179H1466.88L1415.11 121.344C1411.7 117.466 1408.29 113.418 1404.88 109.199C1401.51 104.937 1398.7 100.42 1396.44 95.6477C1394.18 90.8324 1393.05 85.6122 1393.05 79.9872C1393.05 73.6378 1394.52 67.9276 1397.46 62.8565C1400.45 57.7855 1404.62 53.7798 1409.99 50.8395C1415.36 47.8565 1421.63 46.3651 1428.79 46.3651C1435.77 46.3651 1441.8 47.7926 1446.88 50.6477C1451.99 53.4602 1455.91 57.2102 1458.64 61.8977C1461.41 66.5426 1462.79 71.6562 1462.79 77.2386C1462.79 83.4176 1461.26 89.0213 1458.19 94.0497C1455.16 99.0355 1450.9 103.51 1445.4 107.473L1418.69 126.713C1415.06 129.355 1412.38 132.061 1410.63 134.831C1408.93 137.558 1408.08 140.179 1408.08 142.693C1408.08 145.804 1408.84 148.595 1410.38 151.067C1411.91 153.538 1414.08 155.499 1416.9 156.947C1419.71 158.354 1423.01 159.057 1426.8 159.057C1431.41 159.057 1435.94 158.013 1440.42 155.925C1444.94 153.794 1449.03 150.79 1452.69 146.912C1456.4 142.991 1459.36 138.347 1461.58 132.977C1463.79 127.608 1464.9 121.663 1464.9 115.143H1487.46C1487.46 123.155 1486.59 130.378 1484.84 136.812C1483.1 143.205 1480.67 148.787 1477.56 153.56C1474.45 158.29 1470.89 162.168 1466.88 165.193C1465.6 166.003 1464.37 166.77 1463.17 167.494C1461.98 168.219 1460.75 168.986 1459.47 169.795C1454.61 173.716 1449.18 176.55 1443.17 178.297C1437.2 180.044 1431.3 180.918 1425.46 180.918ZM1570.46 48.0909V179H1542.78V48.0909H1570.46ZM1589.72 179V80.8182H1615.67V98.1406H1616.82C1618.87 92.3878 1622.27 87.8494 1627.05 84.5256C1631.82 81.2017 1637.53 79.5398 1644.18 79.5398C1650.91 79.5398 1656.64 81.223 1661.37 84.5895C1666.1 87.9133 1669.26 92.4304 1670.83 98.1406H1671.86C1673.86 92.5156 1677.48 88.0199 1682.72 84.6534C1688.01 81.2443 1694.25 79.5398 1701.45 79.5398C1710.61 79.5398 1718.05 82.4588 1723.76 88.2969C1729.51 94.0923 1732.39 102.317 1732.39 112.97V179H1705.22V118.339C1705.22 112.885 1703.77 108.794 1700.88 106.067C1697.98 103.339 1694.36 101.976 1690.01 101.976C1685.07 101.976 1681.21 103.553 1678.44 106.706C1675.67 109.817 1674.28 113.929 1674.28 119.043V179H1647.89V117.764C1647.89 112.949 1646.5 109.114 1643.73 106.259C1641 103.403 1637.4 101.976 1632.93 101.976C1629.9 101.976 1627.18 102.743 1624.75 104.277C1622.36 105.768 1620.46 107.878 1619.06 110.605C1617.65 113.29 1616.95 116.443 1616.95 120.065V179H1589.72ZM1778.89 180.854C1772.63 180.854 1767.05 179.767 1762.15 177.594C1757.25 175.378 1753.37 172.118 1750.51 167.814C1747.7 163.467 1746.3 158.055 1746.3 151.578C1746.3 146.124 1747.3 141.543 1749.3 137.835C1751.3 134.128 1754.03 131.145 1757.48 128.886C1760.93 126.628 1764.85 124.923 1769.24 123.773C1773.67 122.622 1778.32 121.812 1783.18 121.344C1788.89 120.747 1793.49 120.193 1796.98 119.682C1800.48 119.128 1803.01 118.318 1804.59 117.253C1806.17 116.187 1806.96 114.611 1806.96 112.523V112.139C1806.96 108.091 1805.68 104.959 1803.12 102.743C1800.61 100.527 1797.03 99.419 1792.38 99.419C1787.48 99.419 1783.58 100.506 1780.68 102.679C1777.79 104.81 1775.87 107.494 1774.93 110.733L1749.75 108.688C1751.03 102.722 1753.54 97.5653 1757.29 93.2188C1761.04 88.8295 1765.88 85.4631 1771.8 83.1193C1777.77 80.733 1784.67 79.5398 1792.51 79.5398C1797.96 79.5398 1803.18 80.179 1808.17 81.4574C1813.2 82.7358 1817.65 84.7173 1821.53 87.402C1825.45 90.0866 1828.54 93.5384 1830.8 97.7571C1833.06 101.933 1834.19 106.94 1834.19 112.778V179H1808.36V165.385H1807.6C1806.02 168.453 1803.91 171.159 1801.27 173.503C1798.62 175.804 1795.45 177.615 1791.74 178.936C1788.04 180.214 1783.75 180.854 1778.89 180.854ZM1786.69 162.061C1790.7 162.061 1794.24 161.273 1797.3 159.696C1800.37 158.077 1802.78 155.903 1804.53 153.176C1806.27 150.449 1807.15 147.359 1807.15 143.908V133.489C1806.3 134.043 1805.12 134.554 1803.63 135.023C1802.18 135.449 1800.54 135.854 1798.71 136.237C1796.88 136.578 1795.05 136.898 1793.21 137.196C1791.38 137.452 1789.72 137.686 1788.23 137.899C1785.03 138.368 1782.24 139.114 1779.85 140.136C1777.47 141.159 1775.61 142.544 1774.29 144.291C1772.97 145.996 1772.31 148.126 1772.31 150.683C1772.31 154.391 1773.65 157.224 1776.34 159.185C1779.07 161.102 1782.52 162.061 1786.69 162.061ZM1896.54 217.864C1887.72 217.864 1880.16 216.649 1873.85 214.22C1867.59 211.834 1862.6 208.574 1858.9 204.44C1855.19 200.307 1852.78 195.662 1851.67 190.506L1876.86 187.118C1877.62 189.078 1878.84 190.911 1880.5 192.615C1882.16 194.32 1884.36 195.683 1887.08 196.706C1889.85 197.771 1893.22 198.304 1897.18 198.304C1903.11 198.304 1907.99 196.855 1911.82 193.957C1915.7 191.102 1917.64 186.308 1917.64 179.575V161.614H1916.49C1915.29 164.341 1913.5 166.919 1911.12 169.348C1908.73 171.777 1905.66 173.759 1901.91 175.293C1898.16 176.827 1893.69 177.594 1888.49 177.594C1881.12 177.594 1874.41 175.889 1868.36 172.48C1862.35 169.028 1857.55 163.766 1853.97 156.692C1850.44 149.575 1848.67 140.584 1848.67 129.717C1848.67 118.595 1850.48 109.305 1854.1 101.848C1857.72 94.3906 1862.54 88.8082 1868.55 85.1009C1874.6 81.3935 1881.23 79.5398 1888.43 79.5398C1893.92 79.5398 1898.53 80.4773 1902.23 82.3523C1905.94 84.1847 1908.92 86.4858 1911.18 89.2557C1913.48 91.983 1915.25 94.6676 1916.49 97.3097H1917.51V80.8182H1944.55V179.959C1944.55 188.311 1942.5 195.3 1938.41 200.925C1934.32 206.55 1928.65 210.768 1921.41 213.581C1914.21 216.436 1905.92 217.864 1896.54 217.864ZM1897.12 157.139C1901.51 157.139 1905.22 156.053 1908.24 153.879C1911.31 151.663 1913.65 148.51 1915.27 144.419C1916.94 140.286 1917.77 135.342 1917.77 129.589C1917.77 123.837 1916.96 118.851 1915.34 114.632C1913.72 110.371 1911.37 107.068 1908.31 104.724C1905.24 102.381 1901.51 101.209 1897.12 101.209C1892.65 101.209 1888.87 102.423 1885.81 104.852C1882.74 107.239 1880.42 110.562 1878.84 114.824C1877.26 119.085 1876.47 124.007 1876.47 129.589C1876.47 135.257 1877.26 140.158 1878.84 144.291C1880.46 148.382 1882.78 151.557 1885.81 153.815C1888.87 156.031 1892.65 157.139 1897.12 157.139ZM2007.96 180.918C1997.86 180.918 1989.17 178.872 1981.88 174.781C1974.64 170.648 1969.06 164.81 1965.14 157.267C1961.22 149.682 1959.25 140.712 1959.25 130.357C1959.25 120.257 1961.22 111.393 1965.14 103.766C1969.06 96.1378 1974.57 90.1932 1981.69 85.9318C1988.85 81.6705 1997.25 79.5398 2006.88 79.5398C2013.35 79.5398 2019.38 80.5838 2024.97 82.6719C2030.59 84.7173 2035.49 87.8068 2039.67 91.9403C2043.89 96.0739 2047.17 101.273 2049.51 107.537C2051.85 113.759 2053.03 121.045 2053.03 129.398V136.876H1970.12V120.001H2027.39C2027.39 116.081 2026.54 112.608 2024.84 109.582C2023.13 106.557 2020.77 104.192 2017.74 102.487C2014.76 100.74 2011.29 99.8665 2007.32 99.8665C2003.19 99.8665 1999.52 100.825 1996.33 102.743C1993.18 104.618 1990.7 107.153 1988.91 110.349C1987.12 113.503 1986.21 117.018 1986.17 120.896V136.94C1986.17 141.798 1987.06 145.996 1988.85 149.533C1990.68 153.07 1993.26 155.797 1996.58 157.714C1999.91 159.632 2003.85 160.591 2008.41 160.591C2011.44 160.591 2014.21 160.165 2016.72 159.312C2019.23 158.46 2021.39 157.182 2023.18 155.477C2024.97 153.773 2026.33 151.685 2027.27 149.213L2052.45 150.875C2051.17 156.926 2048.55 162.21 2044.59 166.727C2040.67 171.202 2035.6 174.696 2029.38 177.21C2023.2 179.682 2016.06 180.918 2007.96 180.918Z"/>
</mask>
<path d="M1003.38 179H1001.88V180.5H1003.38V179ZM1003.38 48.0909V46.5909H1001.88V48.0909H1003.38ZM1080.4 53.7798L1079.69 55.0982L1079.69 55.1016L1080.4 53.7798ZM1096.38 69.4403L1095.07 70.161L1095.07 70.1709L1096.38 69.4403ZM1080.02 130.996L1079.33 129.665L1079.32 129.667L1080.02 130.996ZM1021.4 136.557H1019.9V138.057H1021.4V136.557ZM1021.4 114.376V112.876H1019.9V114.376H1021.4ZM1063.02 111.628L1063.72 112.953L1063.72 112.95L1063.02 111.628ZM1070.81 103.893L1069.49 103.196L1069.48 103.202L1070.81 103.893ZM1070.81 81.0739L1069.48 81.7653L1069.49 81.7757L1069.49 81.786L1070.81 81.0739ZM1063.02 73.4673L1062.32 74.7958L1062.33 74.7991L1062.33 74.8024L1063.02 73.4673ZM1031.06 70.7188V69.2188H1029.56V70.7188H1031.06ZM1031.06 179V180.5H1032.56V179H1031.06ZM1003.38 179H1004.88V48.0909H1003.38H1001.88V179H1003.38ZM1003.38 48.0909V49.5909H1055.03V48.0909V46.5909H1003.38V48.0909ZM1055.03 48.0909V49.5909C1064.77 49.5909 1072.97 51.4509 1079.69 55.0982L1080.4 53.7798L1081.12 52.4615C1073.86 48.5236 1065.14 46.5909 1055.03 46.5909V48.0909ZM1080.4 53.7798L1079.69 55.1016C1086.44 58.7199 1091.55 63.736 1095.07 70.161L1096.38 69.4403L1097.7 68.7197C1093.89 61.764 1088.35 56.3397 1081.11 52.4581L1080.4 53.7798ZM1096.38 69.4403L1095.07 70.1709C1098.64 76.5652 1100.44 83.9775 1100.44 92.4517H1101.94H1103.44C1103.44 83.5396 1101.54 75.6109 1097.69 68.7097L1096.38 69.4403ZM1101.94 92.4517H1100.44C1100.44 100.923 1098.62 108.333 1095.01 114.726L1096.32 115.463L1097.62 116.2C1101.52 109.298 1103.44 101.367 1103.44 92.4517H1101.94ZM1096.32 115.463L1095.01 114.726C1091.41 121.107 1086.2 126.085 1079.33 129.665L1080.02 130.996L1080.71 132.326C1088.07 128.492 1093.72 123.114 1097.62 116.2L1096.32 115.463ZM1080.02 130.996L1079.32 129.667C1072.51 133.236 1064.2 135.057 1054.32 135.057V136.557V138.057C1064.56 138.057 1073.38 136.17 1080.71 132.324L1080.02 130.996ZM1054.32 136.557V135.057H1021.4V136.557V138.057H1054.32V136.557ZM1021.4 136.557H1022.9V114.376H1021.4H1019.9V136.557H1021.4ZM1021.4 114.376V115.876H1049.85V114.376V112.876H1021.4V114.376ZM1049.85 114.376V115.876C1055.34 115.876 1059.99 114.934 1063.72 112.953L1063.02 111.628L1062.31 110.303C1059.14 111.986 1055.01 112.876 1049.85 112.876V114.376ZM1063.02 111.628L1063.72 112.95C1067.46 110.943 1070.29 108.154 1072.15 104.585L1070.81 103.893L1069.48 103.202C1067.93 106.196 1065.56 108.563 1062.31 110.306L1063.02 111.628ZM1070.81 103.893L1072.14 104.591C1074.02 101.023 1074.93 96.963 1074.93 92.4517H1073.43H1071.93C1071.93 96.5483 1071.1 100.117 1069.49 103.196L1070.81 103.893ZM1073.43 92.4517H1074.93C1074.93 87.9015 1074.02 83.8556 1072.13 80.3617L1070.81 81.0739L1069.49 81.786C1071.1 84.7694 1071.93 88.3087 1071.93 92.4517H1073.43ZM1070.81 81.0739L1072.15 80.3824C1070.29 76.807 1067.45 74.0548 1063.7 72.1323L1063.02 73.4673L1062.33 74.8024C1065.57 76.4594 1067.93 78.7782 1069.48 81.7653L1070.81 81.0739ZM1063.02 73.4673L1063.71 72.1389C1059.94 70.1606 1055.25 69.2188 1049.72 69.2188V70.7188V72.2188C1054.93 72.2188 1059.1 73.1093 1062.32 74.7958L1063.02 73.4673ZM1049.72 70.7188V69.2188H1031.06V70.7188V72.2188H1049.72V70.7188ZM1031.06 70.7188H1029.56V179H1031.06H1032.56V70.7188H1031.06ZM1031.06 179V177.5H1003.38V179V180.5H1031.06V179ZM1116.92 179H1115.42V180.5H1116.92V179ZM1116.92 48.0909V46.5909H1115.42V48.0909H1116.92ZM1197.72 55.9531L1196.99 57.2666L1197 57.2691L1197.72 55.9531ZM1219.64 78.3892L1218.31 79.0854L1218.31 79.09L1219.64 78.3892ZM1219.64 148.574L1218.31 147.875L1218.31 147.88L1219.64 148.574ZM1197.59 171.138L1196.87 169.822L1196.87 169.823L1197.59 171.138ZM1144.6 155.286H1143.1V156.786H1144.6V155.286ZM1182.82 150.939L1183.51 152.27L1183.52 152.268L1182.82 150.939ZM1195.48 137.324L1194.12 136.695L1194.12 136.699L1195.48 137.324ZM1195.48 89.7031L1194.12 90.3281L1194.12 90.3359L1195.48 89.7031ZM1182.89 76.152L1183.58 74.8207L1182.89 76.152ZM1144.6 71.8054V70.3054H1143.1V71.8054H1144.6ZM1163.33 179V177.5H1116.92V179V180.5H1163.33V179ZM1116.92 179H1118.42V48.0909H1116.92H1115.42V179H1116.92ZM1116.92 48.0909V49.5909H1163.71V48.0909V46.5909H1116.92V48.0909ZM1163.71 48.0909V49.5909C1176.68 49.5909 1187.75 52.171 1196.99 57.2666L1197.72 55.9531L1198.44 54.6397C1188.67 49.2523 1177.08 46.5909 1163.71 46.5909V48.0909ZM1197.72 55.9531L1197 57.2691C1206.23 62.3233 1213.33 69.5842 1218.31 79.0854L1219.64 78.3892L1220.97 77.693C1215.72 67.6771 1208.2 59.9806 1198.44 54.6372L1197.72 55.9531ZM1219.64 78.3892L1218.31 79.09C1223.33 88.5881 1225.88 100.012 1225.88 113.418H1227.38H1228.88C1228.88 99.6354 1226.26 87.7074 1220.97 77.6884L1219.64 78.3892ZM1227.38 113.418H1225.88C1225.88 126.866 1223.33 138.334 1218.31 147.875L1219.64 148.574L1220.97 149.272C1226.26 139.212 1228.88 127.242 1228.88 113.418H1227.38ZM1219.64 148.574L1218.31 147.88C1213.33 157.421 1206.19 164.724 1196.87 169.822L1197.59 171.138L1198.31 172.454C1208.16 167.068 1215.72 159.329 1220.97 149.268L1219.64 148.574ZM1197.59 171.138L1196.87 169.823C1187.59 174.919 1176.43 177.5 1163.33 177.5V179V180.5C1176.82 180.5 1188.5 177.84 1198.31 172.453L1197.59 171.138ZM1144.6 155.286V156.786H1162.18V155.286V153.786H1144.6V155.286ZM1162.18 155.286V156.786C1170.53 156.786 1177.66 155.307 1183.51 152.27L1182.82 150.939L1182.13 149.608C1176.82 152.366 1170.19 153.786 1162.18 153.786V155.286ZM1182.82 150.939L1183.52 152.268C1189.46 149.164 1193.9 144.367 1196.84 137.949L1195.48 137.324L1194.12 136.699C1191.43 142.553 1187.44 146.834 1182.13 149.61L1182.82 150.939ZM1195.48 137.324L1196.84 137.953C1199.82 131.511 1201.26 123.306 1201.26 113.418H1199.76H1198.26C1198.26 123.046 1196.85 130.779 1194.12 136.695L1195.48 137.324ZM1199.76 113.418H1201.26C1201.26 103.613 1199.82 95.4711 1196.84 89.0704L1195.48 89.7031L1194.12 90.3359C1196.85 96.2079 1198.26 103.876 1198.26 113.418H1199.76ZM1195.48 89.7031L1196.84 89.0781C1193.9 82.6617 1189.48 77.884 1183.58 74.8207L1182.89 76.152L1182.2 77.4833C1187.46 80.2155 1191.43 84.4718 1194.12 90.3281L1195.48 89.7031ZM1182.89 76.152L1183.58 74.8207C1177.73 71.7838 1170.59 70.3054 1162.24 70.3054V71.8054V73.3054C1170.25 73.3054 1176.88 74.7247 1182.2 77.4833L1182.89 76.152ZM1162.24 71.8054V70.3054H1144.6V71.8054V73.3054H1162.24V71.8054ZM1144.6 71.8054H1143.1V155.286H1144.6H1146.1V71.8054H1144.6ZM1244.88 179H1243.38V180.5H1244.88V179ZM1244.88 48.0909V46.5909H1243.38V48.0909H1244.88ZM1331.55 48.0909H1333.05V46.5909H1331.55V48.0909ZM1331.55 70.9105V72.4105H1333.05V70.9105H1331.55ZM1272.56 70.9105V69.4105H1271.06V70.9105H1272.56ZM1272.56 102.104H1271.06V103.604H1272.56V102.104ZM1325.8 102.104H1327.3V100.604H1325.8V102.104ZM1325.8 124.923V126.423H1327.3V124.923H1325.8ZM1272.56 124.923V123.423H1271.06V124.923H1272.56ZM1272.56 179V180.5H1274.06V179H1272.56ZM1244.88 179H1246.38V48.0909H1244.88H1243.38V179H1244.88ZM1244.88 48.0909V49.5909H1331.55V48.0909V46.5909H1244.88V48.0909ZM1331.55 48.0909H1330.05V70.9105H1331.55H1333.05V48.0909H1331.55ZM1331.55 70.9105V69.4105H1272.56V70.9105V72.4105H1331.55V70.9105ZM1272.56 70.9105H1271.06V102.104H1272.56H1274.06V70.9105H1272.56ZM1272.56 102.104V103.604H1325.8V102.104V100.604H1272.56V102.104ZM1325.8 102.104H1324.3V124.923H1325.8H1327.3V102.104H1325.8ZM1325.8 124.923V123.423H1272.56V124.923V126.423H1325.8V124.923ZM1272.56 124.923H1271.06V179H1272.56H1274.06V124.923H1272.56ZM1272.56 179V177.5H1244.88V179V180.5H1272.56V179ZM1402.07 176.06L1402.73 174.715L1402.07 176.06ZM1386.92 162.892L1385.65 163.688L1385.65 163.699L1386.92 162.892ZM1393.31 119.682L1394.32 120.793L1394.32 120.786L1393.31 119.682ZM1406.09 109.646L1405.27 108.393L1405.26 108.401L1405.25 108.408L1406.09 109.646ZM1431.47 92.9631L1430.66 91.6976L1430.66 91.7036L1430.65 91.7097L1431.47 92.9631ZM1438.69 86.3793L1439.94 87.2113L1439.95 87.2007L1438.69 86.3793ZM1437.86 71.5497L1438.95 70.521H1438.95L1437.86 71.5497ZM1428.98 68.2898V69.7898H1428.99L1428.99 69.7897L1428.98 68.2898ZM1422.33 70.0156L1423.09 71.307L1423.1 71.3007L1423.11 71.2941L1422.33 70.0156ZM1417.92 74.4261L1416.62 73.6722L1416.62 73.6819L1417.92 74.4261ZM1418.69 88.7443L1420 88.026L1418.69 88.7443ZM1424.82 97.6932L1423.66 98.6379L1423.66 98.6456L1424.82 97.6932ZM1433.2 107.793L1432.04 108.754L1432.05 108.766L1432.07 108.778L1433.2 107.793ZM1495.26 179V180.5H1498.56L1496.39 178.014L1495.26 179ZM1466.88 179L1465.77 180.002L1466.21 180.5H1466.88V179ZM1415.11 121.344L1413.98 122.334L1413.99 122.34L1413.99 122.346L1415.11 121.344ZM1404.88 109.199L1403.7 110.129L1403.71 110.135L1403.71 110.142L1404.88 109.199ZM1396.44 95.6477L1395.08 96.2847L1395.09 96.2893L1396.44 95.6477ZM1397.46 62.8565L1396.17 62.096L1396.17 62.1041L1397.46 62.8565ZM1409.99 50.8395L1410.71 52.1552L1410.72 52.1507L1409.99 50.8395ZM1446.88 50.6477L1446.14 51.9548L1446.15 51.9585L1446.15 51.962L1446.88 50.6477ZM1458.64 61.8977L1457.34 62.6521L1457.34 62.659L1457.35 62.666L1458.64 61.8977ZM1458.19 94.0497L1456.91 93.2684L1456.91 93.2715L1458.19 94.0497ZM1445.4 107.473L1446.28 108.69L1446.28 108.69L1445.4 107.473ZM1418.69 126.713L1417.81 125.496L1417.8 125.501L1418.69 126.713ZM1410.63 134.831L1409.36 134.031L1409.36 134.036L1410.63 134.831ZM1410.38 151.067L1409.1 151.858L1410.38 151.067ZM1416.9 156.947L1416.21 158.281L1416.22 158.285L1416.23 158.289L1416.9 156.947ZM1440.42 155.925L1441.05 157.284L1441.06 157.281L1440.42 155.925ZM1452.69 146.912L1451.6 145.881L1451.6 145.882L1452.69 146.912ZM1461.58 132.977L1462.96 133.55L1461.58 132.977ZM1464.9 115.143V113.643H1463.4V115.143H1464.9ZM1487.46 115.143H1488.96V113.643H1487.46V115.143ZM1484.84 136.812L1486.29 137.208L1486.29 137.206L1484.84 136.812ZM1477.56 153.56L1478.81 154.384L1478.81 154.379L1477.56 153.56ZM1466.88 165.193L1467.68 166.46L1467.74 166.427L1467.79 166.39L1466.88 165.193ZM1463.17 167.494L1463.95 168.777L1463.17 167.494ZM1459.47 169.795L1458.66 168.528L1458.59 168.574L1458.53 168.628L1459.47 169.795ZM1443.17 178.297L1442.75 176.857L1442.75 176.857L1443.17 178.297ZM1425.46 180.918V179.418C1416.6 179.418 1409.04 177.83 1402.73 174.715L1402.07 176.06L1401.4 177.405C1408.21 180.766 1416.25 182.418 1425.46 182.418V180.918ZM1402.07 176.06L1402.73 174.715C1396.38 171.583 1391.56 167.368 1388.18 162.085L1386.92 162.892L1385.65 163.699C1389.35 169.495 1394.62 174.059 1401.4 177.405L1402.07 176.06ZM1386.92 162.892L1388.19 162.096C1384.85 156.763 1383.18 150.819 1383.18 144.227H1381.68H1380.18C1380.18 151.357 1382 157.857 1385.65 163.688L1386.92 162.892ZM1381.68 144.227H1383.18C1383.18 139.318 1384.16 135.021 1386.08 131.3L1384.74 130.612L1383.41 129.924C1381.24 134.129 1380.18 138.91 1380.18 144.227H1381.68ZM1384.74 130.612L1386.08 131.3C1388.03 127.513 1390.77 124.009 1394.32 120.793L1393.31 119.682L1392.3 118.571C1388.52 122.002 1385.55 125.785 1383.41 129.924L1384.74 130.612ZM1393.31 119.682L1394.32 120.786C1397.93 117.476 1402.13 114.175 1406.94 110.884L1406.09 109.646L1405.25 108.408C1400.34 111.766 1396.02 115.155 1392.29 118.577L1393.31 119.682ZM1406.09 109.646L1406.92 110.9L1432.29 94.2165L1431.47 92.9631L1430.65 91.7097L1405.27 108.393L1406.09 109.646ZM1431.47 92.9631L1432.28 94.2286C1435.67 92.0708 1438.25 89.7416 1439.94 87.2113L1438.69 86.3793L1437.45 85.5472C1436.06 87.6192 1433.84 89.6792 1430.66 91.6976L1431.47 92.9631ZM1438.69 86.3793L1439.95 87.2007C1441.64 84.6198 1442.49 81.8001 1442.49 78.7727H1440.99H1439.49C1439.49 81.1999 1438.82 83.4512 1437.44 85.5578L1438.69 86.3793ZM1440.99 78.7727H1442.49C1442.49 75.7262 1441.26 72.9643 1438.95 70.521L1437.86 71.5497L1436.77 72.5784C1438.64 74.567 1439.49 76.6204 1439.49 78.7727H1440.99ZM1437.86 71.5497L1438.95 70.521C1436.51 67.9247 1433.1 66.7439 1428.96 66.7899L1428.98 68.2898L1428.99 69.7897C1432.53 69.7504 1435.04 70.7429 1436.77 72.5784L1437.86 71.5497ZM1428.98 68.2898V66.7898C1426.19 66.7898 1423.69 67.4196 1421.55 68.7371L1422.33 70.0156L1423.11 71.2941C1424.72 70.3105 1426.65 69.7898 1428.98 69.7898V68.2898ZM1422.33 70.0156L1421.57 68.7242C1419.48 69.959 1417.82 71.6117 1416.62 73.6722L1417.92 74.4261L1419.22 75.1801C1420.15 73.5758 1421.43 72.2882 1423.09 71.307L1422.33 70.0156ZM1417.92 74.4261L1416.62 73.6819C1415.45 75.7153 1414.88 77.9779 1414.88 80.4347H1416.38H1417.88C1417.88 78.4596 1418.34 76.7165 1419.22 75.1703L1417.92 74.4261ZM1416.38 80.4347H1414.88C1414.88 83.4535 1415.74 86.4684 1417.37 89.4626L1418.69 88.7443L1420 88.026C1418.57 85.3953 1417.88 82.8704 1417.88 80.4347H1416.38ZM1418.69 88.7443L1417.37 89.4626C1418.96 92.3729 1421.06 95.4315 1423.66 98.6379L1424.82 97.6932L1425.99 96.7485C1423.47 93.648 1421.48 90.7408 1420 88.026L1418.69 88.7443ZM1424.82 97.6932L1423.66 98.6456C1426.22 101.76 1429.02 105.13 1432.04 108.754L1433.2 107.793L1434.35 106.831C1431.32 103.211 1428.54 99.848 1425.98 96.7407L1424.82 97.6932ZM1433.2 107.793L1432.07 108.778L1494.13 179.986L1495.26 179L1496.39 178.014L1434.33 106.807L1433.2 107.793ZM1495.26 179V177.5H1466.88V179V180.5H1495.26V179ZM1466.88 179L1468 177.998L1416.22 120.342L1415.11 121.344L1413.99 122.346L1465.77 180.002L1466.88 179ZM1415.11 121.344L1416.23 120.353C1412.84 116.492 1409.44 112.459 1406.05 108.256L1404.88 109.199L1403.71 110.142C1407.13 114.376 1410.56 118.44 1413.98 122.334L1415.11 121.344ZM1404.88 109.199L1406.06 108.269C1402.76 104.094 1400.01 99.6734 1397.8 95.0061L1396.44 95.6477L1395.09 96.2893C1397.39 101.167 1400.27 105.781 1403.7 110.129L1404.88 109.199ZM1396.44 95.6477L1397.8 95.0108C1395.64 90.4062 1394.55 85.405 1394.55 79.9872H1393.05H1391.55C1391.55 85.8194 1392.73 91.2586 1395.08 96.2847L1396.44 95.6477ZM1393.05 79.9872H1394.55C1394.55 73.8793 1395.97 68.4325 1398.76 63.6089L1397.46 62.8565L1396.17 62.1041C1393.08 67.4226 1391.55 73.3962 1391.55 79.9872H1393.05ZM1397.46 62.8565L1398.76 63.6171C1401.6 58.789 1405.57 54.971 1410.71 52.1551L1409.99 50.8395L1409.27 49.5238C1403.68 52.5887 1399.3 56.782 1396.17 62.096L1397.46 62.8565ZM1409.99 50.8395L1410.72 52.1507C1415.83 49.3107 1421.84 47.8651 1428.79 47.8651V46.3651V44.8651C1421.41 44.8651 1414.89 46.4024 1409.26 49.5282L1409.99 50.8395ZM1428.79 46.3651V47.8651C1435.57 47.8651 1441.33 49.2493 1446.14 51.9548L1446.88 50.6477L1447.61 49.3407C1442.27 46.3359 1435.98 44.8651 1428.79 44.8651V46.3651ZM1446.88 50.6477L1446.15 51.962C1451.05 54.6537 1454.76 58.2177 1457.34 62.6521L1458.64 61.8977L1459.93 61.1434C1457.06 56.2027 1452.93 52.2667 1447.6 49.3334L1446.88 50.6477ZM1458.64 61.8977L1457.35 62.666C1459.97 67.0708 1461.29 71.9176 1461.29 77.2386H1462.79H1464.29C1464.29 71.3949 1462.84 66.0144 1459.92 61.1295L1458.64 61.8977ZM1462.79 77.2386H1461.29C1461.29 83.1561 1459.83 88.4871 1456.91 93.2684L1458.19 94.0497L1459.47 94.831C1462.69 89.5555 1464.29 83.6792 1464.29 77.2386H1462.79ZM1458.19 94.0497L1456.91 93.2715C1454 98.0599 1449.89 102.392 1444.53 106.256L1445.4 107.473L1446.28 108.69C1451.92 104.628 1456.33 100.011 1459.47 94.8279L1458.19 94.0497ZM1445.4 107.473L1444.53 106.256L1417.81 125.496L1418.69 126.713L1419.56 127.93L1446.28 108.69L1445.4 107.473ZM1418.69 126.713L1417.8 125.501C1414.08 128.216 1411.24 131.053 1409.36 134.031L1410.63 134.831L1411.9 135.631C1413.52 133.069 1416.05 130.494 1419.57 127.925L1418.69 126.713ZM1410.63 134.831L1409.36 134.036C1407.55 136.936 1406.58 139.829 1406.58 142.693H1408.08H1409.58C1409.58 140.529 1410.31 138.181 1411.9 135.626L1410.63 134.831ZM1408.08 142.693H1406.58C1406.58 146.063 1407.41 149.132 1409.1 151.858L1410.38 151.067L1411.65 150.276C1410.27 148.058 1409.58 145.545 1409.58 142.693H1408.08ZM1410.38 151.067L1409.1 151.858C1410.79 154.58 1413.18 156.719 1416.21 158.281L1416.9 156.947L1417.58 155.614C1414.99 154.278 1413.03 152.497 1411.65 150.276L1410.38 151.067ZM1416.9 156.947L1416.23 158.289C1419.28 159.819 1422.83 160.557 1426.8 160.557V159.057V157.557C1423.2 157.557 1420.13 156.889 1417.57 155.606L1416.9 156.947ZM1426.8 159.057V160.557C1431.64 160.557 1436.4 159.458 1441.05 157.284L1440.42 155.925L1439.78 154.565C1435.49 156.568 1431.17 157.557 1426.8 157.557V159.057ZM1440.42 155.925L1441.06 157.281C1445.76 155.066 1450 151.947 1453.78 147.942L1452.69 146.912L1451.6 145.882C1448.06 149.633 1444.12 152.522 1439.78 154.568L1440.42 155.925ZM1452.69 146.912L1453.78 147.943C1457.62 143.879 1460.68 139.075 1462.96 133.55L1461.58 132.977L1460.19 132.405C1458.04 137.618 1455.17 142.104 1451.6 145.881L1452.69 146.912ZM1461.58 132.977L1462.96 133.55C1465.26 127.978 1466.4 121.836 1466.4 115.143H1464.9H1463.4C1463.4 121.491 1462.32 127.238 1460.19 132.405L1461.58 132.977ZM1464.9 115.143V116.643H1487.46V115.143V113.643H1464.9V115.143ZM1487.46 115.143H1485.96C1485.96 123.048 1485.1 130.136 1483.4 136.419L1484.84 136.812L1486.29 137.206C1488.08 130.62 1488.96 123.262 1488.96 115.143H1487.46ZM1484.84 136.812L1483.4 136.417C1481.68 142.683 1479.31 148.118 1476.3 152.741L1477.56 153.56L1478.81 154.379C1482.02 149.456 1484.51 143.726 1486.29 137.208L1484.84 136.812ZM1477.56 153.56L1476.3 152.735C1473.28 157.34 1469.83 161.086 1465.98 163.996L1466.88 165.193L1467.79 166.39C1471.95 163.249 1475.62 159.239 1478.81 154.384L1477.56 153.56ZM1466.88 165.193L1466.08 163.926C1464.81 164.731 1463.58 165.493 1462.4 166.212L1463.17 167.494L1463.95 168.777C1465.16 168.047 1466.4 167.275 1467.68 166.46L1466.88 165.193ZM1463.17 167.494L1462.4 166.212C1461.19 166.942 1459.95 167.714 1458.66 168.528L1459.47 169.795L1460.27 171.063C1461.54 170.258 1462.77 169.496 1463.95 168.777L1463.17 167.494ZM1459.47 169.795L1458.53 168.628C1453.82 172.424 1448.57 175.165 1442.75 176.857L1443.17 178.297L1443.59 179.737C1449.79 177.935 1455.4 175.008 1460.41 170.963L1459.47 169.795ZM1443.17 178.297L1442.75 176.857C1436.91 178.567 1431.15 179.418 1425.46 179.418V180.918V182.418C1431.45 182.418 1437.5 181.521 1443.59 179.736L1443.17 178.297ZM1570.46 48.0909H1571.96V46.5909H1570.46V48.0909ZM1570.46 179V180.5H1571.96V179H1570.46ZM1542.78 179H1541.28V180.5H1542.78V179ZM1542.78 48.0909V46.5909H1541.28V48.0909H1542.78ZM1570.46 48.0909H1568.96V179H1570.46H1571.96V48.0909H1570.46ZM1570.46 179V177.5H1542.78V179V180.5H1570.46V179ZM1542.78 179H1544.28V48.0909H1542.78H1541.28V179H1542.78ZM1542.78 48.0909V49.5909H1570.46V48.0909V46.5909H1542.78V48.0909ZM1589.72 179H1588.22V180.5H1589.72V179ZM1589.72 80.8182V79.3182H1588.22V80.8182H1589.72ZM1615.67 80.8182H1617.17V79.3182H1615.67V80.8182ZM1615.67 98.1406H1614.17V99.6406H1615.67V98.1406ZM1616.82 98.1406V99.6406H1617.88L1618.23 98.6431L1616.82 98.1406ZM1627.05 84.5256L1626.19 83.2947L1627.05 84.5256ZM1661.37 84.5895L1660.5 85.8116L1660.51 85.8168L1661.37 84.5895ZM1670.83 98.1406L1669.39 98.5399L1669.69 99.6406H1670.83V98.1406ZM1671.86 98.1406V99.6406H1672.91L1673.27 98.6438L1671.86 98.1406ZM1682.72 84.6534L1683.53 85.9155L1683.54 85.9138L1682.72 84.6534ZM1723.76 88.2969L1722.69 89.3458L1722.69 89.3536L1723.76 88.2969ZM1732.39 179V180.5H1733.89V179H1732.39ZM1705.22 179H1703.72V180.5H1705.22V179ZM1700.88 106.067L1699.85 107.159V107.159L1700.88 106.067ZM1678.44 106.706L1679.56 107.703L1679.57 107.696L1678.44 106.706ZM1674.28 179V180.5H1675.78V179H1674.28ZM1647.89 179H1646.39V180.5H1647.89V179ZM1643.73 106.259L1642.65 107.295L1642.65 107.303L1643.73 106.259ZM1624.75 104.277L1625.54 105.549L1625.55 105.545L1624.75 104.277ZM1619.06 110.605L1620.39 111.301L1620.39 111.293L1619.06 110.605ZM1616.95 179V180.5H1618.45V179H1616.95ZM1589.72 179H1591.22V80.8182H1589.72H1588.22V179H1589.72ZM1589.72 80.8182V82.3182H1615.67V80.8182V79.3182H1589.72V80.8182ZM1615.67 80.8182H1614.17V98.1406H1615.67H1617.17V80.8182H1615.67ZM1615.67 98.1406V99.6406H1616.82V98.1406V96.6406H1615.67V98.1406ZM1616.82 98.1406L1618.23 98.6431C1620.18 93.1696 1623.4 88.8923 1627.9 85.7565L1627.05 84.5256L1626.19 83.2947C1621.15 86.8066 1617.55 91.606 1615.41 97.6381L1616.82 98.1406ZM1627.05 84.5256L1627.9 85.7565C1632.39 82.632 1637.79 81.0398 1644.18 81.0398V79.5398V78.0398C1637.27 78.0398 1631.25 79.7714 1626.19 83.2947L1627.05 84.5256ZM1644.18 79.5398V81.0398C1650.65 81.0398 1656.07 82.6536 1660.5 85.8116L1661.37 84.5895L1662.24 83.3674C1657.22 79.7925 1651.17 78.0398 1644.18 78.0398V79.5398ZM1661.37 84.5895L1660.51 85.8168C1664.95 88.9353 1667.9 93.1559 1669.39 98.5399L1670.83 98.1406L1672.28 97.7414C1670.61 91.7048 1667.26 86.8914 1662.24 83.3622L1661.37 84.5895ZM1670.83 98.1406V99.6406H1671.86V98.1406V96.6406H1670.83V98.1406ZM1671.86 98.1406L1673.27 98.6438C1675.16 93.3457 1678.56 89.111 1683.53 85.9155L1682.72 84.6534L1681.91 83.3913C1676.4 86.9288 1672.56 91.6856 1670.44 97.6375L1671.86 98.1406ZM1682.72 84.6534L1683.54 85.9138C1688.54 82.6829 1694.49 81.0398 1701.45 81.0398V79.5398V78.0398C1694 78.0398 1687.47 79.8057 1681.91 83.393L1682.72 84.6534ZM1701.45 79.5398V81.0398C1710.26 81.0398 1717.29 83.8326 1722.69 89.3457L1723.76 88.2969L1724.83 87.248C1718.8 81.085 1710.96 78.0398 1701.45 78.0398V79.5398ZM1723.76 88.2969L1722.69 89.3536C1728.09 94.7901 1730.89 102.587 1730.89 112.97H1732.39H1733.89C1733.89 102.046 1730.93 93.3945 1724.82 87.2401L1723.76 88.2969ZM1732.39 112.97H1730.89V179H1732.39H1733.89V112.97H1732.39ZM1732.39 179V177.5H1705.22V179V180.5H1732.39V179ZM1705.22 179H1706.72V118.339H1705.22H1703.72V179H1705.22ZM1705.22 118.339H1706.72C1706.72 112.63 1705.2 108.078 1701.9 104.974L1700.88 106.067L1699.85 107.159C1702.35 109.51 1703.72 113.14 1703.72 118.339H1705.22ZM1700.88 106.067L1701.9 104.974C1698.7 101.96 1694.7 100.476 1690.01 100.476V101.976V103.476C1694.01 103.476 1697.26 104.719 1699.85 107.159L1700.88 106.067ZM1690.01 101.976V100.476C1684.72 100.476 1680.42 102.18 1677.31 105.716L1678.44 106.706L1679.57 107.696C1682 104.925 1685.41 103.476 1690.01 103.476V101.976ZM1678.44 106.706L1677.32 105.708C1674.25 109.153 1672.78 113.649 1672.78 119.043H1674.28H1675.78C1675.78 114.209 1677.09 110.481 1679.56 107.703L1678.44 106.706ZM1674.28 119.043H1672.78V179H1674.28H1675.78V119.043H1674.28ZM1674.28 179V177.5H1647.89V179V180.5H1674.28V179ZM1647.89 179H1649.39V117.764H1647.89H1646.39V179H1647.89ZM1647.89 117.764H1649.39C1649.39 112.646 1647.9 108.406 1644.81 105.214L1643.73 106.259L1642.65 107.303C1645.1 109.821 1646.39 113.252 1646.39 117.764H1647.89ZM1643.73 106.259L1644.82 105.222C1641.77 102.03 1637.75 100.476 1632.93 100.476V101.976V103.476C1637.05 103.476 1640.24 104.776 1642.65 107.295L1643.73 106.259ZM1632.93 101.976V100.476C1629.63 100.476 1626.63 101.315 1623.95 103.009L1624.75 104.277L1625.55 105.545C1627.72 104.171 1630.17 103.476 1632.93 103.476V101.976ZM1624.75 104.277L1623.95 103.005C1621.32 104.652 1619.24 106.973 1617.72 109.918L1619.06 110.605L1620.39 111.293C1621.68 108.783 1623.4 106.885 1625.54 105.549L1624.75 104.277ZM1619.06 110.605L1617.73 109.909C1616.19 112.847 1615.45 116.248 1615.45 120.065H1616.95H1618.45C1618.45 116.639 1619.11 113.733 1620.39 111.301L1619.06 110.605ZM1616.95 120.065H1615.45V179H1616.95H1618.45V120.065H1616.95ZM1616.95 179V177.5H1589.72V179V180.5H1616.95V179ZM1762.15 177.594L1761.53 178.961L1761.54 178.965L1762.15 177.594ZM1750.51 167.814L1749.25 168.629L1749.26 168.636L1749.26 168.643L1750.51 167.814ZM1749.3 137.835L1747.98 137.122L1749.3 137.835ZM1757.48 128.886L1756.66 127.631L1757.48 128.886ZM1769.24 123.773L1768.87 122.321L1768.86 122.322L1769.24 123.773ZM1783.18 121.344L1783.32 122.837L1783.33 122.836L1783.18 121.344ZM1796.98 119.682L1797.2 121.166L1797.21 121.165L1797.22 121.163L1796.98 119.682ZM1804.59 117.253L1803.75 116.01L1804.59 117.253ZM1803.12 102.743L1802.13 103.868L1802.14 103.876L1803.12 102.743ZM1780.68 102.679L1781.57 103.887L1781.58 103.883L1781.58 103.879L1780.68 102.679ZM1774.93 110.733L1774.81 112.228L1776.03 112.327L1776.37 111.15L1774.93 110.733ZM1749.75 108.688L1748.28 108.373L1747.92 110.044L1749.63 110.183L1749.75 108.688ZM1757.29 93.2188L1758.43 94.1986L1758.43 94.1931L1757.29 93.2188ZM1771.8 83.1193L1772.35 84.5141L1772.36 84.512L1771.8 83.1193ZM1808.17 81.4574L1807.8 82.9104L1807.8 82.9111L1808.17 81.4574ZM1821.53 87.402L1820.68 88.6353L1820.68 88.6396L1821.53 87.402ZM1830.8 97.7571L1829.48 98.4651L1829.48 98.4707L1830.8 97.7571ZM1834.19 179V180.5H1835.69V179H1834.19ZM1808.36 179H1806.86V180.5H1808.36V179ZM1808.36 165.385H1809.86V163.885H1808.36V165.385ZM1807.6 165.385V163.885H1806.68L1806.26 164.699L1807.6 165.385ZM1801.27 173.503L1802.25 174.634L1802.26 174.625L1801.27 173.503ZM1791.74 178.936L1792.23 180.354L1792.24 180.352L1792.25 180.349L1791.74 178.936ZM1797.3 159.696L1797.99 161.03L1798 161.026L1798 161.023L1797.3 159.696ZM1804.53 153.176L1803.26 152.367L1804.53 153.176ZM1807.15 133.489H1808.65V130.725L1806.33 132.231L1807.15 133.489ZM1803.63 135.023L1804.06 136.462L1804.07 136.458L1804.08 136.454L1803.63 135.023ZM1798.71 136.237L1798.98 137.712L1799 137.709L1799.02 137.705L1798.71 136.237ZM1793.21 137.196L1793.42 138.682L1793.44 138.679L1793.45 138.677L1793.21 137.196ZM1788.23 137.899L1788.02 136.414L1788.01 136.415L1788.23 137.899ZM1779.85 140.136L1780.44 141.515L1779.85 140.136ZM1774.29 144.291L1775.48 145.21L1775.48 145.203L1775.49 145.196L1774.29 144.291ZM1776.34 159.185L1775.45 160.396L1775.46 160.404L1775.48 160.412L1776.34 159.185ZM1778.89 180.854V179.354C1772.81 179.354 1767.44 178.298 1762.76 176.223L1762.15 177.594L1761.54 178.965C1766.66 181.236 1772.46 182.354 1778.89 182.354V180.854ZM1762.15 177.594L1762.77 176.227C1758.11 174.122 1754.46 171.044 1751.76 166.985L1750.51 167.814L1749.26 168.643C1752.28 173.192 1756.38 176.633 1761.53 178.961L1762.15 177.594ZM1750.51 167.814L1751.77 166.999C1749.15 162.95 1747.8 157.839 1747.8 151.578H1746.3H1744.8C1744.8 158.272 1746.25 163.985 1749.25 168.629L1750.51 167.814ZM1746.3 151.578H1747.8C1747.8 146.301 1748.76 141.981 1750.62 138.548L1749.3 137.835L1747.98 137.122C1745.83 141.104 1744.8 145.946 1744.8 151.578H1746.3ZM1749.3 137.835L1750.62 138.548C1752.51 135.055 1755.06 132.261 1758.3 130.142L1757.48 128.886L1756.66 127.631C1753 130.029 1750.1 133.2 1747.98 137.122L1749.3 137.835ZM1757.48 128.886L1758.3 130.142C1761.61 127.98 1765.38 126.337 1769.62 125.224L1769.24 123.773L1768.86 122.322C1764.33 123.509 1760.26 125.276 1756.66 127.631L1757.48 128.886ZM1769.24 123.773L1769.62 125.225C1773.97 124.095 1778.54 123.298 1783.32 122.837L1783.18 121.344L1783.03 119.851C1778.1 120.327 1773.38 121.149 1768.87 122.321L1769.24 123.773ZM1783.18 121.344L1783.33 122.836C1789.05 122.238 1793.68 121.682 1797.2 121.166L1796.98 119.682L1796.77 118.198C1793.3 118.705 1788.72 119.256 1783.02 119.852L1783.18 121.344ZM1796.98 119.682L1797.22 121.163C1800.78 120.6 1803.58 119.749 1805.43 118.496L1804.59 117.253L1803.75 116.01C1802.45 116.888 1800.18 117.656 1796.75 118.2L1796.98 119.682ZM1804.59 117.253L1805.43 118.496C1807.47 117.121 1808.46 115.052 1808.46 112.523H1806.96H1805.46C1805.46 114.17 1804.87 115.254 1803.75 116.01L1804.59 117.253ZM1806.96 112.523H1808.46V112.139H1806.96H1805.46V112.523H1806.96ZM1806.96 112.139H1808.46C1808.46 107.75 1807.05 104.166 1804.1 101.609L1803.12 102.743L1802.14 103.876C1804.3 105.751 1805.46 108.432 1805.46 112.139H1806.96ZM1803.12 102.743L1804.11 101.618C1801.23 99.0809 1797.25 97.919 1792.38 97.919V99.419V100.919C1796.8 100.919 1799.98 101.973 1802.13 103.868L1803.12 102.743ZM1792.38 99.419V97.919C1787.27 97.919 1783.02 99.0525 1779.78 101.479L1780.68 102.679L1781.58 103.879C1784.14 101.959 1787.69 100.919 1792.38 100.919V99.419ZM1780.68 102.679L1779.8 101.47C1776.65 103.783 1774.53 106.738 1773.49 110.316L1774.93 110.733L1776.37 111.15C1777.21 108.251 1778.92 105.836 1781.57 103.887L1780.68 102.679ZM1774.93 110.733L1775.05 109.238L1749.87 107.192L1749.75 108.688L1749.63 110.183L1774.81 112.228L1774.93 110.733ZM1749.75 108.688L1751.21 109.002C1752.44 103.266 1754.85 98.3426 1758.43 94.1986L1757.29 93.2188L1756.15 92.2389C1752.23 96.788 1749.61 102.177 1748.28 108.373L1749.75 108.688ZM1757.29 93.2188L1758.43 94.1931C1762.01 90.0086 1766.63 86.7773 1772.35 84.5141L1771.8 83.1193L1771.25 81.7245C1765.12 84.1488 1760.07 87.6505 1756.15 92.2444L1757.29 93.2188ZM1771.8 83.1193L1772.36 84.512C1778.11 82.2103 1784.82 81.0398 1792.51 81.0398V79.5398V78.0398C1784.52 78.0398 1777.42 79.2556 1771.24 81.7266L1771.8 83.1193ZM1792.51 79.5398V81.0398C1797.85 81.0398 1802.94 81.665 1807.8 82.9104L1808.17 81.4574L1808.54 80.0044C1803.43 78.693 1798.08 78.0398 1792.51 78.0398V79.5398ZM1808.17 81.4574L1807.8 82.9111C1812.67 84.1499 1816.96 86.0621 1820.68 88.6353L1821.53 87.402L1822.38 86.1687C1818.34 83.3726 1813.72 81.3217 1808.54 80.0036L1808.17 81.4574ZM1821.53 87.402L1820.68 88.6396C1824.4 91.1874 1827.33 94.4568 1829.48 98.4651L1830.8 97.7571L1832.12 97.0491C1829.75 92.6199 1826.5 88.9859 1822.38 86.1644L1821.53 87.402ZM1830.8 97.7571L1829.48 98.4707C1831.59 102.383 1832.69 107.133 1832.69 112.778H1834.19H1835.69C1835.69 106.748 1834.52 101.484 1832.12 97.0435L1830.8 97.7571ZM1834.19 112.778H1832.69V179H1834.19H1835.69V112.778H1834.19ZM1834.19 179V177.5H1808.36V179V180.5H1834.19V179ZM1808.36 179H1809.86V165.385H1808.36H1806.86V179H1808.36ZM1808.36 165.385V163.885H1807.6V165.385V166.885H1808.36V165.385ZM1807.6 165.385L1806.26 164.699C1804.77 167.598 1802.78 170.157 1800.27 172.381L1801.27 173.503L1802.26 174.625C1805.04 172.161 1807.27 169.308 1808.93 166.071L1807.6 165.385ZM1801.27 173.503L1800.28 172.372C1797.8 174.535 1794.79 176.257 1791.24 177.523L1791.74 178.936L1792.25 180.349C1796.11 178.973 1799.45 177.073 1802.25 174.634L1801.27 173.503ZM1791.74 178.936L1791.25 177.518C1787.74 178.731 1783.62 179.354 1778.89 179.354V180.854V182.354C1783.88 182.354 1788.33 181.698 1792.23 180.354L1791.74 178.936ZM1786.69 162.061V163.561C1790.9 163.561 1794.68 162.732 1797.99 161.03L1797.3 159.696L1796.62 158.362C1793.79 159.813 1790.5 160.561 1786.69 160.561V162.061ZM1797.3 159.696L1798 161.023C1801.28 159.291 1803.89 156.946 1805.79 153.985L1804.53 153.176L1803.26 152.367C1801.67 154.861 1799.46 156.862 1796.6 158.369L1797.3 159.696ZM1804.53 153.176L1805.79 153.985C1807.7 151 1808.65 147.626 1808.65 143.908H1807.15H1805.65C1805.65 147.092 1804.85 149.897 1803.26 152.367L1804.53 153.176ZM1807.15 143.908H1808.65V133.489H1807.15H1805.65V143.908H1807.15ZM1807.15 133.489L1806.33 132.231C1805.64 132.682 1804.61 133.144 1803.18 133.592L1803.63 135.023L1804.08 136.454C1805.64 135.964 1806.95 135.403 1807.97 134.746L1807.15 133.489ZM1803.63 135.023L1803.21 133.584C1801.81 133.996 1800.21 134.392 1798.4 134.769L1798.71 136.237L1799.02 137.705C1800.88 137.316 1802.56 136.901 1804.06 136.462L1803.63 135.023ZM1798.71 136.237L1798.44 134.763C1796.61 135.101 1794.79 135.419 1792.97 135.716L1793.21 137.196L1793.45 138.677C1795.3 138.376 1797.14 138.055 1798.98 137.712L1798.71 136.237ZM1793.21 137.196L1793.01 135.71C1791.17 135.966 1789.51 136.201 1788.02 136.414L1788.23 137.899L1788.44 139.384C1789.93 139.171 1791.59 138.937 1793.42 138.682L1793.21 137.196ZM1788.23 137.899L1788.01 136.415C1784.71 136.898 1781.79 137.673 1779.26 138.758L1779.85 140.136L1780.44 141.515C1782.69 140.554 1785.35 139.838 1788.44 139.383L1788.23 137.899ZM1779.85 140.136L1779.26 138.758C1776.68 139.864 1774.6 141.396 1773.1 143.387L1774.29 144.291L1775.49 145.196C1776.63 143.692 1778.25 142.454 1780.44 141.515L1779.85 140.136ZM1774.29 144.291L1773.11 143.372C1771.55 145.386 1770.81 147.858 1770.81 150.683H1772.31H1773.81C1773.81 148.395 1774.4 146.605 1775.48 145.21L1774.29 144.291ZM1772.31 150.683H1770.81C1770.81 154.806 1772.33 158.118 1775.45 160.396L1776.34 159.185L1777.22 157.973C1774.97 156.331 1773.81 153.976 1773.81 150.683H1772.31ZM1776.34 159.185L1775.48 160.412C1778.51 162.547 1782.29 163.561 1786.69 163.561V162.061V160.561C1782.75 160.561 1779.62 159.657 1777.2 157.958L1776.34 159.185ZM1873.85 214.22L1874.39 212.82L1874.39 212.818L1873.85 214.22ZM1858.9 204.44L1857.78 205.442L1858.9 204.44ZM1851.67 190.506L1851.47 189.019L1849.87 189.235L1850.21 190.821L1851.67 190.506ZM1876.86 187.118L1878.25 186.571L1877.82 185.474L1876.66 185.631L1876.86 187.118ZM1880.5 192.615L1881.57 191.568L1880.5 192.615ZM1887.08 196.706L1887.62 195.306L1887.61 195.301L1887.08 196.706ZM1911.82 193.957L1910.93 192.749L1910.92 192.755L1910.92 192.761L1911.82 193.957ZM1917.64 161.614H1919.14V160.114H1917.64V161.614ZM1916.49 161.614V160.114H1915.51L1915.11 161.012L1916.49 161.614ZM1911.12 169.348L1912.19 170.399L1911.12 169.348ZM1868.36 172.48L1867.61 173.781L1867.62 173.787L1868.36 172.48ZM1853.97 156.692L1852.63 157.359L1852.64 157.369L1853.97 156.692ZM1854.1 101.848L1852.75 101.193L1854.1 101.848ZM1868.55 85.1009L1867.76 83.8218L1867.76 83.8243L1868.55 85.1009ZM1902.23 82.3523L1901.56 83.6909L1901.57 83.697L1902.23 82.3523ZM1911.18 89.2557L1910.02 90.2036L1910.03 90.2134L1910.04 90.223L1911.18 89.2557ZM1916.49 97.3097L1915.13 97.9452L1915.53 98.8097H1916.49V97.3097ZM1917.51 97.3097V98.8097H1919.01V97.3097H1917.51ZM1917.51 80.8182V79.3182H1916.01V80.8182H1917.51ZM1944.55 80.8182H1946.05V79.3182H1944.55V80.8182ZM1938.41 200.925L1937.2 200.042L1938.41 200.925ZM1921.41 213.581L1920.87 212.183L1920.86 212.187L1921.41 213.581ZM1908.24 153.879L1909.12 155.098L1909.12 155.095L1908.24 153.879ZM1915.27 144.419L1913.88 143.859L1913.88 143.867L1915.27 144.419ZM1915.34 114.632L1913.94 115.165L1913.94 115.17L1915.34 114.632ZM1885.81 104.852L1886.73 106.036L1886.74 106.028L1885.81 104.852ZM1878.84 114.824L1880.25 115.344L1878.84 114.824ZM1878.84 144.291L1877.44 144.826L1877.44 144.835L1877.44 144.843L1878.84 144.291ZM1885.81 153.815L1884.91 155.017L1884.92 155.024L1884.93 155.031L1885.81 153.815ZM1896.54 217.864V216.364C1887.85 216.364 1880.48 215.166 1874.39 212.82L1873.85 214.22L1873.31 215.62C1879.84 218.132 1887.59 219.364 1896.54 219.364V217.864ZM1873.85 214.22L1874.39 212.818C1868.3 210.5 1863.53 207.361 1860.01 203.439L1858.9 204.44L1857.78 205.442C1861.68 209.787 1866.88 213.168 1873.32 215.622L1873.85 214.22ZM1858.9 204.44L1860.01 203.439C1856.47 199.489 1854.19 195.078 1853.14 190.191L1851.67 190.506L1850.21 190.821C1851.37 196.246 1853.91 201.125 1857.78 205.442L1858.9 204.44ZM1851.67 190.506L1851.87 191.992L1877.06 188.605L1876.86 187.118L1876.66 185.631L1851.47 189.019L1851.67 190.506ZM1876.86 187.118L1875.46 187.664C1876.31 189.834 1877.64 191.833 1879.43 193.662L1880.5 192.615L1881.57 191.568C1880.03 189.988 1878.94 188.322 1878.25 186.571L1876.86 187.118ZM1880.5 192.615L1879.43 193.662C1881.27 195.556 1883.67 197.027 1886.56 198.11L1887.08 196.706L1887.61 195.301C1885.05 194.339 1883.05 193.083 1881.57 191.568L1880.5 192.615ZM1887.08 196.706L1886.55 198.106C1889.53 199.255 1893.09 199.804 1897.18 199.804V198.304V196.804C1893.35 196.804 1890.17 196.287 1887.62 195.306L1887.08 196.706ZM1897.18 198.304V199.804C1903.36 199.804 1908.57 198.291 1912.73 195.154L1911.82 193.957L1910.92 192.761C1907.4 195.42 1902.86 196.804 1897.18 196.804V198.304ZM1911.82 193.957L1912.71 195.165C1917.11 191.926 1919.14 186.582 1919.14 179.575H1917.64H1916.14C1916.14 186.034 1914.29 190.279 1910.93 192.749L1911.82 193.957ZM1917.64 179.575H1919.14V161.614H1917.64H1916.14V179.575H1917.64ZM1917.64 161.614V160.114H1916.49V161.614V163.114H1917.64V161.614ZM1916.49 161.614L1915.11 161.012C1914 163.55 1912.33 165.98 1910.05 168.297L1911.12 169.348L1912.19 170.399C1914.68 167.859 1916.59 165.132 1917.86 162.215L1916.49 161.614ZM1911.12 169.348L1910.05 168.297C1907.83 170.556 1904.94 172.433 1901.35 173.904L1901.91 175.293L1902.48 176.681C1906.39 175.084 1909.64 172.998 1912.19 170.399L1911.12 169.348ZM1901.91 175.293L1901.35 173.904C1897.82 175.347 1893.55 176.094 1888.49 176.094V177.594V179.094C1893.83 179.094 1898.51 178.306 1902.48 176.681L1901.91 175.293ZM1888.49 177.594V176.094C1881.36 176.094 1874.9 174.448 1869.09 171.173L1868.36 172.48L1867.62 173.787C1873.91 177.331 1880.88 179.094 1888.49 179.094V177.594ZM1868.36 172.48L1869.1 171.179C1863.38 167.894 1858.78 162.866 1855.31 156.014L1853.97 156.692L1852.64 157.369C1856.33 164.665 1861.31 170.163 1867.61 173.781L1868.36 172.48ZM1853.97 156.692L1855.32 156.024C1851.91 149.177 1850.17 140.433 1850.17 129.717H1848.67H1847.17C1847.17 140.735 1848.96 149.974 1852.63 157.359L1853.97 156.692ZM1848.67 129.717H1850.17C1850.17 118.748 1851.96 109.699 1855.45 102.503L1854.1 101.848L1852.75 101.193C1849 108.912 1847.17 118.442 1847.17 129.717H1848.67ZM1854.1 101.848L1855.45 102.503C1858.97 95.2568 1863.61 89.9108 1869.34 86.3774L1868.55 85.1009L1867.76 83.8243C1861.47 87.7057 1856.48 93.5245 1852.75 101.193L1854.1 101.848ZM1868.55 85.1009L1869.33 86.3799C1875.14 82.8192 1881.5 81.0398 1888.43 81.0398V79.5398V78.0398C1880.95 78.0398 1874.05 79.9677 1867.76 83.8218L1868.55 85.1009ZM1888.43 79.5398V81.0398C1893.76 81.0398 1898.12 81.9506 1901.56 83.6908L1902.23 82.3523L1902.91 81.0137C1898.94 79.004 1894.09 78.0398 1888.43 78.0398V79.5398ZM1902.23 82.3523L1901.57 83.697C1905.11 85.4491 1907.92 87.6242 1910.02 90.2036L1911.18 89.2557L1912.35 88.3078C1909.93 85.3473 1906.77 82.9202 1902.9 81.0076L1902.23 82.3523ZM1911.18 89.2557L1910.04 90.223C1912.27 92.871 1913.96 95.4457 1915.13 97.9452L1916.49 97.3097L1917.85 96.6741C1916.54 93.8895 1914.7 91.0949 1912.33 88.2884L1911.18 89.2557ZM1916.49 97.3097V98.8097H1917.51V97.3097V95.8097H1916.49V97.3097ZM1917.51 97.3097H1919.01V80.8182H1917.51H1916.01V97.3097H1917.51ZM1917.51 80.8182V82.3182H1944.55V80.8182V79.3182H1917.51V80.8182ZM1944.55 80.8182H1943.05V179.959H1944.55H1946.05V80.8182H1944.55ZM1944.55 179.959H1943.05C1943.05 188.059 1941.07 194.722 1937.2 200.042L1938.41 200.925L1939.63 201.807C1943.94 195.877 1946.05 188.563 1946.05 179.959H1944.55ZM1938.41 200.925L1937.2 200.042C1933.3 205.408 1927.88 209.462 1920.87 212.183L1921.41 213.581L1921.95 214.979C1929.43 212.075 1935.35 207.691 1939.63 201.807L1938.41 200.925ZM1921.41 213.581L1920.86 212.187C1913.86 214.959 1905.77 216.364 1896.54 216.364V217.864V219.364C1906.07 219.364 1914.55 217.913 1921.96 214.975L1921.41 213.581ZM1897.12 157.139V158.639C1901.77 158.639 1905.79 157.485 1909.12 155.098L1908.24 153.879L1907.37 152.661C1904.64 154.62 1901.25 155.639 1897.12 155.639V157.139ZM1908.24 153.879L1909.12 155.095C1912.46 152.686 1914.96 149.284 1916.67 144.971L1915.27 144.419L1913.88 143.867C1912.35 147.736 1910.16 150.641 1907.36 152.663L1908.24 153.879ZM1915.27 144.419L1916.67 144.979C1918.42 140.624 1919.27 135.481 1919.27 129.589H1917.77H1916.27C1916.27 135.204 1915.45 139.947 1913.88 143.859L1915.27 144.419ZM1917.77 129.589H1919.27C1919.27 123.701 1918.44 118.525 1916.74 114.095L1915.34 114.632L1913.94 115.17C1915.48 119.177 1916.27 123.972 1916.27 129.589H1917.77ZM1915.34 114.632L1916.74 114.099C1915.04 109.624 1912.54 106.074 1909.22 103.532L1908.31 104.724L1907.4 105.916C1910.2 108.062 1912.4 111.117 1913.94 115.165L1915.34 114.632ZM1908.31 104.724L1909.22 103.532C1905.85 100.962 1901.79 99.7088 1897.12 99.7088V101.209V102.709C1901.23 102.709 1904.62 103.799 1907.4 105.916L1908.31 104.724ZM1897.12 101.209V99.7088C1892.36 99.7088 1888.25 101.008 1884.88 103.676L1885.81 104.852L1886.74 106.028C1889.5 103.839 1892.93 102.709 1897.12 102.709V101.209ZM1885.81 104.852L1884.89 103.668C1881.56 106.253 1879.09 109.825 1877.43 114.303L1878.84 114.824L1880.25 115.344C1881.74 111.3 1883.91 108.224 1886.73 106.036L1885.81 104.852ZM1878.84 114.824L1877.43 114.303C1875.78 118.765 1874.97 123.869 1874.97 129.589H1876.47H1877.97C1877.97 124.146 1878.74 119.406 1880.25 115.344L1878.84 114.824ZM1876.47 129.589H1874.97C1874.97 135.391 1875.78 140.481 1877.44 144.826L1878.84 144.291L1880.24 143.757C1878.74 139.834 1877.97 135.123 1877.97 129.589H1876.47ZM1878.84 144.291L1877.44 144.843C1879.15 149.149 1881.63 152.567 1884.91 155.017L1885.81 153.815L1886.7 152.613C1883.94 150.547 1881.77 147.615 1880.23 143.739L1878.84 144.291ZM1885.81 153.815L1884.93 155.031C1888.3 157.464 1892.39 158.639 1897.12 158.639V157.139V155.639C1892.9 155.639 1889.45 154.599 1886.68 152.599L1885.81 153.815ZM1981.88 174.781L1981.14 176.084L1981.15 176.089L1981.88 174.781ZM1965.14 157.267L1963.8 157.956L1963.8 157.959L1965.14 157.267ZM1965.14 103.766L1963.8 103.08L1965.14 103.766ZM1981.69 85.9318L1980.92 84.6429L1980.92 84.6449L1981.69 85.9318ZM2024.97 82.6719L2024.44 84.0769L2024.45 84.0816L2024.97 82.6719ZM2039.67 91.9403L2038.61 93.0064L2038.62 93.0118L2039.67 91.9403ZM2049.51 107.537L2048.11 108.063L2048.11 108.066L2049.51 107.537ZM2053.03 136.876V138.376H2054.53V136.876H2053.03ZM1970.12 136.876H1968.62V138.376H1970.12V136.876ZM1970.12 120.001V118.501H1968.62V120.001H1970.12ZM2027.39 120.001V121.501H2028.89V120.001H2027.39ZM2024.84 109.582L2023.53 110.319V110.319L2024.84 109.582ZM2017.74 102.487L2016.98 103.782L2016.99 103.788L2017.01 103.794L2017.74 102.487ZM1996.33 102.743L1997.1 104.032L1997.1 104.029L1996.33 102.743ZM1988.91 110.349L1990.22 111.09L1990.22 111.082L1988.91 110.349ZM1986.17 120.896L1984.67 120.88L1984.67 120.888V120.896H1986.17ZM1988.85 149.533L1987.51 150.21L1987.51 150.216L1987.52 150.223L1988.85 149.533ZM2016.72 159.312L2016.24 157.892L2016.72 159.312ZM2023.18 155.477L2022.14 154.391L2023.18 155.477ZM2027.27 149.213L2027.37 147.716L2026.26 147.643L2025.86 148.681L2027.27 149.213ZM2052.45 150.875L2053.92 151.185L2054.28 149.492L2052.55 149.378L2052.45 150.875ZM2044.59 166.727L2043.46 165.738L2043.46 165.739L2044.59 166.727ZM2029.38 177.21L2029.93 178.603L2029.94 178.601L2029.38 177.21ZM2007.96 180.918V179.418C1998.07 179.418 1989.64 177.414 1982.62 173.473L1981.88 174.781L1981.15 176.089C1988.7 180.33 1997.66 182.418 2007.96 182.418V180.918ZM1981.88 174.781L1982.63 173.478C1975.64 169.491 1970.26 163.867 1966.47 156.575L1965.14 157.267L1963.8 157.959C1967.86 165.752 1973.64 171.805 1981.14 176.084L1981.88 174.781ZM1965.14 157.267L1966.47 156.578C1962.68 149.247 1960.75 140.522 1960.75 130.357H1959.25H1957.75C1957.75 140.901 1959.75 150.117 1963.8 157.956L1965.14 157.267ZM1959.25 130.357H1960.75C1960.75 120.453 1962.68 111.832 1966.47 104.451L1965.14 103.766L1963.8 103.08C1959.75 110.955 1957.75 120.061 1957.75 130.357H1959.25ZM1965.14 103.766L1966.47 104.451C1970.27 97.0637 1975.59 91.3312 1982.46 87.2187L1981.69 85.9318L1980.92 84.6449C1973.56 89.0552 1967.85 95.2119 1963.8 103.08L1965.14 103.766ZM1981.69 85.9318L1982.46 87.2207C1989.35 83.1179 1997.47 81.0398 2006.88 81.0398V79.5398V78.0398C1997.02 78.0398 1988.35 80.223 1980.92 84.6429L1981.69 85.9318ZM2006.88 79.5398V81.0398C2013.19 81.0398 2019.04 82.0569 2024.44 84.0768L2024.97 82.6719L2025.49 81.2669C2019.73 79.1108 2013.52 78.0398 2006.88 78.0398V79.5398ZM2024.97 82.6719L2024.45 84.0816C2029.88 86.0544 2034.59 89.0282 2038.61 93.0064L2039.67 91.9403L2040.72 90.8743C2036.39 86.5855 2031.3 83.3802 2025.48 81.2622L2024.97 82.6719ZM2039.67 91.9403L2038.62 93.0118C2042.66 96.9724 2045.83 101.977 2048.11 108.063L2049.51 107.537L2050.92 107.011C2048.51 100.569 2045.11 95.1754 2040.72 90.8689L2039.67 91.9403ZM2049.51 107.537L2048.11 108.066C2050.37 114.081 2051.53 121.182 2051.53 129.398H2053.03H2054.53C2054.53 120.909 2053.34 113.436 2050.91 107.008L2049.51 107.537ZM2053.03 129.398H2051.53V136.876H2053.03H2054.53V129.398H2053.03ZM2053.03 136.876V135.376H1970.12V136.876V138.376H2053.03V136.876ZM1970.12 136.876H1971.62V120.001H1970.12H1968.62V136.876H1970.12ZM1970.12 120.001V121.501H2027.39V120.001V118.501H1970.12V120.001ZM2027.39 120.001H2028.89C2028.89 115.857 2027.99 112.124 2026.14 108.846L2024.84 109.582L2023.53 110.319C2025.09 113.092 2025.89 116.305 2025.89 120.001H2027.39ZM2024.84 109.582L2026.14 108.846C2024.31 105.582 2021.74 103.019 2018.48 101.18L2017.74 102.487L2017.01 103.794C2019.79 105.364 2021.96 107.532 2023.53 110.319L2024.84 109.582ZM2017.74 102.487L2018.5 101.193C2015.26 99.2923 2011.51 98.3665 2007.32 98.3665V99.8665V101.366C2011.06 101.366 2014.26 102.188 2016.98 103.782L2017.74 102.487ZM2007.32 99.8665V98.3665C2002.95 98.3665 1999.01 99.3843 1995.56 101.457L1996.33 102.743L1997.1 104.029C2000.04 102.266 2003.43 101.366 2007.32 101.366V99.8665ZM1996.33 102.743L1995.56 101.454C1992.18 103.463 1989.52 106.19 1987.61 109.617L1988.91 110.349L1990.22 111.082C1991.88 108.117 1994.17 105.773 1997.1 104.032L1996.33 102.743ZM1988.91 110.349L1987.61 109.609C1985.69 112.999 1984.71 116.766 1984.67 120.88L1986.17 120.896L1987.67 120.913C1987.71 117.271 1988.56 114.007 1990.22 111.09L1988.91 110.349ZM1986.17 120.896H1984.67V136.94H1986.17H1987.67V120.896H1986.17ZM1986.17 136.94H1984.67C1984.67 141.981 1985.59 146.421 1987.51 150.21L1988.85 149.533L1990.19 148.855C1988.53 145.571 1987.67 141.615 1987.67 136.94H1986.17ZM1988.85 149.533L1987.52 150.223C1989.48 154.004 1992.25 156.947 1995.83 159.014L1996.58 157.714L1997.33 156.415C1994.27 154.646 1991.89 152.135 1990.18 148.843L1988.85 149.533ZM1996.58 157.714L1995.83 159.014C1999.43 161.086 2003.64 162.091 2008.41 162.091V160.591V159.091C2004.06 159.091 2000.39 158.179 1997.33 156.415L1996.58 157.714ZM2008.41 160.591V162.091C2011.58 162.091 2014.51 161.645 2017.2 160.733L2016.72 159.312L2016.24 157.892C2013.9 158.685 2011.29 159.091 2008.41 159.091V160.591ZM2016.72 159.312L2017.2 160.733C2019.91 159.816 2022.25 158.429 2024.21 156.563L2023.18 155.477L2022.14 154.391C2020.52 155.934 2018.56 157.104 2016.24 157.892L2016.72 159.312ZM2023.18 155.477L2024.21 156.563C2026.17 154.693 2027.66 152.412 2028.67 149.745L2027.27 149.213L2025.86 148.681C2025 150.958 2023.76 152.852 2022.14 154.391L2023.18 155.477ZM2027.27 149.213L2027.17 150.71L2052.35 152.372L2052.45 150.875L2052.55 149.378L2027.37 147.716L2027.27 149.213ZM2052.45 150.875L2050.98 150.565C2049.76 156.372 2047.25 161.42 2043.46 165.738L2044.59 166.727L2045.72 167.717C2049.85 163 2052.59 157.48 2053.92 151.185L2052.45 150.875ZM2044.59 166.727L2043.46 165.739C2039.71 170.015 2034.85 173.382 2028.81 175.819L2029.38 177.21L2029.94 178.601C2036.35 176.01 2041.62 172.388 2045.72 167.716L2044.59 166.727ZM2029.38 177.21L2028.82 175.818C2022.85 178.205 2015.91 179.418 2007.96 179.418V180.918V182.418C2016.21 182.418 2023.54 181.159 2029.93 178.603L2029.38 177.21Z" fill="white" mask="url(#path-2-outside-1_2452_11953)"/>
</svg>
